<?xml version="1.0" encoding="utf-8"?>
<!-- Generator: Adobe Illustrator 23.0.1, SVG Export Plug-In . SVG Version: 6.00 Build 0)  -->
<svg version="1.1" id="svg4525" xmlns="http://www.w3.org/2000/svg" xmlns:xlink="http://www.w3.org/1999/xlink" x="0px" y="0px"
	 viewBox="0 0 170 100" style="enable-background:new 0 0 170 100;" xml:space="preserve">
<style type="text/css">
	.st0{fill:#D4B830;}
	.st1{opacity:0.986;fill:#EBEBEB;fill-opacity:0;enable-background:new    ;}
	.st2{opacity:0.986;fill:#EBEBEB;fill-opacity:0.9216;enable-background:new    ;}
	.st3{fill:#FDD83C;}
</style>
<g id="g5193" transform="translate(4.988 -113.385)">
	<path id="path5113" class="st0" d="M49.5,197l-6.9-76.4l74.8,0l-6.9,76.3l-30.6,8.6L49.5,197z M104.8,192.8l5.8-65.5H80l0.2,72.2
		L104.8,192.8z M77.1,137h-7.4l-0.1,39.2l-14.4-3.9l0,9l21.9,5.9L77.1,137L77.1,137z"/>
	<path id="path5159" class="st1" d="M74.7,186.4c-1-0.3-5.7-1.6-10.6-2.9l-8.8-2.4v-4.4c0-4.3,0-4.4,0.4-4.3c0.2,0.1,3.4,1,7.1,2
		l6.7,1.8l0.1-19.5l0.1-19.5H77V162c0,19.7-0.1,24.9-0.3,24.9C76.6,186.9,75.6,186.6,74.7,186.4L74.7,186.4z"/>
	<path id="path5157" class="st2" d="M55.2,181.2l0-9c0,0,9.2,2.6,14.4,3.9l0.1-39.1h7.4v50.1L55.2,181.2L55.2,181.2z"/>
	<path id="path5117" class="st3" d="M80,127.4h30.6l-5.8,65.5L80,199.5V127.4z M103.2,181.8l2-24.5L90.4,159V146l15.9-0.1l0.6-8.9
		l-23.9,0.1l0.3,32.5l14.5-2.5l-0.2,7.2l-14.6,3.9l0.1,8.9L103.2,181.8L103.2,181.8z"/>
</g>
</svg>
