<?xml version="1.0" encoding="utf-8"?>
<!-- Generator: Adobe Illustrator 23.0.1, SVG Export Plug-In . SVG Version: 6.00 Build 0)  -->
<svg version="1.1" id="Layer_1" xmlns="http://www.w3.org/2000/svg" xmlns:xlink="http://www.w3.org/1999/xlink" x="0px" y="0px"
	 viewBox="0 0 170 100" style="enable-background:new 0 0 170 100;" xml:space="preserve">
<style type="text/css">
	.st0{fill:none;}
	.st1{fill:#4F4F4F;}
	.st2{fill:#777778;}
	.st3{fill:#F37826;}
	.st4{fill:#9E9E9E;}
	.st5{fill:#616363;}
</style>
<title>jupyter-2</title>
<rect x="0" y="-4" class="st0" width="170" height="108"/>
<g id="Canvas">
	<g id="Group">
		<g id="g">
			<g id="path">
				<path id="path0_fill" class="st1" d="M48.3,52.1c0,2.9-0.2,3.9-0.8,4.6c-0.7,0.6-1.5,0.9-2.4,0.9l0.2,1.7c1.4,0,2.7-0.5,3.8-1.3
					c0.6-0.7,1-1.5,1.2-2.4s0.3-1.8,0.2-2.6V41.9h-2.2V52.1z"/>
			</g>
			<path id="path1_fill" class="st1" d="M65,50.8c0,1.3,0,2.4,0.1,3.3h-2l-0.1-2c-0.8,1.4-2.4,2.3-4.1,2.3c-1.9,0-4.2-1-4.2-5.3V42
				h2.2v6.7c0,2.3,0.7,3.9,2.7,3.9c0.4,0,0.8-0.1,1.2-0.2c0.4-0.2,0.7-0.4,1-0.7c0.6-0.6,0.9-1.4,0.9-2.2V42h2.2L65,50.8L65,50.8z"
				/>
			<path id="path2_fill" class="st1" d="M69.2,46c0-1.6,0-2.8-0.1-4h2l0.1,2.1c0.4-0.8,1.1-1.4,1.9-1.8c0.8-0.4,1.6-0.6,2.5-0.6
				c3,0,5.2,2.5,5.2,6.2c0,4.4-2.7,6.5-5.6,6.5c-0.7,0-1.5-0.1-2.1-0.4c-0.7-0.3-1.2-0.8-1.6-1.5l0,0v6.7h-2.3V46z M71.4,49.2
				c0,0.3,0,0.6,0.1,0.9c0.4,1.5,1.8,2.6,3.3,2.6c2.3,0,3.7-1.9,3.7-4.7c0-2.4-1.3-4.5-3.7-4.5c-0.9,0.1-1.8,0.5-2.4,1.2
				s-1,1.6-1.1,2.5L71.4,49.2L71.4,49.2z"/>
			<path id="path3_fill" class="st1" d="M84.7,42l2.7,7.2c0.3,0.8,0.6,1.8,0.8,2.5c0.2-0.7,0.5-1.7,0.8-2.5l2.5-7.2h2.4l-3.3,8.7
				c-1.7,4.2-2.7,6.3-4.2,7.6c-0.8,0.7-1.7,1.2-2.7,1.4l-0.6-1.9c0.7-0.2,1.4-0.6,2-1.1c0.8-0.7,1.5-1.5,1.9-2.5
				c0.1-0.2,0.2-0.4,0.2-0.5c0-0.2-0.1-0.4-0.2-0.6L82.3,42H84.7z"/>
			<path id="path4_fill" class="st1" d="M99.7,38.5V42h3.2v1.7h-3.2v6.6c0,1.5,0.4,2.4,1.7,2.4c0.4,0,0.9,0,1.3-0.2l0.1,1.7
				c-0.6,0.2-1.3,0.3-2,0.3c-0.4,0-0.9,0-1.3-0.2s-0.8-0.4-1.1-0.7c-0.7-0.9-1-2-0.9-3.2v-6.7h-1.9V42h1.9v-3L99.7,38.5z"/>
			<path id="path5_fill" class="st1" d="M107.1,48.5c0,0.6,0,1.1,0.2,1.7c0.2,0.5,0.5,1,0.9,1.4s0.9,0.7,1.4,0.9s1.1,0.3,1.7,0.2
				c1.1,0,2.3-0.2,3.3-0.6l0.4,1.7c-1.3,0.5-2.7,0.8-4.1,0.8c-0.8,0.1-1.6-0.1-2.4-0.4c-0.8-0.3-1.4-0.7-2-1.3
				c-1.2-1.2-1.8-2.8-1.6-4.5c0-3.7,2.2-6.6,5.8-6.6c4,0,5,3.5,5,5.7c0,0.3,0,0.7,0,1L107.1,48.5L107.1,48.5z M113.6,46.8
				c0.1-0.4,0-0.9-0.1-1.3c-0.2-0.9-0.9-1.6-1.7-2c-0.4-0.2-0.9-0.3-1.3-0.3c-1.9,0.1-3.4,1.7-3.4,3.6H113.6z"/>
			<path id="path6_fill" class="st1" d="M119,45.8c0-1.4,0-2.7-0.1-3.8h2v2.4h0.1c0.4-1.5,1.8-2.6,3.3-2.7c0.2,0,0.4,0,0.6,0v2.1
				c-0.3,0-0.5,0-0.8,0c-0.7,0-1.5,0.3-2,0.8c-0.6,0.5-0.9,1.2-1,2c-0.1,0.3-0.1,0.7-0.1,1v6.5h-2.2v-8.3H119z"/>
		</g>
	</g>
	<path id="path7_fill" class="st2" d="M118.1,8.5c0.2,3.1-2.2,5.8-5.3,6c-3.1,0.2-5.8-2.2-6-5.3s2.2-5.8,5.3-6h0.1
		c0.7,0,1.5,0.1,2.2,0.3c0.7,0.2,1.3,0.6,1.9,1.1c0.5,0.5,1,1.1,1.3,1.8C117.8,7,118,7.7,118.1,8.5L118.1,8.5z"/>
	<path id="path8_fill" class="st3" d="M85.1,73.8c-15,0-28.2-5.4-35-13.3c7.2,19.4,28.7,29.2,48,22.1c10.2-3.8,18.3-11.8,22.1-22.1
		C113.3,68.4,100.1,73.8,85.1,73.8z"/>
	<path id="path9_fill" class="st3" d="M85.1,22c15,0,28.2,5.4,35,13.4c-7.2-19.4-28.7-29.2-48-22.1C61.9,17.1,53.8,25.1,50,35.4
		C56.8,27.4,70,22,85.1,22z"/>
	<path id="path10_fill" class="st4" d="M64.4,89.3c0.2,2.9-1.4,5.6-4,6.9s-5.7,0.8-7.9-1.1c-1.1-0.9-1.8-2.2-2.2-3.6
		c-0.3-1.4-0.3-2.8,0.2-4.2c1-2.7,3.5-4.6,6.4-4.7C60.9,82.4,64.2,85.4,64.4,89.3L64.4,89.3z"/>
	<path id="path11_fill" class="st5" d="M51.7,20.2c-0.8,0-1.6-0.2-2.3-0.6s-1.2-1.1-1.6-1.8c-0.3-0.7-0.4-1.6-0.3-2.4
		c0.3-1.6,1.5-2.9,3.1-3.3c2.2-0.5,4.4,0.8,4.9,3c0.1,0.3,0.1,0.5,0.1,0.8C55.8,18.2,54,20.2,51.7,20.2L51.7,20.2z"/>
</g>
</svg>
