<svg id="Layer_1" data-name="Layer 1" xmlns="http://www.w3.org/2000/svg" viewBox="0 0 170 100"><defs><style>.cls-1{fill:none;}.cls-2{fill:#fff;}.cls-2,.cls-3,.cls-4,.cls-5,.cls-6,.cls-7{fill-opacity:0.8;stroke:#787878;stroke-width:0.63px;}.cls-3{fill:#f26722;}.cls-4{fill:#ffcd05;}.cls-5{fill:#94cb69;}.cls-6{fill:#ccdb2a;}.cls-7{fill:#3f5caa;}</style></defs><title>matplotlib-2</title><rect class="cls-1" width="170" height="100"/><path class="cls-2" d="M84.37,10a40,40,0,1,0,1.26,0Zm0,8.89a31.11,31.11,0,1,0,1.26,0Zm0,8.89a22.22,22.22,0,1,0,1.26,0Zm0,8.89a13.34,13.34,0,1,0,1.26,0Zm0,8.89a4.45,4.45,0,1,0,1.26,0ZM125,50H45m68.57-28.57L56.43,78.57m57.14,0L56.43,21.43M85,10V90"/><path class="cls-3" d="M76.11,14.44l-12.7,6.35,43.18,58.42,6.35-6.35L85,50Z"/><path class="cls-4" d="M55.16,41.11V58.89L85,50Z"/><path class="cls-5" d="M85,50l3.81,22.22H81.19Z"/><path class="cls-6" d="M85,50l8.25-25.4L99,27.78Z"/><path class="cls-7" d="M85,50l8.89-3.81.63,2.54-26,9.52,1.91,2.54Z"/></svg>