<?xml version="1.0" encoding="utf-8"?>
<!-- Generator: Adobe Illustrator 23.0.1, SVG Export Plug-In . SVG Version: 6.00 Build 0)  -->
<svg version="1.1"
	 id="svg3850" inkscape:version="0.92.4 (5da689c313, 2019-01-14)" sodipodi:docname="mongodb-2.svg" xmlns:cc="http://creativecommons.org/ns#" xmlns:dc="http://purl.org/dc/elements/1.1/" xmlns:inkscape="http://www.inkscape.org/namespaces/inkscape" xmlns:rdf="http://www.w3.org/1999/02/22-rdf-syntax-ns#" xmlns:sodipodi="http://sodipodi.sourceforge.net/DTD/sodipodi-0.dtd" xmlns:svg="http://www.w3.org/2000/svg"
	 xmlns="http://www.w3.org/2000/svg" xmlns:xlink="http://www.w3.org/1999/xlink" x="0px" y="0px" viewBox="0 0 170 100"
	 style="enable-background:new 0 0 170 100;" xml:space="preserve">
<style type="text/css">
	.st0{fill-rule:evenodd;clip-rule:evenodd;fill:#FFFFFF;}
	.st1{fill-rule:evenodd;clip-rule:evenodd;fill:#A6A385;}
	.st2{fill-rule:evenodd;clip-rule:evenodd;fill:#499D4A;}
	.st3{fill-rule:evenodd;clip-rule:evenodd;fill:#58AA50;}
</style>
<sodipodi:namedview  bordercolor="#666666" borderopacity="1" gridtolerance="10" guidetolerance="10" id="namedview3852" inkscape:current-layer="svg3850" inkscape:cx="162.85211" inkscape:cy="356.5" inkscape:pageopacity="0" inkscape:pageshadow="2" inkscape:window-height="706" inkscape:window-maximized="1" inkscape:window-width="1366" inkscape:window-x="-8" inkscape:window-y="-8" inkscape:zoom="0.1136" objecttolerance="10" pagecolor="#ffffff" showgrid="false">
	</sodipodi:namedview>
<g id="g3848" transform="matrix(0.5043838,0,0,0.5043838,19.791357,0.91595541)">
	<path id="path3836" inkscape:connector-curvature="0" class="st0" d="M133.1,181.6l-4.5-1.5c0,0,0.5-22.9-7.7-24.5
		c-5.5-6.3,0.9-269.2,20.6-0.9c0,0-6.8,3.4-8,9.2C132.2,169.5,133.1,181.6,133.1,181.6z"/>
	<path id="path3838" inkscape:connector-curvature="0" class="st1" d="M133.1,181.6l-4.5-1.5c0,0,0.5-22.9-7.7-24.5
		c-5.5-6.3,0.9-269.2,20.6-0.9c0,0-6.8,3.4-8,9.2C132.2,169.5,133.1,181.6,133.1,181.6z"/>
	<path id="path3840" inkscape:connector-curvature="0" class="st0" d="M135.5,159.5c0,0,39.3-25.8,30.1-79.6
		c-8.9-39.1-29.8-51.9-32.1-56.8c-2.5-3.5-4.9-9.6-4.9-9.6l1.6,108.7C130.3,122.3,126.9,155.4,135.5,159.5"/>
	<path id="path3842" inkscape:connector-curvature="0" class="st2" d="M135.5,159.5c0,0,39.3-25.8,30.1-79.6
		c-8.9-39.1-29.8-51.9-32.1-56.8c-2.5-3.5-4.9-9.6-4.9-9.6l1.6,108.7C130.3,122.3,126.9,155.4,135.5,159.5"/>
	<path id="path3844" inkscape:connector-curvature="0" class="st0" d="M126.3,160.9c0,0-36.9-25.2-34.7-69.5
		c2.1-44.3,28.1-66.1,33.2-70c3.3-3.5,3.4-4.8,3.6-8.3c2.3,4.9,1.9,73.6,2.2,81.7C131.6,126,128.9,155,126.3,160.9L126.3,160.9z"/>
	<path id="path3846" inkscape:connector-curvature="0" class="st3" d="M126.3,160.9c0,0-36.9-25.2-34.7-69.5
		c2.1-44.3,28.1-66.1,33.2-70c3.3-3.5,3.4-4.8,3.6-8.3c2.3,4.9,1.9,73.6,2.2,81.7C131.6,126,128.9,155,126.3,160.9L126.3,160.9z"/>
</g>
</svg>
