<?xml version="1.0" encoding="utf-8"?>
<!-- Generator: Adobe Illustrator 23.0.1, SVG Export Plug-In . SVG Version: 6.00 Build 0)  -->
<svg version="1.1" id="Layer_1" xmlns="http://www.w3.org/2000/svg" xmlns:xlink="http://www.w3.org/1999/xlink" x="0px" y="0px"
	 viewBox="0 0 170 100" style="enable-background:new 0 0 170 100;" xml:space="preserve">
<style type="text/css">
	.st0{opacity:0.7;}
	.st1{fill:#638CBE;}
	.st2{fill:#7C89C4;}
	.st3{fill:#7884C1;}
	.st4{fill:#6473B7;}
	.st5{fill:#7B9EC8;}
	.st6{fill:#759AC7;}
	.st7{fill:#FFD65D;}
	.st8{fill:#FEDD79;}
	.st9{fill:#FFDC73;}
</style>
<title>numpy-2</title>
<g class="st0">
	<path class="st1" d="M82,52.4L82.2,65l-12.4-2.2l-0.3-12.6L82,52.4z"/>
	<path class="st2" d="M63.3,67.9L63.3,67.9l6.3-5V63L63.3,67.9z"/>
	<path class="st3" d="M63.4,67.9L63.4,67.9l6.2-4.9h0.1L63.4,67.9z"/>
	<path class="st4" d="M82.1,52.1L82.1,52.1L82.1,52.1l0.4,13v0.1h-0.1L69.7,63h-0.1v-0.1L69.3,50v-0.1h0.1L82.1,52.1L82.1,52.1z
		 M82.2,65L82,52.4l-12.5-2.2l0.3,12.6L82.2,65"/>
	<path class="st2" d="M63.3,67.7L63,54.9l6.3-4.9l0.3,12.8L63.3,67.7z M63,54.9L63,54.9l6.3-5V50L63,54.9z"/>
	<path class="st2" d="M63.3,55l6.3-4.9l0.3,12.6l-6.3,4.9L63.3,55z"/>
	<path class="st5" d="M63.5,67.7l-0.3-12.6l6.3-4.9l0.3,12.6L63.5,67.7z"/>
	<path class="st3" d="M63,54.8l6.3-4.9h0.1l-6.3,4.9H63z M76.1,70.1l-12.7-2.2l6.3-4.9l12.7,2.2L76.1,70.1z"/>
	<path class="st3" d="M63.5,67.7l6.3-4.9L82.2,65l-6.3,4.9L63.5,67.7z"/>
	<path class="st6" d="M75.9,69.8l-12.4-2.2l6.3-4.9L82.2,65L75.9,69.8z"/>
	<path class="st3" d="M76.2,70.1L76.2,70.1l6.2-4.9h0.1L76.2,70.1z"/>
	<path class="st2" d="M76.2,70l6.3-4.9v0.1L76.2,70L76.2,70z"/>
	<path class="st1" d="M75.7,57.2L76,69.8l-12.4-2.2L63.3,55L75.7,57.2z"/>
	<path class="st6" d="M63.3,55l6.3-4.9L82,52.4l-6.3,4.9L63.3,55z"/>
	<path class="st3" d="M75.7,57.2L63.3,55l6.3-4.9L82,52.4L75.7,57.2z"/>
	<path class="st5" d="M75.7,57.2l6.3-4.9L82.2,65l-6.3,4.9L75.7,57.2z"/>
	<path class="st2" d="M75.9,69.8l-0.3-12.6l6.3-4.9L82.2,65L75.9,69.8z"/>
	<path class="st3" d="M63.1,54.8l6.3-4.9l12.7,2.2L75.8,57L63.1,54.8z"/>
	<path class="st2" d="M75.9,57.2l6.3-4.9l0.3,12.8L76.2,70L75.9,57.2z"/>
	<path class="st3" d="M75.8,57l6.3-4.9h0.1L75.8,57L75.8,57z"/>
	<path class="st2" d="M75.9,57l6.3-4.9v0.1L75.9,57L75.9,57z"/>
	<path class="st4" d="M75.8,57L75.8,57L75.8,57l0.4,13v0.1h-0.1l-12.7-2.3h-0.1v-0.1L63,54.9v-0.1h0.1L75.8,57z M75.9,69.8
		l-0.3-12.6L63.3,55l0.3,12.6L75.9,69.8"/>
</g>
<g class="st0">
	<path class="st4" d="M124.6,59.9L124.6,59.9L124.6,59.9l0.4,13V73h-0.1l-12.7-2.2h-0.1v-0.2l-0.3-12.8v-0.1h0.1L124.6,59.9
		L124.6,59.9z M124.8,72.7l-0.3-12.6l-12.4-2.2l0.3,12.6L124.8,72.7"/>
	<path class="st1" d="M124.5,60.1l0.3,12.6l-12.4-2.2l-0.3-12.6L124.5,60.1z"/>
	<path class="st2" d="M105.8,75.6L105.8,75.6l6.3-5v0.1L105.8,75.6z"/>
	<path class="st3" d="M105.9,75.6L105.9,75.6l6.2-4.9h0.1L105.9,75.6z"/>
	<path class="st2" d="M105.8,75.5l-0.3-12.8l6.3-4.9l0.3,12.9L105.8,75.5z M105.6,62.6L105.6,62.6l6.3-5v0.1L105.6,62.6z"/>
	<path class="st2" d="M105.8,62.8l6.3-4.9l0.3,12.6l-6.3,4.9L105.8,62.8z"/>
	<path class="st5" d="M106.1,75.4l-0.3-12.6l6.3-4.9l0.3,12.6L106.1,75.4z"/>
	<path class="st3" d="M105.6,62.5l6.3-4.9h0.1L105.6,62.5L105.6,62.5z M118.6,77.8l-12.7-2.2l6.3-4.9l12.7,2.3L118.6,77.8z"/>
	<path class="st6" d="M118.5,77.6l-12.4-2.2l6.3-4.9l12.4,2.2L118.5,77.6z"/>
	<path class="st3" d="M106.1,75.4l6.3-4.9l12.4,2.2l-6.3,4.9L106.1,75.4z M118.7,77.9L118.7,77.9l6.2-4.9h0.1L118.7,77.9z"/>
	<path class="st2" d="M118.7,77.7l6.3-4.9V73l-6.3,4.9V77.7z"/>
	<path class="st1" d="M118.2,65l0.3,12.6l-12.4-2.2l-0.3-12.6L118.2,65z"/>
	<path class="st6" d="M105.8,62.8l6.3-4.9l12.4,2.2l-6.3,4.9L105.8,62.8z"/>
	<path class="st3" d="M118.2,65l-12.4-2.2l6.3-4.9l12.4,2.2L118.2,65z"/>
	<path class="st2" d="M118.5,77.6L118.2,65l6.3-4.9l0.3,12.6L118.5,77.6z"/>
	<path class="st5" d="M118.2,65l6.3-4.9l0.3,12.6l-6.3,4.9L118.2,65z"/>
	<path class="st3" d="M105.7,62.5l6.3-4.9l12.7,2.2l-6.3,4.9L105.7,62.5z"/>
	<path class="st2" d="M118.5,64.9l6.3-4.9l0.3,12.9l-6.3,4.9L118.5,64.9z"/>
	<path class="st3" d="M118.3,64.7l6.3-4.9h0.1L118.3,64.7L118.3,64.7z"/>
	<path class="st2" d="M118.5,64.8l6.3-4.9V60L118.5,64.8L118.5,64.8z"/>
	<path class="st4" d="M118.3,64.7L118.3,64.7L118.3,64.7l0.4,12.9v0.1h-0.1l-12.7-2.2h-0.1v-0.1l-0.3-12.8v-0.1h0.1L118.3,64.7
		L118.3,64.7z M118.5,77.6L118.2,65l-12.4-2.2l0.3,12.6L118.5,77.6"/>
</g>
<g class="st0">
	<path class="st4" d="M110.4,57.3L110.4,57.3L110.4,57.3l0.4,13v0.1h-0.1L98,68.2h-0.1v-0.1l-0.3-12.9v-0.1h0.1L110.4,57.3
		L110.4,57.3z M110.5,70.2l-0.3-12.6l-12.4-2.2L98.1,68L110.5,70.2"/>
	<path class="st1" d="M110.3,57.6l0.3,12.6L98.1,68l-0.3-12.6L110.3,57.6z"/>
	<path class="st2" d="M91.6,73.1L91.6,73.1l6.3-5v0.1L91.6,73.1z"/>
	<path class="st3" d="M91.7,73.1L91.7,73.1l6.2-4.9H98L91.7,73.1z"/>
	<path class="st2" d="M91.6,72.9l-0.3-12.8l6.3-4.9l0.3,12.9L91.6,72.9z"/>
	<path class="st2" d="M91.3,60.1L91.3,60.1l6.3-5v0.1L91.3,60.1z"/>
	<path class="st5" d="M91.8,72.8l-0.3-12.6l6.3-4.9L98.1,68L91.8,72.8z"/>
	<path class="st2" d="M91.6,60.3l6.3-4.9L98.1,68l-6.3,4.9L91.6,60.3z"/>
	<path class="st3" d="M91.3,60l6.3-4.9h0.1L91.5,60H91.3z M104.3,75.4l-12.6-2.3l6.3-4.9l12.7,2.2L104.3,75.4z"/>
	<path class="st6" d="M104.3,75l-12.4-2.2l6.3-4.8l12.4,2.2L104.3,75z"/>
	<path class="st3" d="M91.8,72.8l6.3-4.8l12.4,2.2l-6.3,4.8L91.8,72.8z M104.5,75.3L104.5,75.3l6.2-4.9h0.1L104.5,75.3z"/>
	<path class="st2" d="M104.5,75.2l6.3-4.9v0.1L104.5,75.2L104.5,75.2z"/>
	<path class="st1" d="M104,62.5l0.3,12.5l-12.4-2.2l-0.3-12.6L104,62.5z"/>
	<path class="st3" d="M104,62.5l-12.4-2.2l6.3-4.9l12.4,2.2L104,62.5z"/>
	<path class="st6" d="M91.6,60.3l6.3-4.9l12.4,2.2l-6.3,4.9L91.6,60.3z"/>
	<path class="st2" d="M104.3,75L104,62.5l6.3-4.9l0.3,12.6L104.3,75z"/>
	<path class="st5" d="M104,62.5l6.3-4.9l0.3,12.6l-6.3,4.8L104,62.5z"/>
	<path class="st3" d="M91.5,60l6.3-4.9l12.7,2.2l-6.3,4.9L91.5,60z"/>
	<path class="st2" d="M104.3,62.4l6.3-4.9l0.3,12.8l-6.3,4.9L104.3,62.4z"/>
	<path class="st3" d="M104.1,62.2l6.3-4.9h0.1L104.1,62.2L104.1,62.2z"/>
	<path class="st2" d="M104.3,62.2l6.3-4.9v0.1L104.3,62.2L104.3,62.2z"/>
	<path class="st4" d="M104.1,62.2L104.1,62.2L104.1,62.2l0.4,13v0.1h-0.1l-12.7-2.2h-0.1V73l-0.3-12.8V60h0.1L104.1,62.2L104.1,62.2
		z M104.3,75L104,62.5l-12.4-2.2l0.3,12.6L104.3,75"/>
</g>
<g class="st0">
	<path class="st4" d="M96.1,54.7L96.1,54.7L96.1,54.7l0.4,12.9v0.1h-0.1l-12.6-2.2h-0.1v-0.1l-0.3-12.9v-0.1h0.1L96.1,54.7z
		 M96.2,67.6L96,55l-12.4-2.2l0.3,12.6L96.2,67.6"/>
	<path class="st1" d="M96,55l0.3,12.6l-12.4-2.2l-0.3-12.6L96,55z"/>
	<path class="st2" d="M77.3,70.5L77.3,70.5l6.3-5v0.1L77.3,70.5z"/>
	<path class="st3" d="M77.4,70.5L77.4,70.5l6.2-4.9h0.1L77.4,70.5z"/>
	<path class="st2" d="M77.3,70.3L77,57.5l6.3-4.9l0.3,12.9L77.3,70.3z"/>
	<path class="st2" d="M77,57.5L77,57.5l6.3-5v0.1L77,57.5z M77.3,57.7l6.3-4.9l0.3,12.6l-6.3,4.9L77.3,57.7z"/>
	<path class="st5" d="M77.5,70.3l-0.3-12.6l6.3-4.9l0.3,12.6L77.5,70.3z"/>
	<path class="st3" d="M77,57.4l6.3-4.9h0.1L77,57.4L77,57.4z M90.1,72.7l-12.7-2.2l6.3-4.9l12.7,2.2L90.1,72.7z"/>
	<path class="st6" d="M90,72.4l-12.5-2.2l6.3-4.9l12.4,2.2L90,72.4z"/>
	<path class="st3" d="M77.5,70.3l6.3-4.9l12.4,2.2L90,72.4L77.5,70.3z M90.2,72.7L90.2,72.7l6.2-4.9h0.1L90.2,72.7z"/>
	<path class="st2" d="M90.2,72.6l6.3-4.9v0.1L90.2,72.6L90.2,72.6z"/>
	<path class="st1" d="M89.7,59.8L90,72.4l-12.5-2.2l-0.3-12.6L89.7,59.8z"/>
	<path class="st6" d="M77.3,57.7l6.3-4.9L96,55l-6.3,4.8L77.3,57.7z"/>
	<path class="st3" d="M89.7,59.8l-12.4-2.2l6.3-4.9L96,55L89.7,59.8z"/>
	<path class="st2" d="M90,72.4l-0.3-12.6L96,55l0.3,12.6L90,72.4z"/>
	<path class="st5" d="M89.7,59.8L96,55l0.3,12.6L90,72.4L89.7,59.8z"/>
	<path class="st3" d="M77.2,57.4l6.3-4.9l12.7,2.2l-6.3,4.9L77.2,57.4z"/>
	<path class="st2" d="M90,59.8l6.3-4.9l0.3,12.8l-6.3,4.9L90,59.8z"/>
	<path class="st3" d="M89.8,59.6l6.3-4.9h0.1L90,59.6H89.8z"/>
	<path class="st2" d="M90,59.6l6.3-4.9v0.1l-6.3,5V59.6z"/>
	<path class="st4" d="M89.8,59.6L89.8,59.6L89.8,59.6l0.4,13v0.1h-0.1l-12.7-2.2h-0.1v-0.1L77,57.5v-0.1h0.1L89.8,59.6L89.8,59.6z
		 M90,72.4l-0.3-12.6l-12.4-2.2l0.3,12.6L90,72.4"/>
</g>
<g class="st0">
	<path class="st1" d="M81.7,38.2L82,50.8l-12.4-2.2L69.3,36L81.7,38.2z"/>
	<path class="st2" d="M63,53.7L63,53.7l6.3-5v0.1L63,53.7z"/>
	<path class="st3" d="M63.1,53.7L63.1,53.7l6.2-4.9h0.1L63.1,53.7z"/>
	<path class="st2" d="M63,53.5l-0.3-12.8l6.3-4.9l0.3,12.8L63,53.5z"/>
	<path class="st2" d="M63,40.9l6.3-4.9l0.3,12.6l-6.3,4.9L63,40.9z"/>
	<path class="st5" d="M63.2,53.5L63,40.9l6.3-4.9l0.3,12.6L63.2,53.5z"/>
	<path class="st4" d="M82.2,51l-0.3-12.9V38h-0.1l-12.7-2.3H69v0.5l0.3-0.2l12.4,2.2L82,50.8l-12.4-2.2l-0.2,0.2l0,0h0.1L82.2,51
		L82.2,51L82.2,51z"/>
	<path class="st2" d="M62.7,40.7L62.7,40.7l6.3-5v0.1L62.7,40.7z"/>
	<path class="st3" d="M62.7,40.6l6.3-4.9h0.1L62.7,40.6L62.7,40.6z M75.8,55.9l-12.7-2.2l6.3-4.9L82.1,51L75.8,55.9z"/>
	<path class="st3" d="M63.2,53.5l6.3-4.9l12.4,2.2l-6.3,4.9L63.2,53.5z"/>
	<path class="st6" d="M75.7,55.6l-12.4-2.2l6.3-4.9L82,50.7L75.7,55.6z"/>
	<path class="st3" d="M75.9,56L75.9,56l6.2-4.9h0.1L75.9,56z"/>
	<path class="st2" d="M75.9,55.8l6.3-4.8v0.1L75.9,56V55.8z"/>
	<path class="st3" d="M75.4,43L63,40.9l6.3-4.9l12.4,2.2L75.4,43z"/>
	<path class="st2" d="M75.7,55.6L75.4,43l6.3-4.9L82,50.7L75.7,55.6z"/>
	<path class="st6" d="M63,40.9l6.3-4.9l12.4,2.2L75.4,43L63,40.9z"/>
	<path class="st5" d="M75.4,43l6.3-4.9L82,50.7l-6.3,4.9L75.4,43z"/>
	<path class="st4" d="M75.5,42.8L75.5,42.8l0.1,0.2l0.3,12.8V56h-0.1l-12.7-2.3H63v-0.1l-0.3-12.8v-0.1h0.1L75.5,42.8z M75.7,55.6
		L75.4,43L63,40.9l0.3,12.6L75.7,55.6"/>
	<path class="st1" d="M75.4,43l0.3,12.6l-12.4-2.2L63,40.9L75.4,43z"/>
	<path class="st3" d="M62.9,40.6l6.3-4.9L81.8,38l-6.3,4.9L62.9,40.6z"/>
	<path class="st2" d="M75.7,43l6.3-4.9L82.2,51l-6.3,4.9L75.7,43z"/>
	<path class="st3" d="M75.5,42.8l6.3-4.8h0.1l-6.3,4.9L75.5,42.8z"/>
	<path class="st2" d="M75.7,42.8L82,38v0.1L75.7,43V42.8z"/>
</g>
<g class="st0">
	<path class="st1" d="M124.2,45.9l0.3,12.6l-12.4-2.2l-0.3-12.6L124.2,45.9z"/>
	<path class="st2" d="M105.5,61.4L105.5,61.4l6.3-5v0.1L105.5,61.4z"/>
	<path class="st3" d="M105.7,61.4L105.7,61.4l6.2-4.9h0.1L105.7,61.4z"/>
	<path class="st4" d="M124.3,45.7L124.3,45.7L124.3,45.7l0.4,12.9v0.1h-0.1l-12.7-2.2h-0.1v-0.1l-0.3-12.9v-0.1h0.1
		C111.7,43.4,124.3,45.7,124.3,45.7z M124.5,58.5l-0.3-12.6l-12.4-2.2l0.3,12.6L124.5,58.5"/>
	<path class="st2" d="M105.5,61.3l-0.3-12.9l6.3-4.9l0.3,12.8L105.5,61.3z"/>
	<path class="st2" d="M105.3,48.4L105.3,48.4l6.3-5v0.1L105.3,48.4z M105.5,48.6l6.3-4.9l0.3,12.6l-6.3,4.9L105.5,48.6z"/>
	<path class="st5" d="M105.8,61.2l-0.3-12.6l6.3-4.9l0.3,12.6L105.8,61.2z"/>
	<path class="st3" d="M105.3,48.3l6.3-4.9h0.1L105.3,48.3L105.3,48.3z M118.3,63.7l-12.7-2.2l6.3-4.9l12.7,2.2L118.3,63.7z"/>
	<path class="st6" d="M118.2,63.4l-12.4-2.2l6.3-4.9l12.4,2.2L118.2,63.4z"/>
	<path class="st3" d="M105.8,61.2l6.3-4.9l12.4,2.2l-6.3,4.9L105.8,61.2z M118.4,63.7L118.4,63.7l6.2-4.9h0.1L118.4,63.7z"/>
	<path class="st2" d="M118.4,63.5l6.3-4.9v0.1L118.4,63.5L118.4,63.5z"/>
	<path class="st6" d="M105.5,48.6l6.3-4.9l12.4,2.2l-6.2,4.9L105.5,48.6z"/>
	<path class="st3" d="M118,50.8l-12.5-2.2l6.3-4.9l12.4,2.2L118,50.8z"/>
	<path class="st2" d="M118.2,63.4L118,50.8l6.3-4.9l0.3,12.6L118.2,63.4z"/>
	<path class="st5" d="M118,50.8l6.3-4.9l0.3,12.6l-6.3,4.9L118,50.8z"/>
	<path class="st4" d="M118.1,50.5L118.1,50.5L118.1,50.5l0.4,12.9v0.1h-0.1l-12.7-2.2h-0.1v-0.1l-0.3-12.9v-0.1h0.1L118.1,50.5
		L118.1,50.5z M118.2,63.4L118,50.8l-12.5-2.2l0.3,12.6L118.2,63.4"/>
	<path class="st1" d="M118,50.8l0.3,12.6l-12.4-2.2l-0.3-12.6L118,50.8z"/>
	<path class="st3" d="M105.4,48.3l6.3-4.9l12.7,2.2l-6.3,4.9L105.4,48.3z"/>
	<path class="st2" d="M118.2,50.7l6.3-4.9l0.3,12.9l-6.3,4.9L118.2,50.7z"/>
	<path class="st3" d="M118.1,50.5l6.3-4.9h0.1L118.1,50.5L118.1,50.5z"/>
	<path class="st2" d="M118.2,50.6l6.3-4.9v0.1L118.2,50.6L118.2,50.6z"/>
</g>
<g class="st0">
	<path class="st1" d="M110,43.4l0.3,12.6l-12.4-2.2l-0.3-12.6L110,43.4z"/>
	<path class="st2" d="M91.3,58.9L91.3,58.9l6.3-5V54L91.3,58.9z"/>
	<path class="st3" d="M91.4,58.9L91.4,58.9l6.2-4.9h0.1L91.4,58.9z"/>
	<path class="st4" d="M110.1,43.2L110.1,43.2L110.1,43.2l0.4,12.9v0.1h-0.1L97.7,54h-0.1v-0.1L97.3,41v-0.1h0.1L110.1,43.2
		L110.1,43.2z M110.2,56L110,43.4l-12.4-2.2l0.3,12.6L110.2,56"/>
	<path class="st2" d="M91.3,58.7L91,45.9l6.3-4.9l0.3,12.8L91.3,58.7z M91,45.9L91,45.9l6.3-5V41L91,45.9z"/>
	<path class="st5" d="M91.6,58.7l-0.3-12.6l6.3-4.9l0.3,12.6L91.6,58.7z"/>
	<path class="st2" d="M91.3,46.1l6.3-4.9l0.3,12.6l-6.3,4.9L91.3,46.1z"/>
	<path class="st3" d="M91.1,45.8l6.3-4.9h0.1L91.1,45.8L91.1,45.8z M104.1,61.1l-12.7-2.2l6.3-4.9l12.7,2.2L104.1,61.1z"/>
	<path class="st3" d="M91.6,58.7l6.3-4.9l12.4,2.2l-6.2,4.8L91.6,58.7z"/>
	<path class="st6" d="M104,60.8l-12.4-2.2l6.3-4.9l12.4,2.2L104,60.8z"/>
	<path class="st3" d="M104.2,61.2L104.2,61.2l6.2-4.9h0.1L104.2,61.2z"/>
	<path class="st2" d="M104.2,61l6.3-4.9v0.1L104.2,61L104.2,61z"/>
	<path class="st1" d="M103.7,48.3l0.3,12.6l-12.4-2.2l-0.3-12.6L103.7,48.3z"/>
	<path class="st3" d="M103.7,48.3l-12.4-2.2l6.3-4.9l12.4,2.2L103.7,48.3z"/>
	<path class="st6" d="M91.3,46.1l6.3-4.9l12.4,2.2l-6.3,4.9L91.3,46.1z"/>
	<path class="st2" d="M104,60.8l-0.3-12.6l6.3-4.9l0.3,12.6L104,60.8z"/>
	<path class="st5" d="M103.7,48.3l6.3-4.9l0.3,12.6l-6.3,4.9L103.7,48.3z"/>
	<path class="st3" d="M91.2,45.8l6.3-4.9l12.7,2.2l-6.3,4.8L91.2,45.8z"/>
	<path class="st2" d="M104,48.2l6.3-4.9l0.3,12.8l-6.3,4.8L104,48.2z"/>
	<path class="st3" d="M103.8,48l6.3-4.9h0.1L104,48H103.8z"/>
	<path class="st2" d="M104,48l6.3-4.9v0.1L104,48L104,48z"/>
	<path class="st4" d="M103.8,48L103.8,48L103.8,48l0.4,13v0.1h-0.1l-12.7-2.2h-0.1v-0.1L91,45.9v-0.1h0.1L103.8,48z M104,60.8
		l-0.3-12.6L91.3,46l0.3,12.6L104,60.8"/>
</g>
<g class="st0">
	<path class="st1" d="M95.7,40.8L96,53.4l-12.5-2.2l-0.3-12.6L95.7,40.8z"/>
	<path class="st2" d="M77,56.3L77,56.3l6.3-5v0.1L77,56.3z"/>
	<path class="st3" d="M77.1,56.3L77.1,56.3l6.2-4.9h0.1L77.1,56.3z"/>
	<path class="st2" d="M77,56.1l-0.3-12.8l6.3-4.9l0.3,12.8L77,56.1z"/>
	<path class="st2" d="M77,43.5l6.3-4.9l0.3,12.6l-6.3,4.9L77,43.5z"/>
	<path class="st3" d="M89.8,58.5l-12.7-2.2l6.3-4.9l12.7,2.2L89.8,58.5z"/>
	<path class="st3" d="M77.3,56.1l6.3-4.9L96,53.4l-6.3,4.9L77.3,56.1z"/>
	<path class="st6" d="M89.7,58.3l-12.4-2.2l6.3-4.9L96,53.4L89.7,58.3z"/>
	<path class="st4" d="M96.2,53.5l-0.3-12.8v-0.1h-0.1l-12.7-2.3H83v0.5l0.3-0.2l12.4,2.2L96,53.4l-0.3,0.2l0.4,0.1h0.1V53.5z"/>
	<path class="st2" d="M76.8,43.3L76.8,43.3l6.2-5v0.1L76.8,43.3z"/>
	<path class="st5" d="M77.3,56.1L77,43.5l6.3-4.9l0.3,12.6L77.3,56.1z"/>
	<path class="st3" d="M76.8,43.2l6.3-4.9h0.1L76.8,43.2L76.8,43.2z M89.9,58.5L89.9,58.5l6.2-4.9h0.1L89.9,58.5z"/>
	<path class="st2" d="M89.9,58.4l6.3-4.9v0.1L89.9,58.4L89.9,58.4z"/>
	<path class="st1" d="M89.4,45.7l0.3,12.6l-12.4-2.2L77,43.5L89.4,45.7z"/>
	<path class="st3" d="M89.4,45.7L77,43.5l6.3-4.9l12.4,2.2L89.4,45.7z"/>
	<path class="st6" d="M77,43.5l6.3-4.9l12.4,2.2l-6.3,4.9L77,43.5z"/>
	<path class="st2" d="M89.7,58.3l-0.3-12.6l6.3-4.9L96,53.4L89.7,58.3z"/>
	<path class="st5" d="M89.4,45.7l6.3-4.9L96,53.4l-6.3,4.9L89.4,45.7z"/>
	<path class="st3" d="M76.9,43.2l6.3-4.9l12.7,2.2l-6.3,4.9L76.9,43.2z"/>
	<path class="st2" d="M89.7,45.6l6.3-4.9l0.3,12.9L90,58.5L89.7,45.6z"/>
	<path class="st3" d="M89.5,45.4l6.3-4.9h0.1L89.5,45.4L89.5,45.4z"/>
	<path class="st2" d="M89.7,45.4l6.3-4.9v0.1L89.7,45.4L89.7,45.4z"/>
	<path class="st4" d="M89.5,45.4L89.5,45.4L89.5,45.4l0.4,13v0.1h-0.1l-12.7-2.2H77v-0.1l-0.3-12.9v-0.1h0.1
		C76.9,43.2,89.5,45.4,89.5,45.4z M89.7,58.3l-0.3-12.6L77,43.5l0.3,12.6L89.7,58.3"/>
</g>
<g class="st0">
	<path class="st1" d="M81.6,24l0.3,12.6l-12.4-2.2l-0.3-12.6L81.6,24z"/>
	<path class="st2" d="M62.9,39.4L62.9,39.4l6.3-5v0.1L62.9,39.4z"/>
	<path class="st3" d="M63,39.5L63,39.5l6.2-4.9h0.1L63,39.5z"/>
	<path class="st4" d="M81.7,23.7L81.7,23.7l0.1,0.1l0.3,12.9v0.1H82l-12.6-2.2h-0.1v-0.1L69,21.7v-0.1l0,0
		C69,21.5,81.7,23.7,81.7,23.7z M81.8,36.5L81.6,24l-12.4-2.2l0.3,12.6L81.8,36.5"/>
	<path class="st2" d="M62.9,39.3l-0.3-12.9l6.3-4.9l0.3,12.9L62.9,39.3z"/>
	<path class="st2" d="M62.6,26.5v-0.1l6.3-4.9v0.1L62.6,26.5z"/>
	<path class="st5" d="M63.1,39.2l-0.3-12.6l6.3-4.9l0.3,12.6L63.1,39.2z"/>
	<path class="st2" d="M62.9,26.6l6.3-4.9l0.3,12.6l-6.3,4.9L62.9,26.6z"/>
	<path class="st3" d="M62.6,26.3l6.3-4.9H69l-6.3,4.9H62.6z M75.7,41.7L63,39.5l6.3-4.9L82,36.8L75.7,41.7z"/>
	<path class="st3" d="M63.1,39.2l6.3-4.9l12.4,2.2l-6.3,4.9L63.1,39.2z"/>
	<path class="st6" d="M75.5,41.4l-12.4-2.2l6.3-4.9l12.4,2.2L75.5,41.4z"/>
	<path class="st3" d="M75.8,41.7L75.8,41.7l6.2-4.9h0.1L75.8,41.7z"/>
	<path class="st2" d="M75.8,41.6l6.3-4.9v0.1L75.8,41.6L75.8,41.6z"/>
	<path class="st3" d="M75.3,28.8l-12.4-2.2l6.3-4.9L81.6,24L75.3,28.8z"/>
	<path class="st6" d="M62.9,26.6l6.3-4.9L81.6,24l-6.3,4.9L62.9,26.6z"/>
	<path class="st2" d="M75.5,41.4l-0.3-12.6l6.3-4.8l0.3,12.6L75.5,41.4z"/>
	<path class="st5" d="M75.3,28.8l6.3-4.8l0.3,12.6l-6.3,4.8L75.3,28.8z"/>
	<path class="st4" d="M75.4,28.6L75.4,28.6l0.1,0.1l0.3,12.8v0.1h-0.1L63,39.5h-0.1v-0.2l-0.3-12.9v-0.1h0.1L75.4,28.6z M75.5,41.4
		l-0.3-12.6l-12.4-2.2l0.3,12.6L75.5,41.4"/>
	<path class="st1" d="M75.3,28.8l-12.4-2.2l0.3,12.6l12.4,2.2L75.3,28.8z"/>
	<path class="st3" d="M62.7,26.3l6.3-4.9l12.7,2.2l-6.3,4.9L62.7,26.3z"/>
	<path class="st2" d="M75.5,28.7l6.3-4.9l0.3,12.8l-6.3,4.9L75.5,28.7z"/>
	<path class="st3" d="M75.4,28.6l6.3-4.9h0.1L75.4,28.6L75.4,28.6z"/>
	<path class="st2" d="M75.5,28.6l6.3-4.9v0.1l-6.3,4.9V28.6z"/>
</g>
<g class="st0">
	<path class="st1" d="M124.1,31.7l0.3,12.6L112,42.1l-0.3-12.6L124.1,31.7z"/>
	<path class="st2" d="M105.4,47.2V47l6.3-4.9v0.1L105.4,47.2z"/>
	<path class="st3" d="M105.6,47.2L105.6,47.2l6.2-4.9h0.1L105.6,47.2z"/>
	<path class="st4" d="M124.2,31.4L124.2,31.4l0.1,0.1l0.3,12.8v0.1h-0.1l-12.7-2.2h-0.1v-0.1l-0.3-12.9v-0.1h0.1L124.2,31.4z
		 M124.3,44.3L124,31.7l-12.4-2.2l0.3,12.6L124.3,44.3"/>
	<path class="st2" d="M105.4,47l-0.3-12.8l6.3-4.9l0.3,12.8L105.4,47z"/>
	<path class="st2" d="M105.2,34.2V34l6.3-4.9v0.1L105.2,34.2z M105.4,34.4l6.3-4.9l0.3,12.6l-6.3,4.9L105.4,34.4z"/>
	<path class="st5" d="M105.7,47l-0.3-12.6l6.3-4.9l0.3,12.6L105.7,47z"/>
	<path class="st3" d="M105.2,34l6.3-4.9h0.1L105.2,34L105.2,34z M118.2,49.4l-12.7-2.2l6.3-4.9l12.7,2.2L118.2,49.4z"/>
	<path class="st6" d="M118.1,49.1L105.7,47l6.3-4.9l12.4,2.2L118.1,49.1z"/>
	<path class="st3" d="M105.7,47l6.3-4.9l12.4,2.2l-6.3,4.9L105.7,47z M118.3,49.5L118.3,49.5l6.2-4.9h0.1L118.3,49.5z"/>
	<path class="st2" d="M118.3,49.3l6.3-4.9v0.1L118.3,49.3L118.3,49.3z"/>
	<path class="st3" d="M117.8,36.5l-12.4-2.2l6.3-4.9l12.4,2.2L117.8,36.5z"/>
	<path class="st2" d="M118.1,49.1l-0.3-12.6l6.3-4.9l0.3,12.6L118.1,49.1z"/>
	<path class="st6" d="M105.4,34.4l6.3-4.9l12.4,2.2l-6.3,4.9L105.4,34.4z"/>
	<path class="st1" d="M117.8,36.5l0.3,12.6L105.7,47l-0.3-12.6L117.8,36.5z"/>
	<path class="st5" d="M117.8,36.5l6.3-4.9l0.3,12.6l-6.3,4.9L117.8,36.5z"/>
	<path class="st3" d="M105.3,34.1l6.3-4.9l12.7,2.2l-6.2,4.9L105.3,34.1z"/>
	<path class="st2" d="M118.1,36.5l6.3-4.9l0.3,12.8l-6.3,4.9L118.1,36.5z"/>
	<path class="st3" d="M118,36.3l6.3-4.9h0.1L118,36.3L118,36.3z"/>
	<path class="st2" d="M118.1,36.3l6.3-4.9v0.1l-6.3,4.9V36.3z"/>
	<path class="st4" d="M118,36.3L118,36.3L118,36.3l0.4,12.9v0.1h-0.1l-12.7-2.2h-0.1V47l-0.3-12.8V34h0.1L118,36.3z M118.1,49.1
		l-0.3-12.6l-12.4-2.2l0.2,12.6L118.1,49.1"/>
</g>
<g class="st0">
	<path class="st4" d="M110,28.9L110,28.9l0.1,0.1l0.3,12.9V42h-0.1l-12.7-2.2h-0.1v-0.1l-0.3-12.9v-0.1h0.1L110,28.9z M110.1,41.7
		l-0.3-12.6L97.5,27l0.3,12.6L110.1,41.7"/>
	<path class="st1" d="M109.9,29.1l0.3,12.6l-12.4-2.2L97.5,27L109.9,29.1z"/>
	<path class="st2" d="M91.2,44.6L91.2,44.6l6.3-5v0.1L91.2,44.6z"/>
	<path class="st3" d="M91.3,44.7L91.3,44.7l6.2-4.9h0.1L91.3,44.7z"/>
	<path class="st2" d="M91.2,44.5l-0.3-12.9l6.3-4.9l0.3,12.9L91.2,44.5z"/>
	<path class="st2" d="M90.9,31.6v-0.1l6.3-4.9v0.1L90.9,31.6z M91.2,31.8l6.3-4.8l0.3,12.6l-6.3,4.9L91.2,31.8z"/>
	<path class="st5" d="M91.4,44.4l-0.3-12.6l6.3-4.8l0.3,12.6L91.4,44.4z"/>
	<path class="st3" d="M90.9,31.5l6.3-4.9h0.1L90.9,31.5L90.9,31.5z M103.9,46.9l-12.6-2.2l6.3-4.9l12.7,2.2L103.9,46.9z"/>
	<path class="st3" d="M91.4,44.4l6.3-4.9l12.4,2.2l-6.3,4.9L91.4,44.4z"/>
	<path class="st6" d="M103.9,46.6l-12.4-2.2l6.3-4.9l12.4,2.2L103.9,46.6z"/>
	<path class="st3" d="M104.1,46.9L104.1,46.9l6.2-4.9h0.1L104.1,46.9z"/>
	<path class="st2" d="M104.1,46.8l6.3-4.9V42L104.1,46.8L104.1,46.8z"/>
	<path class="st1" d="M103.6,34l0.3,12.6l-12.4-2.2l-0.3-12.6L103.6,34z"/>
	<path class="st3" d="M103.6,34l-12.4-2.2l6.3-4.8l12.4,2.2L103.6,34z"/>
	<path class="st6" d="M91.2,31.8l6.3-4.8l12.4,2.2l-6.3,4.8L91.2,31.8z"/>
	<path class="st2" d="M103.9,46.6L103.6,34l6.3-4.9l0.3,12.6L103.9,46.6z"/>
	<path class="st5" d="M103.6,34l6.3-4.9l0.3,12.6l-6.3,4.9L103.6,34z"/>
	<path class="st3" d="M91.1,31.5l6.3-4.9l12.7,2.2l-6.3,4.9L91.1,31.5z"/>
	<path class="st2" d="M103.9,33.9l6.3-4.9l0.3,12.8l-6.3,4.9L103.9,33.9z"/>
	<path class="st3" d="M103.7,33.8l6.3-4.9h0.1L103.7,33.8L103.7,33.8z"/>
	<path class="st2" d="M103.8,33.8l6.3-4.9V29l-6.3,4.9V33.8z"/>
	<path class="st4" d="M103.7,33.8L103.7,33.8L103.7,33.8l0.4,13v0.1H104l-12.6-2.2h-0.1v-0.1L91,31.7v-0.1h0.1L103.7,33.8z
		 M103.9,46.6L103.6,34l-12.4-2.2l0.3,12.6L103.9,46.6"/>
</g>
<g class="st0">
	<path class="st1" d="M95.6,26.5l0.3,12.6L83.4,37l-0.3-12.6L95.6,26.5z"/>
	<path class="st2" d="M76.9,42L76.9,42l6.3-5v0.1L76.9,42z"/>
	<path class="st3" d="M77,42L77,42l6.2-4.9h0.1L77,42z M89.7,44.3L77,42l6.3-4.9L96,39.4L89.7,44.3z"/>
	<path class="st3" d="M77.2,41.8l6.3-4.8l12.4,2.2L89.6,44L77.2,41.8z"/>
	<path class="st6" d="M89.6,44l-12.4-2.2l6.3-4.8l12.4,2.2L89.6,44z"/>
	<path class="st4" d="M96.1,39.3l-0.3-12.9v-0.1h-0.1L83,24.1h-0.1v0.1L83.2,37v0.1l0.3-0.2l-0.3-12.6l12.4,2.2l0.3,12.6l-0.3,0.2
		H96.1L96.1,39.3L96.1,39.3z"/>
	<path class="st2" d="M76.9,41.9L76.6,29l6.3-4.9L83.2,37L76.9,41.9z"/>
	<path class="st2" d="M76.6,29v-0.1l6.3-4.9v0.1L76.6,29z M76.9,29.2l6.3-4.9L83.4,37l-6.3,4.9L76.9,29.2z"/>
	<path class="st5" d="M77.2,41.8l-0.3-12.6l6.3-4.9L83.4,37L77.2,41.8z"/>
	<path class="st3" d="M76.6,28.9l6.3-4.9H83L76.6,28.9L76.6,28.9z M89.8,44.3L89.8,44.3l6.2-4.9h0.1L89.8,44.3z"/>
	<path class="st2" d="M89.8,44.2l6.3-4.9v0.1L89.8,44.2L89.8,44.2z"/>
	<path class="st1" d="M89.3,31.4L89.6,44l-12.4-2.2l-0.3-12.6L89.3,31.4z"/>
	<path class="st3" d="M89.3,31.4l-12.4-2.2l6.3-4.9l12.4,2.2L89.3,31.4z"/>
	<path class="st6" d="M76.9,29.2l6.3-4.9l12.4,2.2l-6.3,4.9L76.9,29.2z"/>
	<path class="st2" d="M89.6,44l-0.3-12.6l6.3-4.9l0.3,12.6L89.6,44z"/>
	<path class="st5" d="M89.3,31.4l6.3-4.9l0.3,12.6L89.6,44L89.3,31.4z"/>
	<path class="st3" d="M76.8,28.9L83,24l12.7,2.2l-6.3,4.9L76.8,28.9z"/>
	<path class="st2" d="M89.6,31.3l6.3-4.9l0.3,12.8l-6.3,4.9L89.6,31.3z"/>
	<path class="st3" d="M89.4,31.2l6.3-4.9h0.1L89.4,31.2L89.4,31.2z"/>
	<path class="st2" d="M89.6,31.2l6.3-4.9v0.1l-6.3,4.9V31.2z"/>
	<path class="st4" d="M89.4,31.2L89.4,31.2l0.1,0.1l0.3,12.9v0.1h-0.1L77,42h-0.1v-0.1L76.6,29v-0.1h0.1L89.4,31.2L89.4,31.2z
		 M89.6,44l-0.3-12.6l-12.4-2.2l0.3,12.6L89.6,44"/>
</g>
<g class="st0">
	<path class="st1" d="M81.3,9.8l0.3,12.6l-12.4-2.2L68.9,7.6L81.3,9.8z"/>
	<path class="st2" d="M62.6,25.2v-0.1l6.3-4.9v0.1L62.6,25.2z"/>
	<path class="st3" d="M62.7,25.3L62.7,25.3l6.2-4.9H69L62.7,25.3z"/>
	<path class="st2" d="M62.6,25.1l-0.3-12.9l6.3-4.9l0.3,12.9L62.6,25.1z"/>
	<path class="st2" d="M62.6,12.4l6.3-4.9l0.3,12.6L62.8,25L62.6,12.4z"/>
	<path class="st5" d="M62.8,25l-0.3-12.6l6.3-4.9l0.3,12.6L62.8,25z"/>
	<path class="st3" d="M75.4,27.5l-12.7-2.2l6.3-4.9l12.7,2.2L75.4,27.5z"/>
	<path class="st3" d="M62.8,25l6.3-4.9l12.4,2.2l-6.3,4.9L62.8,25z"/>
	<path class="st6" d="M75.3,27.2L62.8,25l6.3-4.9l12.4,2.2L75.3,27.2z"/>
	<path class="st4" d="M81.8,22.5L81.5,9.7V9.5h-0.1L68.7,7.3h-0.1v0.5l0.2-0.2l12.4,2.2l0.3,12.6l-0.3,0.2l0.4,0.1h0.1L81.8,22.5z"
		/>
	<path class="st2" d="M62.3,12.3v-0.1l6.3-4.9v0.1L62.3,12.3z"/>
	<path class="st3" d="M62.3,12.1l6.3-4.9h0.1L62.3,12.1L62.3,12.1z M75.5,27.5L75.5,27.5l6.2-4.9h0.1L75.5,27.5z"/>
	<path class="st2" d="M75.5,27.4l6.3-4.9v0.1l-6.3,4.9V27.4z"/>
	<path class="st1" d="M75,14.6l0.3,12.6L62.8,25l-0.3-12.6L75,14.6z"/>
	<path class="st3" d="M75,14.6l-12.4-2.2l6.3-4.9l12.4,2.2L75,14.6z"/>
	<path class="st6" d="M62.6,12.4l6.3-4.9l12.4,2.2L75,14.6L62.6,12.4z"/>
	<path class="st2" d="M75.3,27.2L75,14.6l6.3-4.9l0.3,12.6L75.3,27.2z"/>
	<path class="st5" d="M75,14.6l6.3-4.9l0.3,12.6l-6.3,4.9L75,14.6z"/>
	<path class="st3" d="M62.5,12.1l6.3-4.9l12.7,2.2l-6.3,4.9L62.5,12.1z"/>
	<path class="st2" d="M75.3,14.5l6.3-4.9l0.3,12.9l-6.3,4.9L75.3,14.5z"/>
	<path class="st3" d="M75.1,14.4l6.3-4.9h0.1L75.1,14.4L75.1,14.4z"/>
	<path class="st2" d="M75.3,14.4l6.3-4.9v0.1l-6.3,4.9V14.4z"/>
	<path class="st4" d="M75.1,14.4L75.1,14.4l0.1,0.1l0.3,12.9v0.1h-0.1l-12.7-2.2h-0.1v-0.1l-0.3-12.9v-0.1h0.1L75.1,14.4L75.1,14.4z
		 M75.3,27.2L75,14.6l-12.4-2.2L62.8,25L75.3,27.2"/>
</g>
<g class="st0">
	<path class="st4" d="M123.9,17.3L123.9,17.3l0.1,0.1l0.3,12.9v0.1h-0.1l-12.7-2.2h-0.1V28l-0.3-12.9V15h0.1L123.9,17.3L123.9,17.3z
		 M124.1,30.1l-0.3-12.6l-12.4-2.2l0.3,12.6L124.1,30.1"/>
	<path class="st1" d="M123.8,17.5l0.3,12.6l-12.4-2.2l-0.3-12.6L123.8,17.5z"/>
	<path class="st2" d="M105.2,33L105.2,33l6.3-5v0.1L105.2,33z"/>
	<path class="st3" d="M105.3,33L105.3,33l6.2-4.9h0.1L105.3,33z"/>
	<path class="st2" d="M105.1,32.8L104.9,20l6.3-4.9l0.3,12.9L105.1,32.8z M104.9,20v-0.1l6.3-4.9v0.1L104.9,20z"/>
	<path class="st5" d="M105.4,32.8l-0.3-12.6l6.3-4.9l0.3,12.6L105.4,32.8z"/>
	<path class="st2" d="M105.1,20.2l6.3-4.9l0.3,12.6l-6.3,4.9L105.1,20.2z"/>
	<path class="st3" d="M104.9,19.9l6.3-4.9h0.1L104.9,19.9L104.9,19.9z M117.9,35.2L105.3,33l6.3-4.9l12.7,2.2L117.9,35.2z"/>
	<path class="st6" d="M117.8,35l-12.4-2.2l6.3-4.9l12.4,2.2L117.8,35z"/>
	<path class="st3" d="M105.4,32.8l6.3-4.9l12.4,2.2l-6.3,4.9L105.4,32.8z M118.1,35.3L118.1,35.3l6.2-4.9h0.1L118.1,35.3z"/>
	<path class="st2" d="M118.1,35.1l6.3-4.9v0.1l-6.3,4.9V35.1z"/>
	<path class="st1" d="M117.6,22.4l0.3,12.6l-12.4-2.2l-0.3-12.6L117.6,22.4z"/>
	<path class="st6" d="M105.1,20.2l6.3-4.9l12.4,2.2l-6.3,4.9L105.1,20.2z"/>
	<path class="st3" d="M117.6,22.4l-12.4-2.2l6.3-4.9l12.4,2.2L117.6,22.4z"/>
	<path class="st2" d="M117.8,35l-0.3-12.6l6.3-4.9l0.3,12.6L117.8,35z"/>
	<path class="st5" d="M117.6,22.4l6.3-4.9l0.3,12.6l-6.3,4.9L117.6,22.4z"/>
	<path class="st3" d="M105,19.9l6.3-4.9l12.7,2.2l-6.3,4.9L105,19.9z"/>
	<path class="st2" d="M117.8,22.3l6.3-4.9l0.3,12.9l-6.3,4.9L117.8,22.3z"/>
	<path class="st3" d="M117.7,22.1l6.3-4.9h0.1L117.7,22.1L117.7,22.1z"/>
	<path class="st2" d="M117.8,22.1l6.3-4.9v0.1l-6.3,4.9V22.1z"/>
	<path class="st4" d="M117.7,22.1L117.7,22.1l0.1,0.1l0.3,12.8v0.1H118L105.3,33h-0.1v-0.1L104.9,20v-0.1h0.1L117.7,22.1L117.7,22.1
		z M117.8,35l-0.3-12.6l-12.4-2.2l0.3,12.6L117.8,35"/>
</g>
<g class="st0">
	<path class="st1" d="M109.6,15l0.3,12.6l-12.4-2.2l-0.3-12.6L109.6,15z"/>
	<path class="st2" d="M90.9,30.4v-0.1l6.3-4.9v0.1L90.9,30.4z"/>
	<path class="st3" d="M91.1,30.5L91.1,30.5l6.2-4.9h0.1L91.1,30.5z"/>
	<path class="st4" d="M109.7,14.7L109.7,14.7l0.1,0.1l0.3,12.8v0.1H110l-12.7-2.2h-0.1v-0.1l-0.3-12.9v-0.1H97L109.7,14.7
		L109.7,14.7z M109.8,27.5L109.6,15l-12.4-2.2l0.3,12.6L109.8,27.5"/>
	<path class="st2" d="M90.9,30.3l-0.3-12.9l6.3-4.9l0.3,12.9L90.9,30.3z"/>
	<path class="st2" d="M90.7,17.5v-0.1l6.3-4.9v0.1L90.7,17.5z M90.9,17.6l6.3-4.9l0.3,12.6l-6.3,4.9L90.9,17.6z"/>
	<path class="st5" d="M91.2,30.2l-0.3-12.6l6.3-4.9l0.3,12.6L91.2,30.2z"/>
	<path class="st3" d="M90.7,17.3l6.3-4.9h0.1L90.7,17.3L90.7,17.3z M103.7,32.7l-12.6-2.2l6.3-4.9l12.7,2.2L103.7,32.7z"/>
	<path class="st6" d="M103.6,32.4l-12.4-2.2l6.3-4.9l12.4,2.2L103.6,32.4z"/>
	<path class="st3" d="M91.2,30.2l6.3-4.9l12.4,2.2l-6.3,4.9L91.2,30.2z M103.8,32.7L103.8,32.7l6.2-4.9h0.1L103.8,32.7z"/>
	<path class="st2" d="M103.8,32.6l6.3-4.9v0.1l-6.3,4.9V32.6z M103.6,32.4l-0.3-12.6l6.3-4.8l0.3,12.6L103.6,32.4z"/>
	<path class="st6" d="M90.9,17.6l6.3-4.9l12.4,2.2l-6.3,4.9L90.9,17.6z"/>
	<path class="st3" d="M103.3,19.8l-12.4-2.2l6.3-4.9l12.4,2.2L103.3,19.8z"/>
	<path class="st1" d="M103.3,19.8l0.3,12.6l-12.4-2.2l-0.3-12.6L103.3,19.8z"/>
	<path class="st5" d="M103.3,19.8l6.3-4.8l0.3,12.6l-6.3,4.9L103.3,19.8z"/>
	<path class="st3" d="M90.8,17.4l6.3-4.9l12.7,2.2l-6.3,4.9L90.8,17.4z"/>
	<path class="st2" d="M103.6,19.7l6.3-4.9l0.3,12.8l-6.3,4.9L103.6,19.7z"/>
	<path class="st3" d="M103.4,19.6l6.3-4.9h0.1L103.4,19.6L103.4,19.6z"/>
	<path class="st2" d="M103.6,19.6l6.3-4.9v0.1l-6.3,4.9V19.6z"/>
	<path class="st4" d="M103.4,19.6L103.4,19.6l0.1,0.1l0.3,12.9v0.1h-0.1L91,30.5h-0.1v-0.1l-0.3-12.8v-0.1h0.1L103.4,19.6z
		 M103.6,32.4l-0.3-12.6l-12.4-2.2l0.3,12.6L103.6,32.4"/>
</g>
<g class="st0">
	<path class="st4" d="M95.4,12.1L95.4,12.1l0.1,0.1l0.3,12.9v0.1h-0.1L83,23h-0.1v-0.1L82.6,10V9.9h0.1L95.4,12.1z M95.6,25
		l-0.3-12.6l-12.4-2.2l0.3,12.6L95.6,25"/>
	<path class="st1" d="M95.3,12.4L95.6,25l-12.4-2.2l-0.3-12.6L95.3,12.4z"/>
	<path class="st2" d="M76.6,27.8v-0.1l6.3-4.9V23L76.6,27.8z"/>
	<path class="st3" d="M76.8,27.9L76.8,27.9L83,23l0,0L76.8,27.9z"/>
	<path class="st2" d="M76.6,27.7l-0.3-12.9l6.3-4.9l0.3,12.9L76.6,27.7z"/>
	<path class="st2" d="M76.4,14.9v-0.1l6.3-4.9V10L76.4,14.9z M76.6,15l6.3-4.9l0.3,12.6l-6.3,4.9L76.6,15z"/>
	<path class="st5" d="M76.9,27.6L76.6,15l6.3-4.9l0.3,12.6L76.9,27.6z"/>
	<path class="st3" d="M76.4,14.7l6.3-4.9h0.1L76.4,14.7C76.5,14.7,76.4,14.7,76.4,14.7z M89.4,30.1l-12.6-2.2L83,23l12.7,2.2
		L89.4,30.1z"/>
	<path class="st6" d="M89.3,29.8l-12.4-2.2l6.3-4.9L95.6,25L89.3,29.8z"/>
	<path class="st3" d="M76.9,27.6l6.3-4.9L95.6,25l-6.3,4.9L76.9,27.6z M89.5,30.1L89.5,30.1l6.2-4.9h0.1L89.5,30.1z"/>
	<path class="st2" d="M89.5,30l6.3-4.9v0.1l-6.3,4.9V30z"/>
	<path class="st3" d="M89,17.2L76.6,15l6.3-4.9l12.4,2.2L89,17.2z"/>
	<path class="st6" d="M76.6,15l6.3-4.9l12.4,2.2L89,17.2L76.6,15z"/>
	<path class="st2" d="M89.3,29.8L89,17.2l6.3-4.9L95.6,25L89.3,29.8z"/>
	<path class="st5" d="M89,17.2l6.3-4.9L95.6,25l-6.3,4.9L89,17.2z"/>
	<path class="st4" d="M89.2,17L89.2,17l0.1,0.1L89.5,30v0.1h-0.1l-12.7-2.3h-0.1v-0.1l-0.3-12.9v-0.1h0.1L89.2,17z M89.3,29.8
		L89,17.2L76.6,15l0.3,12.6L89.3,29.8"/>
	<path class="st1" d="M76.6,15l0.3,12.6l12.4,2.2L89,17.2L76.6,15z"/>
	<path class="st3" d="M76.5,14.8l6.3-4.9l12.7,2.2L89.2,17L76.5,14.8z"/>
	<path class="st2" d="M89.3,17.1l6.3-4.9L95.9,25l-6.4,5L89.3,17.1z"/>
	<path class="st3" d="M89.2,17l6.3-4.9h0.1L89.3,17H89.2z"/>
	<path class="st2" d="M89.3,17l6.3-4.9v0.1l-6.3,4.9V17z"/>
</g>
<g class="st0">
	<path class="st4" d="M73.3,59.7L73.3,59.7L73.3,59.7l0.4,13v0.1h-0.1L61,70.5h-0.1v-0.1l-0.3-12.8v-0.1h0.1L73.3,59.7z M73.5,72.5
		l-0.2-12.6l-12.4-2.2l0.3,12.6L73.5,72.5"/>
	<path class="st1" d="M73.2,59.9l0.3,12.6l-12.4-2.2l-0.3-12.6L73.2,59.9z"/>
	<path class="st2" d="M54.5,75.4L54.5,75.4l6.3-5v0.1L54.5,75.4z"/>
	<path class="st3" d="M54.7,75.4L54.7,75.4l6.2-4.9H61L54.7,75.4z"/>
	<path class="st2" d="M54.5,75.3l-0.3-12.8l6.3-4.9l0.3,12.8L54.5,75.3z M54.3,62.4L54.3,62.4l6.3-5v0.1L54.3,62.4z"/>
	<path class="st2" d="M54.5,62.6l6.3-4.9l0.3,12.6l-6.3,4.9L54.5,62.6z"/>
	<path class="st5" d="M54.8,75.2l-0.3-12.6l6.3-4.9l0.3,12.6L54.8,75.2z"/>
	<path class="st3" d="M54.3,62.3l6.3-4.9h0.1L54.3,62.3L54.3,62.3z M67.3,77.6l-12.7-2.2l6.3-4.9l12.7,2.2L67.3,77.6z"/>
	<path class="st3" d="M54.8,75.2l6.3-4.9l12.4,2.2l-6.3,4.9L54.8,75.2z"/>
	<path class="st6" d="M67.2,77.4l-12.4-2.2l6.3-4.9l12.4,2.2L67.2,77.4z"/>
	<path class="st3" d="M67.5,77.7L67.5,77.7l6.2-4.9h0.1L67.5,77.7z"/>
	<path class="st2" d="M67.5,77.5l6.3-4.9v0.1L67.5,77.5L67.5,77.5z"/>
	<path class="st3" d="M67,64.8l-12.5-2.2l6.3-4.9l12.4,2.2L67,64.8z"/>
	<path class="st6" d="M54.5,62.6l6.3-4.9l12.4,2.2L67,64.8L54.5,62.6z"/>
	<path class="st2" d="M67.2,77.4L67,64.8l6.3-4.9l0.3,12.6L67.2,77.4z"/>
	<path class="st5" d="M67,64.8l6.3-4.9l0.3,12.6l-6.3,4.9L67,64.8z"/>
	<path class="st4" d="M67.1,64.5L67.1,64.5L67.1,64.5l0.4,12.9v0.1h-0.1l-12.6-2.2h-0.1v-0.1l-0.3-12.9v-0.1h0.1L67.1,64.5
		L67.1,64.5z M67.2,77.4L67,64.8l-12.5-2.2l0.3,12.6L67.2,77.4"/>
	<path class="st1" d="M67,64.8l0.3,12.6l-12.5-2.2l-0.3-12.6L67,64.8z"/>
	<path class="st3" d="M54.4,62.3l6.3-4.9l12.7,2.2l-6.3,4.9L54.4,62.3z"/>
	<path class="st2" d="M67.2,64.7l6.3-4.9l0.3,12.9l-6.3,4.9L67.2,64.7z"/>
	<path class="st3" d="M67.1,64.5l6.3-4.9h0.1L67.1,64.5L67.1,64.5z"/>
	<path class="st2" d="M67.2,64.6l6.3-4.9v0.1L67.2,64.6L67.2,64.6z"/>
</g>
<g class="st0">
	<path class="st4" d="M115.9,67.4L115.9,67.4L115.9,67.4l0.4,12.9v0.1h-0.1l-12.7-2.2h-0.1v-0.1l-0.3-12.8v-0.1h0.1L115.9,67.4
		L115.9,67.4z M116,80.2l-0.3-12.6l-12.4-2.2l0.3,12.6L116,80.2"/>
	<path class="st1" d="M115.8,67.6l0.3,12.6L103.6,78l-0.3-12.6L115.8,67.6z"/>
	<path class="st2" d="M97.1,83.1L97.1,83.1l6.3-5v0.1L97.1,83.1z"/>
	<path class="st3" d="M97.2,83.1L97.2,83.1l6.2-4.9h0.1L97.2,83.1z"/>
	<path class="st2" d="M97.1,83l-0.3-12.8l6.3-4.9l0.3,12.8L97.1,83z M96.8,70.2V70l6.3-4.9v0.1L96.8,70.2z"/>
	<path class="st2" d="M97.1,70.3l6.3-4.9l0.3,12.6l-6.3,4.9L97.1,70.3z"/>
	<path class="st5" d="M97.3,82.9L97,70.3l6.3-4.9l0.3,12.6L97.3,82.9z"/>
	<path class="st3" d="M96.8,70l6.3-4.9h0.1L97,70H96.8z M109.8,85.4l-12.6-2.2l6.3-4.9l12.7,2.2L109.8,85.4z"/>
	<path class="st3" d="M97.3,82.9l6.3-4.9l12.4,2.2l-6.3,4.9L97.3,82.9z"/>
	<path class="st6" d="M109.8,85.1l-12.4-2.2l6.3-4.9l12.4,2.2L109.8,85.1z"/>
	<path class="st3" d="M110,85.4L110,85.4l6.2-4.9h0.1L110,85.4z"/>
	<path class="st2" d="M110,85.3l6.3-4.9v0.1L110,85.3L110,85.3z"/>
	<path class="st1" d="M109.5,72.5l0.3,12.6l-12.4-2.2l-0.3-12.6L109.5,72.5z"/>
	<path class="st3" d="M109.5,72.5l-12.4-2.2l6.3-4.9l12.4,2.2L109.5,72.5z"/>
	<path class="st6" d="M97.1,70.3l6.3-4.9l12.4,2.2l-6.3,4.9L97.1,70.3z"/>
	<path class="st2" d="M109.8,85.1l-0.3-12.6l6.3-4.9l0.3,12.6L109.8,85.1z"/>
	<path class="st5" d="M109.5,72.5l6.3-4.9l0.3,12.6l-6.3,4.9L109.5,72.5z"/>
	<path class="st3" d="M97,70l6.3-4.9l12.7,2.2l-6.3,4.9L97,70z"/>
	<path class="st2" d="M109.8,72.4l6.3-4.9l0.3,12.8l-6.3,4.9L109.8,72.4z"/>
	<path class="st3" d="M109.6,72.3l6.3-4.9h0.1L109.6,72.3L109.6,72.3z"/>
	<path class="st2" d="M109.8,72.3l6.3-4.9v0.1L109.8,72.3L109.8,72.3z"/>
	<path class="st4" d="M109.6,72.3L109.6,72.3L109.6,72.3l0.4,13v0.1h-0.1l-12.7-2.3h-0.1V83l-0.3-12.8V70H97L109.6,72.3L109.6,72.3z
		 M109.8,85.1l-0.3-12.6l-12.4-2.2l0.3,12.6L109.8,85.1"/>
</g>
<g class="st0">
	<path class="st1" d="M101.6,65.1l0.3,12.6l-12.4-2.2l-0.3-12.6L101.6,65.1z"/>
	<path class="st2" d="M82.9,80.6L82.9,80.6l6.3-5v0.1L82.9,80.6z"/>
	<path class="st3" d="M83,80.6L83,80.6l6.2-4.9h0.1L83,80.6z"/>
	<path class="st4" d="M101.7,64.9L101.7,64.9L101.7,64.9l0.4,12.9V78H102l-12.7-2.3h-0.1v-0.1l-0.3-12.8v-0.1H89L101.7,64.9
		L101.7,64.9z M101.8,77.7l-0.3-12.6l-12.4-2.2l0.3,12.6L101.8,77.7"/>
	<path class="st2" d="M82.9,80.5l-0.3-12.8l6.3-4.9l0.3,12.9L82.9,80.5z M82.6,67.6L82.6,67.6l6.3-5v0.1L82.6,67.6z"/>
	<path class="st2" d="M82.9,67.8l6.3-4.9l0.3,12.6l-6.3,4.9L82.9,67.8z"/>
	<path class="st5" d="M83.1,80.4l-0.3-12.6l6.3-4.9l0.3,12.6L83.1,80.4z"/>
	<path class="st3" d="M82.6,67.5l6.3-4.9H89L82.6,67.5L82.6,67.5z M95.6,82.8L83,80.6l6.3-4.9L102,78L95.6,82.8z"/>
	<path class="st6" d="M95.5,82.6l-12.4-2.2l6.3-4.9l12.4,2.2L95.5,82.6z"/>
	<path class="st3" d="M83.1,80.4l6.3-4.9l12.4,2.2l-6.3,4.9L83.1,80.4z M95.8,82.9L95.8,82.9L102,78h0.1L95.8,82.9z"/>
	<path class="st2" d="M95.8,82.7l6.3-4.9V78l-6.3,4.9V82.7z"/>
	<path class="st1" d="M95.3,70l0.3,12.6l-12.4-2.2l-0.3-12.6L95.3,70z"/>
	<path class="st3" d="M95.3,70l-12.4-2.2l6.3-4.9l12.4,2.2L95.3,70z"/>
	<path class="st6" d="M82.9,67.8l6.3-4.9l12.4,2.2L95.3,70L82.9,67.8z"/>
	<path class="st2" d="M95.5,82.6L95.3,70l6.3-4.9l0.3,12.6L95.5,82.6z"/>
	<path class="st5" d="M95.3,70l6.3-4.9l0.3,12.6l-6.3,4.9L95.3,70z"/>
	<path class="st3" d="M82.7,67.5l6.3-4.9l12.7,2.2l-6.3,4.9L82.7,67.5z"/>
	<path class="st2" d="M95.5,69.9l6.3-4.9l0.3,12.8l-6.3,4.9L95.5,69.9z"/>
	<path class="st3" d="M95.4,69.7l6.3-4.9h0.1L95.4,69.7L95.4,69.7z"/>
	<path class="st2" d="M95.5,69.8l6.3-4.9V65L95.5,69.8L95.5,69.8z"/>
	<path class="st4" d="M95.4,69.7L95.4,69.7L95.4,69.7l0.4,12.9v0.1h-0.1L83,80.6h-0.1v-0.1l-0.3-12.8v-0.1h0.1L95.4,69.7z
		 M95.5,82.6L95.3,70l-12.4-2.2l0.3,12.6L95.5,82.6"/>
</g>
<g class="st0">
	<path class="st4" d="M87.4,62.3L87.4,62.3L87.4,62.3l0.4,12.9v0.1h-0.1L75,73.1h-0.1V73l-0.3-12.8V60h0.1L87.4,62.3L87.4,62.3z
		 M87.5,75.1l-0.3-12.6l-12.4-2.2l0.3,12.6L87.5,75.1"/>
	<path class="st1" d="M87.3,62.5l0.3,12.6l-12.4-2.2l-0.3-12.6L87.3,62.5z"/>
	<path class="st2" d="M68.6,78L68.6,78l6.3-5v0.1L68.6,78z"/>
	<path class="st3" d="M68.7,78L68.7,78l6.2-4.9H75L68.7,78z"/>
	<path class="st2" d="M68.6,77.9L68.3,65l6.3-4.9L74.8,73L68.6,77.9z M68.3,65L68.3,65l6.3-5v0.1L68.3,65z"/>
	<path class="st2" d="M68.6,65.2l6.3-4.9l0.3,12.6l-6.3,4.9L68.6,65.2z"/>
	<path class="st5" d="M68.8,77.8l-0.3-12.6l6.3-4.9l0.3,12.6L68.8,77.8z"/>
	<path class="st3" d="M68.3,64.9l6.3-4.9h0.1L68.3,64.9L68.3,64.9z M81.3,80.2L68.7,78l6.3-4.9l12.7,2.2L81.3,80.2z"/>
	<path class="st3" d="M68.8,77.8l6.3-4.9l12.4,2.2L81.2,80L68.8,77.8z"/>
	<path class="st6" d="M81.2,80l-12.4-2.2l6.3-4.9l12.4,2.2L81.2,80z"/>
	<path class="st3" d="M81.5,80.3L81.5,80.3l6.2-4.9h0.1L81.5,80.3z"/>
	<path class="st2" d="M81.5,80.1l6.3-4.9v0.1L81.5,80.1L81.5,80.1z"/>
	<path class="st3" d="M81,67.4l-12.4-2.2l6.3-4.9l12.4,2.2L81,67.4z"/>
	<path class="st2" d="M81.2,80L81,67.4l6.3-4.9l0.3,12.6L81.2,80z"/>
	<path class="st6" d="M68.6,65.2l6.3-4.9l12.4,2.2L81,67.4L68.6,65.2z"/>
	<path class="st1" d="M81,67.4L81.2,80l-12.4-2.2l-0.3-12.6L81,67.4z"/>
	<path class="st5" d="M81,67.4l6.3-4.9l0.3,12.6L81.2,80L81,67.4z"/>
	<path class="st3" d="M68.4,64.9l6.3-4.9l12.7,2.2l-6.3,4.9L68.4,64.9z"/>
	<path class="st2" d="M81.2,67.3l6.3-4.9l0.3,12.8l-6.3,4.9L81.2,67.3z"/>
	<path class="st3" d="M81.1,67.1l6.3-4.9h0.1L81.1,67.1L81.1,67.1z"/>
	<path class="st2" d="M81.2,67.2l6.3-4.9v0.1L81.2,67.2L81.2,67.2z"/>
	<path class="st4" d="M81.1,67.1L81.1,67.1L81.1,67.1L81.5,80v0.1h-0.1L68.7,78h-0.1v-0.1L68.3,65v-0.1h0.1L81.1,67.1z M81.2,80
		L81,67.4l-12.4-2.2l0.3,12.6L81.2,80"/>
</g>
<g class="st0">
	<path class="st4" d="M73.1,45.5L73.1,45.5L73.1,45.5l0.4,13v0.1h-0.1l-12.7-2.2h-0.1v-0.1l-0.3-12.9v-0.1h0.1L73.1,45.5L73.1,45.5z
		 M73.2,58.3L73,45.7l-12.5-2.2l0.3,12.6L73.2,58.3"/>
	<path class="st1" d="M73,45.7l0.2,12.6l-12.4-2.2l-0.3-12.6L73,45.7z"/>
	<path class="st2" d="M54.3,61.2L54.3,61.2l6.3-5v0.1L54.3,61.2z"/>
	<path class="st3" d="M54.4,61.2L54.4,61.2l6.2-4.9h0.1L54.4,61.2z"/>
	<path class="st2" d="M54.3,61.1L54,48.2l6.3-4.9l0.3,12.8L54.3,61.1z"/>
	<path class="st2" d="M54,48.2L54,48.2l6.3-5v0.1L54,48.2z M54.3,48.4l6.3-4.9l0.3,12.6L54.5,61L54.3,48.4z"/>
	<path class="st5" d="M54.5,61l-0.3-12.6l6.3-4.9l0.3,12.6L54.5,61z"/>
	<path class="st3" d="M54,48.1l6.3-4.9h0.1L54,48.1L54,48.1z M67.1,63.4l-12.7-2.2l6.3-4.9l12.7,2.2L67.1,63.4z"/>
	<path class="st3" d="M54.5,61l6.3-4.9l12.4,2.2l-6.3,4.9L54.5,61z"/>
	<path class="st6" d="M66.9,63.2L54.5,61l6.3-4.9l12.4,2.2L66.9,63.2z"/>
	<path class="st3" d="M67.2,63.5L67.2,63.5l6.2-4.9h0.1L67.2,63.5z"/>
	<path class="st2" d="M67.2,63.3l6.3-4.9v0.1L67.2,63.3L67.2,63.3z"/>
	<path class="st1" d="M66.7,50.6L67,63.2L54.5,61l-0.3-12.6L66.7,50.6z"/>
	<path class="st3" d="M66.7,50.6l-12.4-2.2l6.3-4.9L73,45.7L66.7,50.6z"/>
	<path class="st6" d="M54.3,48.4l6.3-4.9L73,45.7l-6.3,4.9L54.3,48.4z"/>
	<path class="st5" d="M66.7,50.6l6.3-4.9l0.2,12.6l-6.3,4.9L66.7,50.6z"/>
	<path class="st2" d="M66.9,63.2l-0.3-12.6l6.3-4.9l0.2,12.6L66.9,63.2z"/>
	<path class="st3" d="M54.1,48.1l6.3-4.9l12.7,2.2l-6.3,4.9L54.1,48.1z"/>
	<path class="st2" d="M66.9,50.5l6.3-4.9l0.3,12.8l-6.3,4.9L66.9,50.5z"/>
	<path class="st3" d="M66.8,50.3l6.3-4.9h0.1L66.8,50.3L66.8,50.3z"/>
	<path class="st2" d="M66.9,50.4l6.3-4.9v0.1L66.9,50.4L66.9,50.4z"/>
	<path class="st4" d="M66.8,50.3L66.8,50.3L66.8,50.3l0.4,12.9v0.1h-0.1l-12.7-2.2h-0.1V61L54,48.2v-0.1h0.1L66.8,50.3z M66.9,63.2
		l-0.3-12.6l-12.4-2.2L54.5,61L66.9,63.2"/>
</g>
<g class="st0">
	<path class="st4" d="M115.6,53.2L115.6,53.2L115.6,53.2l0.4,13v0.1h-0.1l-12.7-2.2h-0.1V64l-0.3-12.9V51h0.1L115.6,53.2z M115.8,66
		l-0.3-12.6l-12.4-2.2l0.3,12.6L115.8,66"/>
	<path class="st1" d="M115.5,53.4l0.3,12.6l-12.4-2.2l-0.3-12.6L115.5,53.4z"/>
	<path class="st2" d="M96.8,68.9L96.8,68.9l6.3-5V64L96.8,68.9z"/>
	<path class="st3" d="M96.9,69L96.9,69l6.2-4.9h0.1L96.9,69z"/>
	<path class="st2" d="M96.8,68.8L96.6,56l6.3-4.9l0.3,12.9L96.8,68.8z M96.6,56L96.6,56l6.3-5v0.1L96.6,56z"/>
	<path class="st5" d="M97.1,68.7l-0.3-12.6l6.3-4.9l0.3,12.6L97.1,68.7z"/>
	<path class="st2" d="M96.8,56.1l6.3-4.9l0.3,12.6l-6.3,4.9L96.8,56.1z"/>
	<path class="st3" d="M96.6,55.8l6.3-4.8h0.1l-6.3,4.9L96.6,55.8z M109.6,71.2L96.9,69l6.3-4.9l12.7,2.2L109.6,71.2z"/>
	<path class="st6" d="M109.5,70.9l-12.4-2.2l6.3-4.9l12.4,2.2L109.5,70.9z"/>
	<path class="st3" d="M97.1,68.7l6.3-4.9l12.4,2.2l-6.3,4.9L97.1,68.7z M109.7,71.2L109.7,71.2l6.2-4.9h0.1L109.7,71.2z"/>
	<path class="st2" d="M109.7,71.1l6.3-4.9v0.1L109.7,71.1L109.7,71.1z"/>
	<path class="st3" d="M109.2,58.3l-12.4-2.2l6.3-4.9l12.4,2.2L109.2,58.3z"/>
	<path class="st6" d="M96.8,56.1l6.3-4.9l12.4,2.2l-6.3,4.9L96.8,56.1z"/>
	<path class="st2" d="M109.5,70.9l-0.3-12.6l6.3-4.9l0.3,12.6L109.5,70.9z"/>
	<path class="st5" d="M109.2,58.3l6.3-4.9l0.3,12.6l-6.3,4.9L109.2,58.3z"/>
	<path class="st4" d="M109.3,58.1L109.3,58.1L109.3,58.1l0.4,13v0.1h-0.1L96.9,69h-0.1v-0.1L96.6,56v-0.1h0.1L109.3,58.1z
		 M109.5,70.9l-0.3-12.6l-12.4-2.2l0.3,12.6L109.5,70.9"/>
	<path class="st1" d="M109.2,58.3l0.3,12.6l-12.4-2.2l-0.3-12.6L109.2,58.3z"/>
	<path class="st3" d="M96.7,55.8L103,51l12.7,2.2l-6.3,4.9L96.7,55.8z"/>
	<path class="st2" d="M109.5,58.2l6.3-4.9l0.3,12.8l-6.3,4.9L109.5,58.2z"/>
	<path class="st3" d="M109.3,58.1l6.3-4.9h0.1L109.3,58.1L109.3,58.1z"/>
	<path class="st2" d="M109.5,58.1l6.3-4.9v0.1L109.5,58.1L109.5,58.1z"/>
</g>
<g class="st0">
	<path class="st4" d="M101.4,50.7L101.4,50.7L101.4,50.7l0.4,13v0.1h-0.1L89,61.5h-0.1v-0.1l-0.3-12.9v-0.1h0.1L101.4,50.7z
		 M101.5,63.5l-0.3-12.6l-12.4-2.2l0.3,12.6L101.5,63.5"/>
	<path class="st1" d="M101.3,50.9l0.3,12.6l-12.4-2.2l-0.3-12.6L101.3,50.9z"/>
	<path class="st2" d="M82.6,66.4L82.6,66.4l6.3-5v0.1L82.6,66.4z"/>
	<path class="st3" d="M82.7,66.4L82.7,66.4l6.2-4.9H89L82.7,66.4z"/>
	<path class="st2" d="M82.6,66.3l-0.3-12.8l6.3-4.9l0.3,12.9L82.6,66.3z M82.3,53.4L82.3,53.4l6.3-5v0.1L82.3,53.4z"/>
	<path class="st2" d="M82.6,53.6l6.3-4.9l0.3,12.6l-6.3,4.9L82.6,53.6z"/>
	<path class="st5" d="M82.8,66.2l-0.3-12.6l6.3-4.9l0.3,12.6L82.8,66.2z"/>
	<path class="st3" d="M82.3,53.3l6.3-4.9h0.1L82.3,53.3L82.3,53.3z M95.3,68.7l-12.6-2.2l6.3-4.9l12.7,2.2L95.3,68.7z"/>
	<path class="st3" d="M82.8,66.2l6.3-4.9l12.4,2.2l-6.3,4.9L82.8,66.2z"/>
	<path class="st6" d="M95.3,68.4l-12.4-2.2l6.3-4.9l12.4,2.2L95.3,68.4z"/>
	<path class="st3" d="M95.5,68.7L95.5,68.7l6.2-4.9h0.1L95.5,68.7z"/>
	<path class="st2" d="M95.5,68.5l6.3-4.9v0.1L95.5,68.5L95.5,68.5z"/>
	<path class="st1" d="M95,55.8l0.3,12.6l-12.4-2.2l-0.3-12.6L95,55.8z"/>
	<path class="st3" d="M95,55.8l-12.4-2.2l6.3-4.9l12.4,2.2L95,55.8z"/>
	<path class="st6" d="M82.6,53.6l6.3-4.9l12.4,2.2L95,55.8L82.6,53.6z"/>
	<path class="st2" d="M95.3,68.4L95,55.8l6.3-4.9l0.3,12.6L95.3,68.4z"/>
	<path class="st5" d="M95,55.8l6.3-4.9l0.3,12.6l-6.3,4.9L95,55.8z"/>
	<path class="st3" d="M82.4,53.3l6.3-4.9l12.7,2.2l-6.3,4.9L82.4,53.3z"/>
	<path class="st2" d="M95.3,55.7l6.3-4.9l0.3,12.9l-6.3,4.9L95.3,55.7z"/>
	<path class="st3" d="M95.1,55.5l6.3-4.9h0.1L95.1,55.5L95.1,55.5z"/>
	<path class="st2" d="M95.2,55.6l6.3-4.9v0.1L95.2,55.6L95.2,55.6z"/>
	<path class="st4" d="M95.1,55.5L95.1,55.5L95.1,55.5l0.4,13v0.1h-0.1l-12.6-2.2h-0.1v-0.1l-0.3-12.8v-0.1h0.1L95.1,55.5z
		 M95.3,68.4L95,55.8l-12.4-2.2l0.3,12.6L95.3,68.4"/>
</g>
<g class="st0">
	<path class="st4" d="M87.1,48.1L87.1,48.1L87.1,48.1l0.4,13v0.1h-0.1L74.7,59h-0.1v-0.2L74.3,46v-0.1h0.1L87.1,48.1L87.1,48.1z
		 M87.2,60.9L87,48.3l-12.4-2.2l0.3,12.6L87.2,60.9"/>
	<path class="st1" d="M87,48.3l0.3,12.6l-12.4-2.2l-0.3-12.6L87,48.3z"/>
	<path class="st2" d="M68.3,63.8L68.3,63.8l6.3-5v0.1L68.3,63.8z"/>
	<path class="st3" d="M68.4,63.8L68.4,63.8l6.2-4.9h0.1L68.4,63.8z"/>
	<path class="st2" d="M68.3,63.7L68,50.8l6.3-4.8l0.3,12.8L68.3,63.7z"/>
	<path class="st2" d="M68,50.8L68,50.8l6.3-5V46L68,50.8z M68.3,51l6.3-4.9l0.3,12.6l-6.3,4.9L68.3,51z"/>
	<path class="st5" d="M68.5,63.6L68.3,51l6.3-4.9l0.3,12.6L68.5,63.6z"/>
	<path class="st3" d="M68,50.7l6.3-4.9h0.1L68,50.7L68,50.7z M81,66l-12.6-2.2l6.3-4.8l12.7,2.2L81,66z"/>
	<path class="st6" d="M81,65.8l-12.5-2.2l6.3-4.9l12.4,2.2L81,65.8z"/>
	<path class="st3" d="M68.5,63.6l6.3-4.9l12.4,2.2L81,65.8L68.5,63.6z M81.2,66.1L81.2,66.1l6.2-4.9h0.1L81.2,66.1z"/>
	<path class="st2" d="M81.2,65.9l6.3-4.9v0.1L81.2,65.9L81.2,65.9z"/>
	<path class="st1" d="M80.7,53.2L81,65.8l-12.5-2.2L68.3,51L80.7,53.2z"/>
	<path class="st3" d="M80.7,53.2L68.3,51l6.3-4.9L87,48.3L80.7,53.2z"/>
	<path class="st6" d="M68.3,51l6.3-4.9L87,48.3l-6.3,4.9L68.3,51z"/>
	<path class="st2" d="M81,65.8l-0.3-12.6l6.3-4.9l0.3,12.6L81,65.8z"/>
	<path class="st5" d="M80.7,53.2l6.3-4.9l0.3,12.6L81,65.8L80.7,53.2z"/>
	<path class="st3" d="M68.2,50.7l6.3-4.9L87.2,48l-6.3,4.9L68.2,50.7z"/>
	<path class="st2" d="M81,53.1l6.3-4.9l0.3,12.9L81.3,66L81,53.1z"/>
	<path class="st3" d="M80.8,52.9l6.3-4.9h0.1L81,53L80.8,52.9z"/>
	<path class="st2" d="M81,53l6.3-4.9v0.1L81,53L81,53z"/>
	<path class="st4" d="M80.8,52.9L81,53v0.1L81.3,66v0.1h-0.1l-12.7-2.3h-0.1v-0.1L68,50.8v-0.1h0.1L80.8,52.9L80.8,52.9z M81,65.8
		l-0.3-12.6L68.3,51l0.3,12.6L81,65.8"/>
</g>
<g class="st0">
	<path class="st1" d="M72.8,31.5l0.3,12.6l-12.4-2.2l-0.3-12.6L72.8,31.5z"/>
	<path class="st2" d="M54.2,47L54.2,47l6.3-5v0.1L54.2,47z"/>
	<path class="st3" d="M54.3,47L54.3,47l6.2-4.9h0.1L54.3,47z M67,49.2L54.3,47l6.3-4.9l12.7,2.2L67,49.2z"/>
	<path class="st3" d="M54.4,46.7l6.3-4.9L73.1,44l-6.3,4.9L54.4,46.7z"/>
	<path class="st6" d="M66.8,48.9l-12.4-2.2l6.3-4.9L73.1,44L66.8,48.9z"/>
	<path class="st4" d="M73.3,44.2L73,31.3v-0.1h-0.1L60.3,29h-0.1v0.1L60.4,42v0.1l0.2-0.2l-0.3-12.6l12.4,2.2L73,44.1l-0.3,0.2
		l0.4,0.1h0.1L73.3,44.2z"/>
	<path class="st2" d="M54.2,46.8L53.9,34l6.3-4.9L60.4,42L54.2,46.8z"/>
	<path class="st2" d="M53.9,34L53.9,34l6.3-5v0.1L53.9,34z"/>
	<path class="st5" d="M54.4,46.7l-0.3-12.6l6.3-4.9l0.3,12.6L54.4,46.7z"/>
	<path class="st2" d="M54.2,34.1l6.3-4.9l0.3,12.6l-6.3,4.9L54.2,34.1z"/>
	<path class="st3" d="M53.9,33.8l6.3-4.8h0.1L53.9,33.8L53.9,33.8z M67.1,49.2L67.1,49.2l6.2-4.9h0.1L67.1,49.2z"/>
	<path class="st2" d="M67.1,49.1l6.3-4.9v0.1L67.1,49.1L67.1,49.1z"/>
	<path class="st1" d="M66.6,36.3l0.3,12.6l-12.4-2.2l-0.3-12.6L66.6,36.3z"/>
	<path class="st3" d="M66.6,36.3l-12.4-2.2l6.3-4.9l12.4,2.2L66.6,36.3z"/>
	<path class="st6" d="M54.2,34.1l6.3-4.9l12.4,2.2l-6.3,4.9L54.2,34.1z"/>
	<path class="st5" d="M66.6,36.3l6.3-4.9L73.2,44l-6.3,4.9L66.6,36.3z"/>
	<path class="st2" d="M66.8,48.9l-0.3-12.6l6.3-4.9L73.1,44L66.8,48.9z"/>
	<path class="st3" d="M54,33.9l6.3-4.9L73,31.2l-6.3,4.9L54,33.9z"/>
	<path class="st2" d="M66.8,36.3l6.3-4.9l0.3,12.9l-6.3,4.9L66.8,36.3z"/>
	<path class="st3" d="M66.7,36.1l6.3-4.9h0.1L66.7,36.1L66.7,36.1z"/>
	<path class="st2" d="M66.8,36.1l6.3-4.9v0.1l-6.3,4.9V36.1z"/>
	<path class="st4" d="M66.7,36.1L66.7,36.1L66.7,36.1l0.4,13v0.1H67L54.3,47h-0.1v-0.1L53.9,34v-0.1H54L66.7,36.1z M66.8,48.9
		l-0.3-12.6l-12.4-2.2l0.3,12.6L66.8,48.9"/>
</g>
<g class="st0">
	<path class="st4" d="M115.5,39L115.5,39L115.5,39l0.4,13v0.1h-0.1l-12.7-2.2H103v-0.1l-0.3-12.9v-0.1h0.1L115.5,39z M115.6,51.8
		l-0.3-12.6L103,37l0.3,12.6L115.6,51.8"/>
	<path class="st1" d="M115.4,39.2l0.3,12.6l-12.4-2.2L103,37L115.4,39.2z"/>
	<path class="st2" d="M96.7,54.7L96.7,54.7l6.3-5v0.1L96.7,54.7z"/>
	<path class="st3" d="M96.8,54.7L96.8,54.7l6.2-4.9h0.1L96.8,54.7z"/>
	<path class="st2" d="M96.7,54.6l-0.3-12.9l6.3-4.9l0.3,12.8L96.7,54.6z M96.4,41.7L96.4,41.7l6.3-5v0.1L96.4,41.7z"/>
	<path class="st5" d="M96.9,54.5l-0.3-12.6L103,37l0.3,12.6L96.9,54.5z"/>
	<path class="st2" d="M96.7,41.9L103,37l0.3,12.6L97,54.5L96.7,41.9z"/>
	<path class="st3" d="M96.4,41.6l6.3-4.9h0.1L96.4,41.6L96.4,41.6z M109.4,56.9l-12.6-2.2l6.3-4.9l12.7,2.2L109.4,56.9z"/>
	<path class="st6" d="M109.4,56.7L97,54.5l6.3-4.9l12.4,2.2L109.4,56.7z"/>
	<path class="st3" d="M96.9,54.5l6.3-4.9l12.4,2.2l-6.3,4.9L96.9,54.5z M109.6,57L109.6,57l6.2-4.9h0.1L109.6,57z"/>
	<path class="st2" d="M109.6,56.8l6.3-4.8v0.1l-6.3,4.9V56.8z"/>
	<path class="st1" d="M109.1,44.1l0.3,12.6L97,54.5l-0.3-12.6L109.1,44.1z"/>
	<path class="st3" d="M109.1,44.1l-12.4-2.2L103,37l12.4,2.2L109.1,44.1z"/>
	<path class="st6" d="M96.7,41.9L103,37l12.4,2.2l-6.3,4.9L96.7,41.9z"/>
	<path class="st2" d="M109.4,56.7l-0.3-12.6l6.3-4.9l0.3,12.6L109.4,56.7z"/>
	<path class="st5" d="M109.1,44.1l6.3-4.9l0.3,12.6l-6.3,4.9L109.1,44.1z"/>
	<path class="st3" d="M96.6,41.6l6.3-4.9l12.7,2.3l-6.3,4.9L96.6,41.6z"/>
	<path class="st2" d="M109.3,44l6.3-4.9l0.3,12.9l-6.3,4.9L109.3,44z"/>
	<path class="st3" d="M109.2,43.8l6.3-4.8h0.1l-6.3,4.9L109.2,43.8z"/>
	<path class="st2" d="M109.3,43.8l6.3-4.8v0.1l-6.3,4.9V43.8z"/>
	<path class="st4" d="M109.2,43.8L109.2,43.8l0.1,0.2l0.3,12.8V57h-0.1l-12.7-2.3h-0.1v-0.1l-0.3-12.9v-0.1h0.1L109.2,43.8
		L109.2,43.8z M109.4,56.7l-0.3-12.6l-12.4-2.2L97,54.5L109.4,56.7"/>
</g>
<g class="st0">
	<path class="st4" d="M101.3,36.4L101.3,36.4L101.3,36.4l0.4,12.9v0.1h-0.1l-12.7-2.2h-0.1v-0.1l-0.3-12.8v-0.1h0.1L101.3,36.4
		L101.3,36.4z M101.4,49.3l-0.3-12.6l-12.4-2.2L89,47.1L101.4,49.3"/>
	<path class="st1" d="M101.2,36.7l0.3,12.6L89,47.1l-0.3-12.6L101.2,36.7z"/>
	<path class="st2" d="M82.5,52.2V52l6.3-4.9v0.1L82.5,52.2z"/>
	<path class="st3" d="M82.6,52.2L82.6,52.2l6.2-4.9h0.1L82.6,52.2z"/>
	<path class="st2" d="M82.5,52l-0.3-12.8l6.3-4.9l0.3,12.9L82.5,52z"/>
	<path class="st2" d="M82.2,39.2V39l6.3-4.9v0.1L82.2,39.2z M82.5,39.3l6.3-4.9L89,47.1L82.7,52L82.5,39.3z"/>
	<path class="st3" d="M95.3,54.4l-12.7-2.2l6.3-4.9l12.7,2.2L95.3,54.4z"/>
	<path class="st3" d="M82.7,51.9L89,47l12.4,2.2l-6.3,4.9L82.7,51.9z"/>
	<path class="st5" d="M82.7,51.9l-0.3-12.6l6.3-4.9L89,47.1L82.7,51.9z"/>
	<path class="st3" d="M82.2,39l6.3-4.9h0.1L82.3,39H82.2z"/>
	<path class="st6" d="M95.1,54.1l-12.4-2.2L89,47l12.4,2.2L95.1,54.1z"/>
	<path class="st3" d="M95.4,54.4L95.4,54.4l6.2-4.9h0.1L95.4,54.4z"/>
	<path class="st2" d="M95.4,54.3l6.3-4.9v0.1L95.4,54.3L95.4,54.3z"/>
	<path class="st1" d="M94.9,41.5l0.3,12.6l-12.4-2.2l-0.3-12.6L94.9,41.5z"/>
	<path class="st6" d="M82.5,39.3l6.3-4.9l12.4,2.2l-6.3,4.9L82.5,39.3z"/>
	<path class="st3" d="M94.9,41.5l-12.4-2.2l6.3-4.9l12.4,2.2L94.9,41.5z"/>
	<path class="st2" d="M95.1,54.1l-0.3-12.6l6.3-4.9l0.3,12.6L95.1,54.1z"/>
	<path class="st5" d="M94.9,41.5l6.3-4.9l0.3,12.6l-6.3,4.9L94.9,41.5z"/>
	<path class="st3" d="M82.3,39.1l6.3-4.9l12.7,2.2L95,41.3L82.3,39.1z"/>
	<path class="st2" d="M95.1,41.5l6.3-4.9l0.3,12.9l-6.3,4.9L95.1,41.5z"/>
	<path class="st3" d="M95,41.3l6.3-4.9h0.1L95,41.3L95,41.3z"/>
	<path class="st2" d="M95.1,41.3l6.3-4.9v0.1L95.1,41.3L95.1,41.3z"/>
	<path class="st4" d="M95,41.3L95,41.3L95,41.3l0.4,12.9v0.1h-0.1l-12.7-2.2h-0.1V52l-0.3-12.8V39h0.1L95,41.3z M95.1,54.1
		l-0.3-12.6l-12.4-2.2l0.3,12.6L95.1,54.1"/>
</g>
<g class="st0">
	<path class="st4" d="M87,33.8L87,33.8l0.1,0.2l0.3,12.9V47h-0.1l-12.7-2.3h-0.1v-0.1l-0.3-12.9v-0.1h0.1L87,33.8z M87.1,46.7
		l-0.3-12.6l-12.4-2.2l0.3,12.6L87.1,46.7"/>
	<path class="st1" d="M86.9,34.1l0.3,12.6l-12.4-2.2l-0.3-12.6L86.9,34.1z"/>
	<path class="st2" d="M68.2,49.5L68.2,49.5l6.3-5v0.1L68.2,49.5z"/>
	<path class="st3" d="M68.3,49.6L68.3,49.6l6.2-4.9h0.1L68.3,49.6z"/>
	<path class="st2" d="M68.2,49.4l-0.3-12.8l6.3-4.9l0.3,12.8L68.2,49.4z"/>
	<path class="st2" d="M67.9,36.6L67.9,36.6l6.3-5v0.1L67.9,36.6z M68.2,36.8l6.3-4.9l0.3,12.6l-6.3,4.9L68.2,36.8z"/>
	<path class="st5" d="M68.4,49.3l-0.3-12.6l6.3-4.9l0.3,12.6L68.4,49.3z"/>
	<path class="st3" d="M67.9,36.5l6.3-4.9h0.1L67.9,36.5L67.9,36.5z M81,51.8l-12.7-2.2l6.3-4.9l12.7,2.2L81,51.8z"/>
	<path class="st6" d="M80.8,51.5l-12.4-2.2l6.3-4.9l12.4,2.2L80.8,51.5z"/>
	<path class="st3" d="M68.4,49.3l6.3-4.9l12.4,2.2l-6.3,4.9L68.4,49.3z M81.1,51.8L81.1,51.8l6.2-4.9h0.1L81.1,51.8z"/>
	<path class="st2" d="M81.1,51.7l6.3-4.9V47l-6.3,4.9V51.7z"/>
	<path class="st1" d="M80.6,38.9l0.3,12.6l-12.4-2.2l-0.3-12.6L80.6,38.9z"/>
	<path class="st3" d="M80.6,38.9l-12.4-2.2l6.3-4.9L86.9,34L80.6,38.9z"/>
	<path class="st6" d="M68.2,36.8l6.3-4.9l12.4,2.2L80.6,39L68.2,36.8z"/>
	<path class="st2" d="M80.8,51.5l-0.3-12.6l6.3-4.9l0.3,12.6L80.8,51.5z"/>
	<path class="st5" d="M80.6,38.9l6.3-4.9l0.3,12.6l-6.3,4.9L80.6,38.9z"/>
	<path class="st3" d="M68,36.5l6.3-4.9L87,33.8l-6.3,4.9L68,36.5z"/>
	<path class="st2" d="M80.8,38.8l6.3-4.8l0.3,12.9l-6.3,4.8L80.8,38.8z"/>
	<path class="st3" d="M80.7,38.7l6.3-4.9h0.1L80.7,38.7L80.7,38.7z"/>
	<path class="st2" d="M80.8,38.7l6.3-4.9V34l-6.3,4.9V38.7z"/>
	<path class="st4" d="M80.7,38.7L80.7,38.7L80.7,38.7l0.4,12.9v0.1H81l-12.7-2.2h-0.1v-0.1l-0.3-12.9v-0.1H68L80.7,38.7z M80.8,51.5
		l-0.3-12.6l-12.4-2.2l0.3,12.6L80.8,51.5"/>
</g>
<g class="st0">
	<path class="st1" d="M72.6,17.3l0.3,12.6l-12.4-2.2l-0.3-12.6L72.6,17.3z"/>
	<path class="st2" d="M53.9,32.8L53.9,32.8l6.3-5v0.1L53.9,32.8z"/>
	<path class="st3" d="M54,32.8L54,32.8l6.2-4.9h0.1L54,32.8z"/>
	<path class="st4" d="M72.7,17L72.7,17l0.1,0.1L73.1,30v0.1H73l-12.7-2.2h-0.1v-0.1l-0.3-12.9v-0.1H60L72.7,17z M72.8,29.8
		l-0.3-12.6l-12.4-2.1l0.3,12.6L72.8,29.8"/>
	<path class="st2" d="M53.9,32.6l-0.3-12.9l6.3-4.9l0.3,12.9L53.9,32.6z"/>
	<path class="st2" d="M53.6,19.8v-0.1l6.3-4.9v0.1L53.6,19.8z M53.9,20l6.3-4.9l0.3,12.6l-6.3,4.9L53.9,20z"/>
	<path class="st5" d="M54.1,32.5L53.9,20l6.3-4.9l0.3,12.6L54.1,32.5z"/>
	<path class="st3" d="M53.6,19.6l6.3-4.9H60l-6.3,4.9H53.6z M66.7,35L54,32.8l6.3-4.9L73,30.1L66.7,35z"/>
	<path class="st6" d="M66.5,34.7l-12.4-2.2l6.3-4.9l12.4,2.2L66.5,34.7z"/>
	<path class="st3" d="M54.1,32.5l6.3-4.9l12.4,2.2l-6.3,4.9L54.1,32.5z M66.8,35L66.8,35l6.2-4.9h0.1L66.8,35z"/>
	<path class="st2" d="M66.8,34.9l6.3-4.9v0.1L66.8,34.9L66.8,34.9z"/>
	<path class="st1" d="M66.3,22.1l0.3,12.6l-12.4-2.2L53.9,20L66.3,22.1z"/>
	<path class="st3" d="M66.3,22.1L53.9,20l6.3-4.9l12.4,2.2L66.3,22.1z"/>
	<path class="st6" d="M53.9,20l6.3-4.9l12.4,2.2l-6.3,4.9L53.9,20z"/>
	<path class="st5" d="M66.3,22.1l6.3-4.9l0.3,12.6l-6.3,4.9L66.3,22.1z"/>
	<path class="st2" d="M66.5,34.7l-0.3-12.6l6.3-4.9l0.3,12.6L66.5,34.7z"/>
	<path class="st3" d="M53.7,19.7l6.3-4.9L72.7,17l-6.3,4.9L53.7,19.7z"/>
	<path class="st2" d="M66.5,22.1l6.3-4.9L73.1,30l-6.3,4.9L66.5,22.1z"/>
	<path class="st3" d="M66.4,21.9l6.3-4.9h0.1L66.4,21.9L66.4,21.9z"/>
	<path class="st2" d="M66.5,21.9l6.3-4.9v0.1L66.5,22V21.9z"/>
	<path class="st4" d="M66.4,21.9L66.4,21.9l0.1,0.1l0.3,12.9V35h-0.1L54,32.8h-0.1v-0.1l-0.3-12.9v-0.1h0.1L66.4,21.9z M66.5,34.7
		l-0.3-12.6L53.9,20l0.3,12.6L66.5,34.7"/>
</g>
<g class="st0">
	<path class="st1" d="M115.1,25l0.3,12.6L103,35.4l-0.3-12.6L115.1,25z"/>
	<path class="st2" d="M96.4,40.5L96.4,40.5l6.3-5v0.1L96.4,40.5z"/>
	<path class="st3" d="M96.6,40.5L96.6,40.5l6.2-4.9h0.1L96.6,40.5z"/>
	<path class="st4" d="M115.2,24.8L115.2,24.8l0.1,0.1l0.3,12.8v0.1h-0.1l-12.7-2.2h-0.1v-0.1l-0.3-12.9v-0.1h0.1L115.2,24.8z
		 M115.3,37.6L115.1,25l-12.4-2.2l0.3,12.6L115.3,37.6"/>
	<path class="st2" d="M96.4,40.4l-0.3-12.9l6.3-4.9l0.3,12.9L96.4,40.4z"/>
	<path class="st2" d="M96.2,27.5v-0.1l6.3-4.9v0.1L96.2,27.5z M96.4,27.7l6.3-4.9l0.3,12.6l-6.3,4.9L96.4,27.7z"/>
	<path class="st5" d="M96.7,40.3l-0.3-12.6l6.3-4.9l0.3,12.6L96.7,40.3z"/>
	<path class="st3" d="M96.2,27.4l6.3-4.9h0.1L96.2,27.4L96.2,27.4z M109.2,42.8l-12.6-2.2l6.3-4.9l12.7,2.2L109.2,42.8z"/>
	<path class="st3" d="M96.7,40.3l6.3-4.9l12.4,2.2l-6.3,4.9L96.7,40.3z"/>
	<path class="st6" d="M109.1,42.5l-12.4-2.2l6.3-4.9l12.4,2.2L109.1,42.5z"/>
	<path class="st3" d="M109.3,42.8L109.3,42.8l6.2-4.9h0.1L109.3,42.8z"/>
	<path class="st2" d="M109.3,42.6l6.3-4.9v0.1L109.3,42.6L109.3,42.6z"/>
	<path class="st3" d="M108.8,29.9l-12.4-2.2l6.3-4.9l12.4,2.2L108.8,29.9z"/>
	<path class="st6" d="M96.4,27.7l6.3-4.9l12.4,2.2l-6.3,4.9L96.4,27.7z"/>
	<path class="st2" d="M109.1,42.5l-0.3-12.6l6.3-4.9l0.3,12.6L109.1,42.5z"/>
	<path class="st5" d="M108.8,29.9l6.3-4.9l0.3,12.6l-6.3,4.9L108.8,29.9z"/>
	<path class="st4" d="M109,29.6L109,29.6l0.1,0.1l0.3,12.9v0.1h-0.1l-12.7-2.2h-0.1v-0.1l-0.3-12.9v-0.1h0.1L109,29.6z M109.1,42.5
		l-0.3-12.6l-12.5-2.2l0.3,12.6L109.1,42.5"/>
	<path class="st1" d="M108.8,29.9l-12.4-2.2l0.3,12.6l12.4,2.2L108.8,29.9z"/>
	<path class="st3" d="M96.3,27.4l6.3-4.9l12.7,2.2l-6.2,4.9L96.3,27.4z"/>
	<path class="st2" d="M109.1,29.8l6.3-4.9l0.3,12.8l-6.3,4.9L109.1,29.8z"/>
	<path class="st3" d="M109,29.6l6.3-4.9h0.1L109,29.6L109,29.6z"/>
	<path class="st2" d="M109.1,29.7l6.3-4.9v0.1l-6.3,4.9V29.7z"/>
</g>
<g class="st0">
	<path class="st4" d="M101,22.3L101,22.3l0.1,0.1l0.3,12.9v0.1h-0.1l-12.7-2.2h-0.1V33l-0.3-12.9V20h0.1L101,22.3z M101.1,35.1
		l-0.3-12.6l-12.4-2.2l0.3,12.6L101.1,35.1"/>
	<path class="st1" d="M100.9,22.5l0.3,12.6l-12.4-2.2l-0.3-12.6L100.9,22.5z"/>
	<path class="st2" d="M82.2,38L82.2,38l6.3-5v0.1L82.2,38z"/>
	<path class="st3" d="M82.3,38L82.3,38l6.2-4.9h0.1L82.3,38z"/>
	<path class="st2" d="M82.2,37.8L81.9,25l6.3-4.9L88.5,33L82.2,37.8z"/>
	<path class="st2" d="M81.9,25v-0.1l6.3-4.9v0.1L81.9,25z M82.2,25.2l6.3-4.9l0.3,12.6l-6.3,4.9L82.2,25.2z"/>
	<path class="st5" d="M82.4,37.8l-0.3-12.6l6.3-4.9l0.3,12.6L82.4,37.8z"/>
	<path class="st3" d="M81.9,24.9l6.3-4.9h0.1L81.9,24.9L81.9,24.9z M95,40.2L82.3,38l6.3-4.9l12.7,2.2L95,40.2z"/>
	<path class="st3" d="M82.4,37.8l6.3-4.9l12.4,2.2L94.8,40L82.4,37.8z"/>
	<path class="st6" d="M94.9,39.9l-12.4-2.2l6.3-4.9l12.4,2.2L94.9,39.9z"/>
	<path class="st3" d="M95.1,40.2L95.1,40.2l6.2-4.9h0.1L95.1,40.2z"/>
	<path class="st2" d="M95.1,40.1l6.3-4.9v0.1L95.1,40.1L95.1,40.1z"/>
	<path class="st1" d="M94.6,27.4L94.9,40l-12.4-2.2l-0.3-12.6L94.6,27.4z"/>
	<path class="st3" d="M94.6,27.4l-12.4-2.2l6.3-4.9l12.4,2.2L94.6,27.4z"/>
	<path class="st6" d="M82.2,25.2l6.3-4.9l12.4,2.2l-6.3,4.9L82.2,25.2z"/>
	<path class="st2" d="M94.9,39.9l-0.3-12.6l6.3-4.9l0.3,12.6L94.9,39.9z"/>
	<path class="st5" d="M94.6,27.4l6.3-4.9l0.3,12.6L94.9,40L94.6,27.4z"/>
	<path class="st3" d="M82.1,24.9l6.3-4.9l12.7,2.3l-6.3,4.9L82.1,24.9z"/>
	<path class="st2" d="M94.8,27.3l6.3-4.9l0.3,12.9l-6.3,4.9L94.8,27.3z"/>
	<path class="st3" d="M94.7,27.1l6.3-4.9h0.1L94.7,27.1L94.7,27.1z"/>
	<path class="st2" d="M94.8,27.1l6.3-4.9v0.1l-6.3,4.9V27.1z"/>
	<path class="st4" d="M94.7,27.1L94.7,27.1l0.1,0.1l0.3,12.9v0.1H95L82.3,38h-0.1v-0.1L81.9,25v-0.1H82L94.7,27.1L94.7,27.1z
		 M94.9,39.9l-0.3-12.6l-12.4-2.2l0.3,12.6L94.9,39.9"/>
</g>
<g class="st0">
	<path class="st1" d="M86.6,19.9l0.3,12.6l-12.4-2.2l-0.3-12.6L86.6,19.9z"/>
	<path class="st2" d="M67.9,35.4L67.9,35.4l6.3-5v0.1L67.9,35.4z"/>
	<path class="st3" d="M68,35.4L68,35.4l6.2-4.9h0.1L68,35.4z"/>
	<path class="st4" d="M86.7,19.6L86.7,19.6l0.1,0.1l0.3,12.8v0.1H87l-12.7-2.2h-0.1v-0.1l-0.3-12.9v-0.1H74L86.7,19.6z M86.8,32.5
		l-0.3-12.6l-12.4-2.2l0.3,12.6L86.8,32.5"/>
	<path class="st2" d="M67.9,35.2l-0.3-12.9l6.3-4.9l0.3,12.9L67.9,35.2z"/>
	<path class="st2" d="M67.6,22.4v-0.1l6.3-4.9v0.1L67.6,22.4z"/>
	<path class="st5" d="M68.1,35.2l-0.3-12.6l6.3-4.9l0.3,12.6L68.1,35.2z"/>
	<path class="st2" d="M67.9,22.5l6.3-4.9l0.3,12.6l-6.3,4.9L67.9,22.5z"/>
	<path class="st3" d="M67.6,22.3l6.3-4.9H74L67.6,22.3L67.6,22.3z M80.6,37.6L68,35.4l6.3-4.9L87,32.8L80.6,37.6z"/>
	<path class="st3" d="M68.1,35.2l6.3-4.9l12.4,2.2l-6.3,4.9L68.1,35.2z"/>
	<path class="st6" d="M80.6,37.3l-12.4-2.2l6.3-4.9l12.4,2.2L80.6,37.3z"/>
	<path class="st3" d="M80.8,37.6L80.8,37.6l6.2-4.9h0.1L80.8,37.6z"/>
	<path class="st2" d="M80.8,37.5l6.3-4.9v0.1L80.8,37.5L80.8,37.5z"/>
	<path class="st1" d="M80.3,24.7l0.3,12.6l-12.4-2.2l-0.3-12.6L80.3,24.7z"/>
	<path class="st6" d="M67.9,22.5l6.3-4.9l12.4,2.2l-6.3,4.9L67.9,22.5z"/>
	<path class="st3" d="M80.3,24.7l-12.4-2.2l6.3-4.9l12.4,2.2L80.3,24.7z"/>
	<path class="st2" d="M80.6,37.3l-0.3-12.6l6.3-4.9l0.3,12.6L80.6,37.3z"/>
	<path class="st5" d="M80.3,24.7l6.3-4.9l0.3,12.6l-6.3,4.9L80.3,24.7z"/>
	<path class="st3" d="M67.8,22.3l6.2-4.9l12.7,2.2l-6.3,4.9L67.8,22.3z"/>
	<path class="st2" d="M80.6,24.7l6.3-4.9l0.3,12.8l-6.3,4.9L80.6,24.7z"/>
	<path class="st3" d="M80.4,24.5l6.3-4.9h0.1L80.4,24.5L80.4,24.5z"/>
	<path class="st2" d="M80.6,24.5l6.3-4.9v0.1l-6.3,4.9V24.5z"/>
	<path class="st4" d="M80.4,24.5L80.4,24.5l0.1,0.1l0.3,12.8v0.1h-0.1L68,35.4h-0.1v-0.1l-0.3-12.9v-0.1h0.1L80.4,24.5z M80.6,37.3
		l-0.3-12.6l-12.4-2.2l0.3,12.6L80.6,37.3"/>
</g>
<g class="st0">
	<path class="st7" d="M64.6,67.2l0.3,12.6l-12.4-2.2L52.2,65L64.6,67.2z"/>
	<path class="st2" d="M45.9,82.7L45.9,82.7l6.3-5v0.1L45.9,82.7z"/>
	<path class="st3" d="M46.1,82.8L46.1,82.8l6.2-4.9h0.1L46.1,82.8z"/>
	<path class="st4" d="M64.7,67L64.7,67L64.7,67l0.4,13v0.1H65l-12.7-2.3h-0.1v-0.1l-0.3-12.8v-0.1H52L64.7,67z M64.9,79.8l-0.3-12.6
		L52.2,65l0.3,12.6L64.9,79.8"/>
	<path class="st2" d="M45.9,82.6l-0.3-12.8l6.3-4.9l0.3,12.8L45.9,82.6z M45.7,69.7L45.7,69.7l6.3-5v0.1L45.7,69.7z"/>
	<path class="st2" d="M45.9,69.9l6.3-4.9l0.3,12.6l-6.3,4.9L45.9,69.9z"/>
	<path class="st8" d="M46.2,82.5l-0.3-12.6l6.3-4.9l0.3,12.6L46.2,82.5z"/>
	<path class="st3" d="M45.7,69.6l6.3-4.9h0.1L45.7,69.6L45.7,69.6z M58.7,85L46,82.7l6.3-4.9L65,80.1L58.7,85z"/>
	<path class="st9" d="M58.6,84.7l-12.4-2.2l6.3-4.9l12.4,2.2L58.6,84.7z"/>
	<path class="st3" d="M46.2,82.5l6.3-4.9l12.4,2.2l-6.3,4.9L46.2,82.5z M58.8,85L58.8,85l6.2-4.9h0.1L58.8,85z"/>
	<path class="st2" d="M58.8,84.9l6.3-4.9v0.1L58.8,84.9L58.8,84.9z"/>
	<path class="st3" d="M58.3,72.1l-12.4-2.2l6.3-4.9l12.4,2.2L58.3,72.1z"/>
	<path class="st9" d="M45.9,69.9l6.3-4.9l12.4,2.2l-6.3,4.9L45.9,69.9z"/>
	<path class="st2" d="M58.6,84.7l-0.3-12.6l6.3-4.9l0.3,12.6L58.6,84.7z"/>
	<path class="st8" d="M58.3,72.1l6.3-4.9l0.3,12.6l-6.3,4.9L58.3,72.1z"/>
	<path class="st4" d="M58.5,71.9L58.5,71.9L58.5,71.9l0.4,12.9V85h-0.1l-12.7-2.3H46v-0.1l-0.3-12.8v-0.1h0.1L58.5,71.9z M58.6,84.7
		l-0.3-12.6l-12.4-2.2l0.3,12.6L58.6,84.7"/>
	<path class="st7" d="M58.3,72.1l0.3,12.6l-12.4-2.2l-0.3-12.6L58.3,72.1z"/>
	<path class="st3" d="M45.8,69.6l6.3-4.9L64.7,67l-6.3,4.9L45.8,69.6z"/>
	<path class="st2" d="M58.6,72l6.3-4.9L65.1,80l-6.3,4.9L58.6,72z"/>
	<path class="st3" d="M58.5,71.9l6.3-4.9h0.1l-6.3,4.9H58.5z"/>
	<path class="st2" d="M58.6,71.9l6.3-4.9v0.1L58.6,71.9L58.6,71.9z"/>
</g>
<g class="st0">
	<path class="st7" d="M107.2,75l0.3,12.6L95,85.4l-0.3-12.6L107.2,75z"/>
	<path class="st2" d="M88.5,90.5L88.5,90.5l6.3-5v0.1L88.5,90.5z"/>
	<path class="st3" d="M88.6,90.5L88.6,90.5l6.2-4.9h0.1L88.6,90.5z"/>
	<path class="st4" d="M107.3,74.7L107.3,74.7L107.3,74.7l0.4,12.9v0.1h-0.1l-12.7-2.2h-0.1v-0.1l-0.3-12.8v-0.1h0.1L107.3,74.7
		L107.3,74.7z M107.4,87.6L107.2,75l-12.4-2.2L95,85.4L107.4,87.6"/>
	<path class="st2" d="M88.5,90.3l-0.3-12.8l6.3-4.9l0.3,12.8L88.5,90.3z"/>
	<path class="st2" d="M88.2,77.5L88.2,77.5l6.3-5v0.1L88.2,77.5z M88.5,77.7l6.3-4.9L95,85.4l-6.3,4.9L88.5,77.7z"/>
	<path class="st8" d="M88.7,90.2l-0.3-12.6l6.3-4.9L95,85.4L88.7,90.2z"/>
	<path class="st3" d="M88.2,77.3l6.3-4.9h0.1L88.2,77.3L88.2,77.3z M101.3,92.7l-12.7-2.2l6.3-4.9l12.7,2.2L101.3,92.7z"/>
	<path class="st9" d="M101.1,92.4l-12.4-2.2l6.3-4.9l12.4,2.2L101.1,92.4z"/>
	<path class="st3" d="M88.7,90.2l6.3-4.9l12.4,2.2l-6.3,4.9L88.7,90.2z M101.4,92.7L101.4,92.7l6.2-4.9h0.1L101.4,92.7z"/>
	<path class="st2" d="M101.4,92.6l6.3-4.9v0.1L101.4,92.6L101.4,92.6z"/>
	<path class="st7" d="M100.9,79.8l0.3,12.6l-12.4-2.2l-0.3-12.6L100.9,79.8z"/>
	<path class="st9" d="M88.5,77.7l6.3-4.9l12.4,2.2l-6.3,4.9L88.5,77.7z"/>
	<path class="st3" d="M100.9,79.8l-12.4-2.2l6.3-4.9l12.4,2.2L100.9,79.8z"/>
	<path class="st2" d="M101.1,92.4l-0.3-12.6l6.3-4.8l0.3,12.6L101.1,92.4z"/>
	<path class="st8" d="M100.9,79.8l6.3-4.8l0.3,12.6l-6.3,4.9L100.9,79.8z"/>
	<path class="st3" d="M88.3,77.4l6.3-4.9l12.7,2.2l-6.3,4.9L88.3,77.4z"/>
	<path class="st2" d="M101.1,79.8l6.3-4.9l0.3,12.8l-6.3,4.9L101.1,79.8z"/>
	<path class="st3" d="M101,79.6l6.3-4.9h0.1L101,79.6L101,79.6z"/>
	<path class="st2" d="M101.1,79.6l6.3-4.9v0.1L101.1,79.6L101.1,79.6z"/>
	<path class="st4" d="M101,79.6L101,79.6L101,79.6l0.4,12.9v0.1h-0.1l-12.7-2.2h-0.1v-0.1l-0.3-12.8v-0.1h0.1L101,79.6z M101.1,92.4
		l-0.3-12.6l-12.4-2.2l0.3,12.6L101.1,92.4"/>
</g>
<g class="st0">
	<path class="st1" d="M92.9,72.4L93.2,85l-12.4-2.2l-0.3-12.6L92.9,72.4z"/>
	<path class="st2" d="M74.3,87.9L74.3,87.9l6.3-5V83L74.3,87.9z"/>
	<path class="st3" d="M74.4,88L74.4,88l6.2-4.9h0.1L74.4,88z"/>
	<path class="st4" d="M93.1,72.2L93.1,72.2L93.1,72.2l0.4,12.9v0.1h-0.1L80.7,83h-0.1l0,0l-0.3-12.8V70h0.1L93.1,72.2L93.1,72.2z
		 M93.2,85l-0.3-12.6l-12.4-2.2l0.3,12.6L93.2,85"/>
	<path class="st2" d="M74.3,87.8L74,75l6.3-4.9L80.5,83L74.3,87.8z"/>
	<path class="st2" d="M74,75L74,75l6.3-5v0.1L74,75z M74.3,75.2l6.3-4.9l0.3,12.6l-6.3,4.9L74.3,75.2z"/>
	<path class="st5" d="M74.5,87.7l-0.3-12.6l6.3-4.9l0.3,12.6L74.5,87.7z"/>
	<path class="st3" d="M74,74.8l6.3-4.8h0.1L74,74.8L74,74.8z M87,90.2L74.4,88l6.3-4.9l12.7,2.2L87,90.2z"/>
	<path class="st6" d="M86.9,89.9l-12.4-2.2l6.3-4.9L93.2,85L86.9,89.9z"/>
	<path class="st3" d="M74.5,87.7l6.3-4.9L93.2,85l-6.3,4.9L74.5,87.7z M87.2,90.2H87l6.3-4.9h0.1L87.2,90.2z"/>
	<path class="st2" d="M87.2,90.1l6.3-4.9v0.1L87.2,90.1L87.2,90.1z"/>
	<path class="st1" d="M86.7,77.3L87,89.9l-12.4-2.2l-0.3-12.6L86.7,77.3z"/>
	<path class="st6" d="M74.2,75.1l6.3-4.9l12.4,2.2l-6.3,4.9L74.2,75.1z"/>
	<path class="st3" d="M86.7,77.3l-12.4-2.2l6.3-4.9L93,72.4L86.7,77.3z"/>
	<path class="st2" d="M86.9,89.9l-0.3-12.6l6.3-4.9L93.2,85L86.9,89.9z"/>
	<path class="st5" d="M86.7,77.3l6.3-4.9L93.2,85l-6.3,4.9L86.7,77.3z"/>
	<path class="st3" d="M74.1,74.8l6.3-4.8L93,72.2l-6.3,4.9L74.1,74.8z"/>
	<path class="st2" d="M86.9,77.2l6.3-4.9l0.3,12.8L87.2,90L86.9,77.2z"/>
	<path class="st3" d="M86.8,77.1l6.3-4.9h0.1L86.8,77.1L86.8,77.1z"/>
	<path class="st2" d="M86.9,77.1l6.3-4.9v0.1L86.9,77.1L86.9,77.1z"/>
	<path class="st4" d="M86.8,77.1L86.8,77.1L86.8,77.1L87.2,90v0.1H87L74.4,88h-0.1v-0.2L74,75v-0.1h0.1L86.8,77.1L86.8,77.1z
		 M86.9,89.9l-0.3-12.6l-12.4-2.2l0.3,12.6L86.9,89.9"/>
</g>
<g class="st0">
	<path class="st4" d="M78.8,69.6L78.8,69.6L78.8,69.6l0.4,12.9v0.1H79l-12.7-2.2h-0.1v-0.1L66,67.5v-0.1h0.1L78.8,69.6z M78.9,82.4
		l-0.3-12.6l-12.4-2.2l0.3,12.6L78.9,82.4"/>
	<path class="st1" d="M78.6,69.8l0.3,12.6l-12.4-2.2l-0.3-12.6L78.6,69.8z"/>
	<path class="st2" d="M60,85.3L60,85.3l6.3-5v0.1L60,85.3z"/>
	<path class="st3" d="M60.1,85.3L60.1,85.3l6.2-4.9h0.1L60.1,85.3z"/>
	<path class="st2" d="M60,85.2l-0.3-12.8l6.3-4.9l0.3,12.8L60,85.2z"/>
	<path class="st2" d="M59.7,72.3L59.7,72.3l6.3-5v0.1L59.7,72.3z M59.9,72.5l6.3-4.9l0.3,12.6l-6.3,4.9L59.9,72.5z"/>
	<path class="st5" d="M60.2,85.1l-0.3-12.6l6.3-4.9l0.3,12.6L60.2,85.1z"/>
	<path class="st3" d="M59.7,72.2l6.3-4.9h0.1L59.7,72.2L59.7,72.2z M72.7,87.6l-12.6-2.2l6.3-4.9L79,82.7L72.7,87.6z"/>
	<path class="st6" d="M72.6,87.3l-12.4-2.2l6.3-4.9l12.4,2.2L72.6,87.3z"/>
	<path class="st3" d="M60.2,85.1l6.3-4.9l12.4,2.2l-6.3,4.9L60.2,85.1z M72.9,87.6L72.9,87.6l6.2-4.9h0.1L72.9,87.6z"/>
	<path class="st2" d="M72.9,87.5l6.3-4.9v0.1L72.9,87.5L72.9,87.5z"/>
	<path class="st1" d="M72.4,74.7l0.3,12.6l-12.4-2.2L60,72.5L72.4,74.7z"/>
	<path class="st3" d="M72.4,74.7L60,72.5l6.3-4.9l12.4,2.2L72.4,74.7z"/>
	<path class="st6" d="M59.9,72.5l6.3-4.9l12.4,2.2l-6.3,4.9L59.9,72.5z"/>
	<path class="st2" d="M72.6,87.3l-0.3-12.6l6.3-4.9l0.3,12.6L72.6,87.3z"/>
	<path class="st5" d="M72.4,74.7l6.3-4.9L79,82.4l-6.3,4.9L72.4,74.7z"/>
	<path class="st3" d="M59.8,72.2l6.3-4.9l12.7,2.2l-6.3,4.9L59.8,72.2z"/>
	<path class="st2" d="M72.6,74.6l6.3-4.9l0.3,12.8l-6.3,4.9L72.6,74.6z"/>
	<path class="st3" d="M72.5,74.5l6.3-4.9h0.1L72.5,74.5L72.5,74.5z"/>
	<path class="st2" d="M72.6,74.5l6.3-4.9v0.1L72.6,74.5L72.6,74.5z"/>
	<path class="st4" d="M72.5,74.5L72.5,74.5L72.5,74.5l0.4,12.9v0.1h-0.1l-12.7-2.2H60v-0.2l-0.3-12.8v-0.1h0.1L72.5,74.5L72.5,74.5z
		 M72.6,87.3l-0.3-12.6l-12.4-2.2l0.3,12.6L72.6,87.3"/>
</g>
<g class="st0">
	<path class="st4" d="M64.4,52.8L64.4,52.8l0.1,0.2l0.3,12.8V66h-0.1L52,63.7h-0.1v-0.1l-0.3-12.8v-0.1h0.1L64.4,52.8L64.4,52.8z
		 M64.6,65.6L64.3,53l-12.4-2.2l0.3,12.6L64.6,65.6"/>
	<path class="st7" d="M64.3,53l0.3,12.6l-12.4-2.2l-0.3-12.6L64.3,53z"/>
	<path class="st2" d="M45.7,68.5L45.7,68.5l6.3-5v0.1L45.7,68.5z"/>
	<path class="st3" d="M45.8,68.6L45.8,68.6l6.2-4.9l0,0L45.8,68.6z"/>
	<path class="st2" d="M45.7,68.4l-0.3-12.9l6.3-4.9L52,63.5L45.7,68.4z M45.4,55.5L45.4,55.5l6.3-5v0.1L45.4,55.5z"/>
	<path class="st8" d="M45.9,68.3l-0.3-12.6l6.3-4.9l0.3,12.6L45.9,68.3z"/>
	<path class="st2" d="M45.7,55.7l6.3-4.9l0.3,12.6L46,68.3L45.7,55.7z"/>
	<path class="st3" d="M45.4,55.4l6.3-4.9h0.1L45.4,55.4L45.4,55.4z M58.5,70.8l-12.7-2.2l6.3-4.9l12.7,2.2L58.5,70.8z"/>
	<path class="st9" d="M58.3,70.5l-12.4-2.2l6.3-4.9l12.4,2.2L58.3,70.5z"/>
	<path class="st3" d="M45.9,68.3l6.3-4.9l12.4,2.2l-6.3,4.9L45.9,68.3z M58.6,70.8L58.6,70.8l6.2-4.9h0.1L58.6,70.8z"/>
	<path class="st2" d="M58.6,70.7l6.3-4.9v0.1L58.6,70.7L58.6,70.7z"/>
	<path class="st7" d="M58.1,57.9l0.3,12.6L46,68.3l-0.3-12.6L58.1,57.9z"/>
	<path class="st3" d="M58.1,57.9l-12.4-2.2l6.3-4.9L64.3,53L58.1,57.9z"/>
	<path class="st9" d="M45.7,55.7l6.3-4.9L64.3,53L58,57.9L45.7,55.7z"/>
	<path class="st8" d="M58.1,57.9l6.3-4.9l0.3,12.6l-6.3,4.9L58.1,57.9z"/>
	<path class="st2" d="M58.3,70.5L58,57.9l6.3-4.9l0.3,12.6L58.3,70.5z"/>
	<path class="st3" d="M45.5,55.5l6.3-4.9l12.7,2.2l-6.3,4.9L45.5,55.5z"/>
	<path class="st2" d="M58.3,57.8l6.3-4.8l0.3,12.8l-6.3,4.9L58.3,57.8z"/>
	<path class="st3" d="M58.2,57.7l6.3-4.9h0.1L58.2,57.7L58.2,57.7z"/>
	<path class="st2" d="M58.3,57.7l6.3-4.9V53l-6.3,4.9V57.7z"/>
	<path class="st4" d="M58.2,57.7L58.2,57.7L58.2,57.7l0.4,13v0.1h-0.1l-12.7-2.2h-0.1v-0.2l-0.3-12.9v-0.1h0.1L58.2,57.7L58.2,57.7z
		 M58.3,70.5L58,57.9l-12.4-2.2l0.3,12.6L58.3,70.5"/>
</g>
<g class="st0">
	<path class="st7" d="M106.9,60.8l0.3,12.6l-12.4-2.2l-0.3-12.6L106.9,60.8z"/>
	<path class="st2" d="M88.2,76.3L88.2,76.3l6.3-5v0.1L88.2,76.3z"/>
	<path class="st3" d="M88.3,76.3L88.3,76.3l6.2-4.9h0.1L88.3,76.3z"/>
	<path class="st4" d="M107,60.5L107,60.5L107,60.5l0.4,12.9v0.1h-0.1l-12.7-2.2h-0.1v-0.1l-0.3-12.8v-0.1h0.1L107,60.5z M107.1,73.4
		l-0.3-12.6l-12.4-2.2l0.3,12.6L107.1,73.4"/>
	<path class="st2" d="M88.2,76.1l-0.3-12.8l6.3-4.9l0.3,12.9L88.2,76.1z"/>
	<path class="st2" d="M87.9,63.3L87.9,63.3l6.3-5v0.1L87.9,63.3z M88.2,63.5l6.3-4.9l0.3,12.6l-6.3,4.9L88.2,63.5z"/>
	<path class="st8" d="M88.4,76.1l-0.3-12.6l6.3-4.9l0.3,12.6L88.4,76.1z"/>
	<path class="st3" d="M87.9,63.2l6.3-4.9h0.1L87.9,63.2L87.9,63.2z M101,78.5l-12.7-2.2l6.3-4.9l12.7,2.2L101,78.5z"/>
	<path class="st9" d="M100.9,78.2L88.5,76l6.3-4.9l12.4,2.2L100.9,78.2z"/>
	<path class="st3" d="M88.4,76.1l6.3-4.9l12.4,2.2l-6.3,4.9L88.4,76.1z M101.1,78.5L101.1,78.5l6.2-4.9h0.1L101.1,78.5z"/>
	<path class="st2" d="M101.1,78.4l6.3-4.9v0.1L101.1,78.4L101.1,78.4z"/>
	<path class="st7" d="M100.6,65.7l0.3,12.6l-12.4-2.2l-0.3-12.6L100.6,65.7z"/>
	<path class="st3" d="M100.6,65.7l-12.4-2.2l6.3-4.9l12.4,2.2L100.6,65.7z"/>
	<path class="st9" d="M88.2,63.5l6.3-4.9l12.4,2.2l-6.3,4.9L88.2,63.5z"/>
	<path class="st2" d="M100.9,78.2l-0.3-12.6l6.3-4.9l0.3,12.6L100.9,78.2z"/>
	<path class="st8" d="M100.6,65.7l6.3-4.9l0.3,12.6l-6.3,4.9L100.6,65.7z"/>
	<path class="st3" d="M88.1,63.2l6.3-4.9l12.7,2.2l-6.3,4.9L88.1,63.2z"/>
	<path class="st2" d="M100.8,65.6l6.3-4.9l0.3,12.8l-6.3,4.9L100.8,65.6z"/>
	<path class="st3" d="M100.7,65.4l6.3-4.9h0.1L100.7,65.4L100.7,65.4z"/>
	<path class="st2" d="M100.8,65.4l6.3-4.9v0.1L100.8,65.4L100.8,65.4z"/>
	<path class="st4" d="M100.7,65.4L100.7,65.4L100.7,65.4l0.4,12.9v0.1H101l-12.7-2.2h-0.1v-0.1l-0.3-12.8v-0.1H88L100.7,65.4z
		 M100.9,78.2l-0.3-12.6l-12.4-2.2L88.5,76L100.9,78.2"/>
</g>
<g class="st0">
	<path class="st7" d="M92.7,58.3L93,70.9l-12.4-2.2l-0.3-12.6L92.7,58.3z"/>
	<path class="st2" d="M74,73.7L74,73.7l6.3-5v0.1L74,73.7z"/>
	<path class="st3" d="M74.1,73.8L74.1,73.8l6.2-4.9h0.1L74.1,73.8z"/>
	<path class="st4" d="M92.8,58L92.8,58L92.8,58l0.4,13v0.1H93l-12.7-2.2h-0.1v-0.1L80,55.9v-0.1h0.1L92.8,58z M92.9,70.8l-0.3-12.6
		L80.2,56l0.3,12.6L92.9,70.8"/>
	<path class="st2" d="M74,73.6l-0.3-12.8l6.3-4.9l0.3,12.8L74,73.6z"/>
	<path class="st2" d="M73.7,60.8L73.7,60.8l6.3-5v0.1L73.7,60.8z M74,60.9l6.3-4.9l0.3,12.6l-6.3,4.9L74,60.9z"/>
	<path class="st8" d="M74.2,73.5L74,60.9l6.3-4.9l0.3,12.6L74.2,73.5z"/>
	<path class="st3" d="M73.7,60.6l6.3-4.9h0.1L73.7,60.6L73.7,60.6z M86.8,76l-12.7-2.2l6.3-4.9L93,71.1L86.8,76z"/>
	<path class="st3" d="M74.2,73.5l6.3-4.9l12.4,2.2l-6.3,4.9L74.2,73.5z"/>
	<path class="st9" d="M86.6,75.7l-12.4-2.2l6.3-4.9l12.4,2.2L86.6,75.7z"/>
	<path class="st3" d="M86.9,76L86.9,76l6.1-4.9h0.1L86.9,76z"/>
	<path class="st2" d="M86.9,75.9l6.3-4.9v0.1L86.9,75.9L86.9,75.9z"/>
	<path class="st3" d="M86.4,63.1L74,60.9l6.3-4.9l12.4,2.2L86.4,63.1z"/>
	<path class="st2" d="M86.6,75.7l-0.3-12.6l6.3-4.9l0.3,12.6L86.6,75.7z"/>
	<path class="st9" d="M74,60.9l6.3-4.9l12.4,2.2l-6.3,4.9L74,60.9z"/>
	<path class="st7" d="M86.4,63.1l0.3,12.6l-12.4-2.2L74,60.9L86.4,63.1z"/>
	<path class="st8" d="M86.4,63.1l6.3-4.9L93,70.8l-6.3,4.9L86.4,63.1z"/>
	<path class="st3" d="M73.8,60.7l6.3-4.9L92.8,58l-6.3,4.9L73.8,60.7z"/>
	<path class="st2" d="M86.6,63l6.3-4.9L93.2,71l-6.3,4.9L86.6,63z"/>
	<path class="st3" d="M86.5,62.9l6.3-4.9h0.1L86.5,62.9L86.5,62.9z"/>
	<path class="st2" d="M86.6,62.9l6.3-4.9v0.1L86.6,62.9L86.6,62.9z"/>
	<path class="st4" d="M86.5,62.9L86.5,62.9L86.5,62.9l0.4,13V76h-0.1l-12.7-2.2H74v-0.1l-0.3-12.8v-0.1h0.1L86.5,62.9z M86.6,75.7
		l-0.3-12.6L74,60.9l0.3,12.6L86.6,75.7"/>
</g>
<g class="st0">
	<path class="st1" d="M78.3,55.7l0.3,12.6l-12.4-2.2l-0.3-12.6L78.3,55.7z"/>
	<path class="st2" d="M59.7,71.1L59.7,71.1l6.3-5v0.1L59.7,71.1z"/>
	<path class="st3" d="M59.8,71.2L59.8,71.2l6.2-4.9h0.1L59.8,71.2z"/>
	<path class="st4" d="M78.5,55.4L78.5,55.4L78.5,55.4l0.4,13v0.1h-0.1l-12.7-2.2H66v-0.1l-0.3-12.8v-0.1h0.1
		C65.8,53.2,78.5,55.4,78.5,55.4z M78.6,68.2l-0.3-12.6l-12.4-2.2L66.2,66L78.6,68.2"/>
	<path class="st2" d="M59.7,71l-0.3-12.8l6.3-4.9L66,66.1L59.7,71z M59.4,58.2V58l6.3-4.9v0.1L59.4,58.2z"/>
	<path class="st2" d="M59.7,58.3l6.3-4.9L66.3,66L60,70.9L59.7,58.3z"/>
	<path class="st5" d="M59.9,70.9l-0.3-12.6l6.3-4.9L66.2,66L59.9,70.9z"/>
	<path class="st3" d="M59.4,58l6.3-4.9h0.1L59.4,58L59.4,58z M72.5,73.4l-12.7-2.2l6.3-4.9l12.7,2.2L72.5,73.4z"/>
	<path class="st3" d="M59.9,70.9l6.3-4.9l12.4,2.2l-6.3,4.9L59.9,70.9z"/>
	<path class="st6" d="M72.3,73.1l-12.4-2.2l6.3-4.9l12.4,2.2L72.3,73.1z"/>
	<path class="st3" d="M72.6,73.4L72.6,73.4l6.2-4.9h0.1L72.6,73.4z"/>
	<path class="st2" d="M72.6,73.3l6.3-4.9v0.1L72.6,73.3L72.6,73.3z"/>
	<path class="st3" d="M72.1,60.5l-12.4-2.2l6.3-4.9l12.4,2.2L72.1,60.5z"/>
	<path class="st2" d="M72.3,73.1L72,60.5l6.3-4.9l0.3,12.6L72.3,73.1z"/>
	<path class="st6" d="M59.7,58.3l6.3-4.9l12.4,2.2l-6.3,4.9L59.7,58.3z"/>
	<path class="st5" d="M72.1,60.5l6.3-4.9l0.3,12.6l-6.3,4.9L72.1,60.5z"/>
	<path class="st4" d="M72.2,60.3L72.2,60.3L72.2,60.3l0.4,13v0.1h-0.1l-12.7-2.2h-0.1V71l-0.3-12.8V58h0.1L72.2,60.3z M72.3,73.1
		L72,60.5l-12.4-2.2l0.3,12.6L72.3,73.1"/>
	<path class="st1" d="M72.1,60.5l0.3,12.6L60,70.9l-0.3-12.6L72.1,60.5z"/>
	<path class="st3" d="M59.5,58l6.3-4.9l12.7,2.2l-6.3,4.9L59.5,58z"/>
	<path class="st2" d="M72.3,60.4l6.3-4.9l0.3,12.8l-6.3,4.9L72.3,60.4z"/>
	<path class="st3" d="M72.2,60.3l6.3-4.9h0.1L72.2,60.3L72.2,60.3z"/>
	<path class="st2" d="M72.3,60.3l6.3-4.9v0.1L72.3,60.3L72.3,60.3z"/>
</g>
<g class="st0">
	<path class="st4" d="M64.3,38.6L64.3,38.6L64.3,38.6l0.4,13v0.1h-0.1l-12.7-2.2h-0.1v-0.2l-0.3-12.9v-0.1h0.1L64.3,38.6L64.3,38.6z
		 M64.5,51.4l-0.3-12.6l-12.4-2.2L52,49.2L64.5,51.4"/>
	<path class="st7" d="M64.2,38.8l0.3,12.6L52,49.2l-0.3-12.6L64.2,38.8z"/>
	<path class="st2" d="M45.5,54.3L45.5,54.3l6.3-5v0.1L45.5,54.3z"/>
	<path class="st3" d="M45.7,54.3L45.7,54.3l6.2-4.9H52L45.7,54.3z"/>
	<path class="st2" d="M45.5,54.2l-0.3-12.9l6.3-4.9l0.3,12.8L45.5,54.2z M45.3,41.3L45.3,41.3l6.3-5v0.1L45.3,41.3z"/>
	<path class="st8" d="M45.8,54.1l-0.3-12.6l6.3-4.9L52,49.2L45.8,54.1z"/>
	<path class="st2" d="M45.5,41.5l6.3-4.9L52,49.2l-6.3,4.9L45.5,41.5z"/>
	<path class="st3" d="M45.3,41.2l6.3-4.9h0.1L45.3,41.2L45.3,41.2z M58.3,56.5l-12.6-2.2l6.3-4.9l12.7,2.2L58.3,56.5z"/>
	<path class="st3" d="M45.8,54.1l6.3-4.9l12.4,2.2l-6.3,4.9L45.8,54.1z"/>
	<path class="st9" d="M58.2,56.3l-12.4-2.2l6.3-4.9l12.4,2.2L58.2,56.3z"/>
	<path class="st3" d="M58.5,56.6L58.5,56.6l6.2-4.9h0.1L58.5,56.6z"/>
	<path class="st2" d="M58.5,56.4l6.3-4.9v0.1L58.5,56.4L58.5,56.4z"/>
	<path class="st7" d="M58,43.7l0.3,12.6l-12.5-2.2l-0.3-12.6L58,43.7z"/>
	<path class="st3" d="M58,43.7l-12.5-2.2l6.3-4.9l12.4,2.2L58,43.7z"/>
	<path class="st9" d="M45.5,41.5l6.3-4.9l12.4,2.2L58,43.7L45.5,41.5z"/>
	<path class="st2" d="M58.2,56.3L58,43.7l6.3-4.9l0.3,12.6L58.2,56.3z"/>
	<path class="st8" d="M58,43.7l6.3-4.9l0.3,12.6l-6.3,4.9L58,43.7z"/>
	<path class="st3" d="M45.4,41.2l6.3-4.9l12.7,2.2l-6.3,4.9L45.4,41.2z"/>
	<path class="st2" d="M58.2,43.6l6.3-4.9l0.3,12.8l-6.3,4.9L58.2,43.6z"/>
	<path class="st3" d="M58.1,43.4l6.3-4.9h0.1l-6.3,4.9H58.1z"/>
	<path class="st2" d="M58.2,43.5l6.3-4.9v0.1L58.2,43.5L58.2,43.5z"/>
	<path class="st4" d="M58.1,43.4L58.1,43.4L58.1,43.4l0.4,12.9v0.1h-0.1l-12.6-2.2h-0.1v-0.1l-0.3-12.8v-0.1h0.1L58.1,43.4
		L58.1,43.4z M58.2,56.3L58,43.7l-12.5-2.2l0.3,12.6L58.2,56.3"/>
</g>
<g class="st0">
	<path class="st7" d="M106.8,46.5l0.3,12.6L94.6,57l-0.3-12.6L106.8,46.5z"/>
	<path class="st2" d="M88.1,62L88.1,62l6.3-5v0.1L88.1,62z"/>
	<path class="st3" d="M88.2,62L88.2,62l6.2-4.9h0.1L88.2,62z"/>
	<path class="st4" d="M106.9,46.3L106.9,46.3L106.9,46.3l0.4,12.9v0.1h-0.1l-12.7-2.2h-0.1V57l-0.3-12.8V44h0.1L106.9,46.3z
		 M107,59.1l-0.3-12.6l-12.4-2.2L94.6,57L107,59.1"/>
	<path class="st2" d="M88.1,61.9l-0.3-12.8l6.3-4.9L94.3,57L88.1,61.9z"/>
	<path class="st2" d="M87.8,49L87.8,49l6.3-5v0.1L87.8,49z M88.1,49.2l6.3-4.9L94.6,57l-6.3,4.9L88.1,49.2z"/>
	<path class="st8" d="M88.3,61.8L88,49.2l6.3-4.9L94.6,57L88.3,61.8z"/>
	<path class="st3" d="M87.8,48.9l6.3-4.9h0.1L87.8,48.9L87.8,48.9z M100.9,64.3L88.2,62l6.3-4.9l12.7,2.2L100.9,64.3z"/>
	<path class="st9" d="M100.7,64l-12.4-2.2l6.3-4.8l12.4,2.1L100.7,64z"/>
	<path class="st3" d="M88.3,61.8l6.3-4.8l12.4,2.1l-6.3,4.9L88.3,61.8z M101,64.3L101,64.3l6.2-4.9h0.1L101,64.3z"/>
	<path class="st2" d="M101,64.2l6.3-4.9v0.1L101,64.2L101,64.2z"/>
	<path class="st7" d="M100.5,51.4l0.3,12.6l-12.4-2.2l-0.3-12.6L100.5,51.4z"/>
	<path class="st3" d="M100.5,51.4l-12.4-2.2l6.3-4.9l12.4,2.2L100.5,51.4z"/>
	<path class="st9" d="M88.1,49.2l6.3-4.9l12.4,2.2l-6.3,4.9L88.1,49.2z"/>
	<path class="st2" d="M100.7,64l-0.3-12.6l6.3-4.9l0.3,12.6L100.7,64z"/>
	<path class="st8" d="M100.5,51.4l6.3-4.9l0.3,12.6l-6.3,4.9L100.5,51.4z"/>
	<path class="st3" d="M87.9,48.9l6.3-4.9l12.7,2.2l-6.3,4.9L87.9,48.9z"/>
	<path class="st2" d="M100.7,51.3l6.3-4.9l0.3,12.8l-6.3,4.9L100.7,51.3z"/>
	<path class="st3" d="M100.6,51.2l6.3-4.9h0.1L100.6,51.2L100.6,51.2z"/>
	<path class="st2" d="M100.7,51.2l6.3-4.9v0.1L100.7,51.2L100.7,51.2z"/>
	<path class="st4" d="M100.6,51.2L100.6,51.2L100.6,51.2l0.4,13v0.1h-0.1L88.2,62h-0.1v-0.1l-0.3-12.8V49h0.1L100.6,51.2L100.6,51.2
		z M100.7,64l-0.3-12.6L88,49.2l0.3,12.6L100.7,64"/>
</g>
<g class="st0">
	<path class="st4" d="M92.7,43.8L92.7,43.8L92.7,43.8l0.3,13v0.1h-0.1l-12.6-2.3h-0.1v-0.2l-0.3-12.8v-0.1H80L92.7,43.8L92.7,43.8z
		 M92.8,56.6L92.5,44l-12.4-2.2l0.3,12.6L92.8,56.6"/>
	<path class="st1" d="M92.5,44l0.3,12.6l-12.4-2.2l-0.3-12.6L92.5,44z"/>
	<path class="st2" d="M73.9,59.5L73.9,59.5l6.3-5v0.1L73.9,59.5z"/>
	<path class="st3" d="M74,59.5L74,59.5l6.2-4.9h0.1L74,59.5z"/>
	<path class="st2" d="M73.8,59.4l-0.3-12.8l6.3-4.9l0.3,12.8L73.8,59.4z M73.6,46.5L73.6,46.5l6.3-5v0.1L73.6,46.5z"/>
	<path class="st2" d="M73.8,46.7l6.3-4.9l0.3,12.6l-6.3,4.9L73.8,46.7z"/>
	<path class="st5" d="M74.1,59.3l-0.3-12.6l6.3-4.9l0.3,12.6L74.1,59.3z"/>
	<path class="st3" d="M73.6,46.4l6.3-4.9H80L73.6,46.4L73.6,46.4z M86.7,61.8L74,59.5l6.3-4.9L93,56.8L86.7,61.8z"/>
	<path class="st6" d="M86.5,61.5l-12.4-2.2l6.3-4.9l12.4,2.2L86.5,61.5z"/>
	<path class="st3" d="M74.1,59.3l6.3-4.9l12.4,2.2l-6.3,4.9L74.1,59.3z M86.8,61.8L86.8,61.8l6.2-4.9l0,0L86.8,61.8z"/>
	<path class="st2" d="M86.8,61.6l6.2-4.9v0.1l-6.3,4.9L86.8,61.6z"/>
	<path class="st3" d="M86.3,48.9l-12.4-2.2l6.3-4.9L92.5,44L86.3,48.9z"/>
	<path class="st2" d="M86.5,61.5l-0.3-12.6l6.3-4.9l0.3,12.6L86.5,61.5z"/>
	<path class="st6" d="M73.8,46.7l6.3-4.9L92.5,44l-6.3,4.9L73.8,46.7z"/>
	<path class="st5" d="M86.3,48.9l6.3-4.9l0.3,12.6l-6.3,4.9L86.3,48.9z"/>
	<path class="st4" d="M86.4,48.6L86.4,48.6L86.4,48.6l0.4,12.9v0.1h-0.1L74,59.5h-0.1v-0.1l-0.3-12.9v-0.1h0.1L86.4,48.6L86.4,48.6z
		 M86.5,61.5l-0.3-12.6l-12.4-2.2l0.3,12.6L86.5,61.5"/>
	<path class="st1" d="M86.3,48.9l0.3,12.6l-12.4-2.2l-0.3-12.6L86.3,48.9z"/>
	<path class="st3" d="M73.7,46.4l6.3-4.9l12.7,2.2l-6.3,4.9L73.7,46.4z"/>
	<path class="st2" d="M86.5,48.8l6.3-4.9L93,56.8l-6.3,4.9L86.5,48.8z"/>
	<path class="st3" d="M86.4,48.6l6.3-4.9h0.1L86.4,48.6L86.4,48.6z"/>
	<path class="st2" d="M86.5,48.7l6.3-4.9v0.1L86.5,48.7L86.5,48.7z"/>
</g>
<g class="st0">
	<path class="st7" d="M78.2,41.4L78.5,54l-12.4-2.2l-0.3-12.6L78.2,41.4z"/>
	<path class="st2" d="M59.6,56.9L59.6,56.9l6.3-5V52L59.6,56.9z"/>
	<path class="st3" d="M59.7,56.9L59.7,56.9l6.2-4.9H66L59.7,56.9z"/>
	<path class="st4" d="M78.4,41.2L78.4,41.2L78.4,41.2l0.4,13v0.1h-0.1L66,52h-0.1v-0.1l-0.3-12.8V39h0.1L78.4,41.2L78.4,41.2z
		 M78.5,54l-0.3-12.6l-12.4-2.2l0.3,12.6L78.5,54"/>
	<path class="st2" d="M59.6,56.8L59.3,44l6.3-4.9L65.9,52L59.6,56.8z"/>
	<path class="st2" d="M59.3,43.9L59.3,43.9l6.3-5V39L59.3,43.9z M59.5,44.1l6.3-4.9l0.3,12.6l-6.3,4.9L59.5,44.1z"/>
	<path class="st8" d="M59.8,56.7l-0.3-12.6l6.3-4.9l0.3,12.6L59.8,56.7z"/>
	<path class="st3" d="M59.3,43.8l6.3-4.9h0.1L59.3,43.8L59.3,43.8z M72.3,59.2L59.7,57l6.3-5l12.7,2.2L72.3,59.2z"/>
	<path class="st9" d="M72.2,58.9l-12.4-2.2l6.3-4.9L78.5,54L72.2,58.9z"/>
	<path class="st3" d="M59.8,56.7l6.3-4.9L78.5,54l-6.3,4.9L59.8,56.7z M72.5,59.2L72.5,59.2l6.2-4.9h0.1L72.5,59.2z"/>
	<path class="st2" d="M72.5,59l6.3-4.9v0.1L72.5,59L72.5,59z"/>
	<path class="st7" d="M72,46.3l0.3,12.6l-12.5-2.2l-0.3-12.6L72,46.3z"/>
	<path class="st3" d="M72,46.3l-12.5-2.2l6.3-4.9l12.4,2.2L72,46.3z"/>
	<path class="st9" d="M59.5,44.1l6.3-4.9l12.4,2.2L72,46.3L59.5,44.1z"/>
	<path class="st8" d="M72,46.3l6.3-4.9L78.5,54l-6.3,4.9L72,46.3z"/>
	<path class="st2" d="M72.2,58.9L72,46.3l6.3-4.9L78.5,54L72.2,58.9z"/>
	<path class="st3" d="M59.4,43.8l6.3-4.9l12.7,2.2L72.1,46L59.4,43.8z"/>
	<path class="st2" d="M72.2,46.2l6.3-4.9l0.3,12.9L72.5,59L72.2,46.2z"/>
	<path class="st3" d="M72.1,46l6.3-4.9h0.1L72.1,46L72.1,46z"/>
	<path class="st2" d="M72.2,46.1l6.3-4.9v0.1L72.2,46.1L72.2,46.1z"/>
	<path class="st4" d="M72.1,46L72.1,46L72.1,46l0.4,13v0.1h-0.1l-12.7-2.2h-0.1v-0.1l-0.3-12.9v-0.1h0.1L72.1,46z M72.2,58.8
		L72,46.3l-12.5-2.2l0.3,12.6L72.2,58.8"/>
</g>
<g class="st0">
	<path class="st4" d="M64.1,24.4L64.1,24.4l0.1,0.1l0.3,12.9v0.1h-0.1l-12.7-2.2h-0.1v-0.2l-0.3-12.8v-0.1h0.1L64.1,24.4z
		 M64.2,37.2l-0.3-12.6l-12.4-2.2L51.8,35L64.2,37.2"/>
	<path class="st7" d="M63.9,24.6l0.3,12.6L51.8,35l-0.3-12.6L63.9,24.6z"/>
	<path class="st2" d="M45.3,40.1L45.3,40.1l6.3-5v0.1L45.3,40.1z"/>
	<path class="st3" d="M45.4,40.1L45.4,40.1l6.2-4.9h0.1L45.4,40.1z"/>
	<path class="st2" d="M45.3,40L45,27.1l6.3-4.9L51.6,35L45.3,40z"/>
	<path class="st2" d="M45,27.1V27l6.3-4.9v0.1L45,27.1z M45.3,27.3l6.3-4.9L51.8,35l-6.3,4.9L45.3,27.3z"/>
	<path class="st8" d="M45.5,39.9l-0.3-12.6l6.3-4.9L51.8,35L45.5,39.9z"/>
	<path class="st3" d="M45,27l6.3-4.9h0.1L45,27L45,27z M58,42.4l-12.6-2.2l6.3-4.9l12.7,2.2L58,42.4z"/>
	<path class="st9" d="M57.9,42.1l-12.4-2.2l6.3-4.9l12.4,2.2L57.9,42.1z"/>
	<path class="st3" d="M45.5,39.9l6.3-4.9l12.4,2.2l-6.3,4.9L45.5,39.9z M58.2,42.4H58l6.3-4.9h0.1L58.2,42.4z"/>
	<path class="st2" d="M58.2,42.3l6.3-4.9v0.1L58.2,42.3L58.2,42.3z"/>
	<path class="st7" d="M57.7,29.5L58,42.1l-12.4-2.2l-0.3-12.6L57.7,29.5z"/>
	<path class="st3" d="M57.7,29.5l-12.4-2.2l6.3-4.9L64,24.6L57.7,29.5z"/>
	<path class="st9" d="M45.3,27.3l6.3-4.9L64,24.6l-6.3,4.9L45.3,27.3z"/>
	<path class="st2" d="M57.9,42.1l-0.3-12.6l6.3-4.9l0.3,12.6L57.9,42.1z"/>
	<path class="st8" d="M57.7,29.5l6.3-4.9l0.3,12.6L58,42.1L57.7,29.5z"/>
	<path class="st3" d="M45.1,27l6.3-4.9l12.7,2.2l-6.3,4.9L45.1,27z"/>
	<path class="st2" d="M57.9,29.4l6.3-4.9l0.3,12.8l-6.3,4.9L57.9,29.4z"/>
	<path class="st3" d="M57.8,29.3l6.3-4.9h0.1L57.8,29.3L57.8,29.3z"/>
	<path class="st2" d="M57.9,29.3l6.3-4.9v0.1l-6.3,4.9C57.9,29.4,57.9,29.3,57.9,29.3z"/>
	<path class="st4" d="M57.8,29.3L57.8,29.3l0.1,0.1l0.3,12.9v0.1H58l-12.7-2.2h-0.1V40L45,27.1V27h0.1L57.8,29.3z M57.9,42.1
		l-0.3-12.6l-12.4-2.2l0.3,12.6L57.9,42.1"/>
</g>
<g class="st0">
	<path class="st4" d="M106.6,32.1L106.6,32.1L106.6,32.1l0.4,13v0.1h-0.1L94.2,43h-0.1v-0.1L93.8,30v-0.1h0.1L106.6,32.1z
		 M106.7,44.9l-0.3-12.6L94,30.1l0.3,12.6L106.7,44.9"/>
	<path class="st7" d="M106.5,32.3l0.3,12.6l-12.4-2.2l-0.3-12.6L106.5,32.3z"/>
	<path class="st2" d="M87.8,47.8L87.8,47.8l6.3-5V43L87.8,47.8z"/>
	<path class="st3" d="M87.9,47.8L87.9,47.8l6.2-4.8h0.1L87.9,47.8z"/>
	<path class="st2" d="M87.8,47.7l-0.3-12.9l6.3-4.8l0.3,12.8L87.8,47.7z M87.5,34.8L87.5,34.8l6.3-5V30L87.5,34.8z"/>
	<path class="st2" d="M87.8,35l6.3-4.9l0.3,12.6l-6.3,4.9L87.8,35z"/>
	<path class="st8" d="M88.1,47.6L87.8,35l6.3-4.9l0.3,12.6L88.1,47.6z"/>
	<path class="st3" d="M87.5,34.7l6.3-4.9h0.1L87.5,34.7L87.5,34.7z M100.5,50.1l-12.6-2.2l6.3-4.8l12.7,2.2L100.5,50.1z"/>
	<path class="st9" d="M100.5,49.8l-12.4-2.2l6.3-4.9l12.4,2.2L100.5,49.8z"/>
	<path class="st3" d="M88.1,47.6l6.3-4.9l12.4,2.2l-6.3,4.9L88.1,47.6z M100.7,50.1L100.7,50.1l6.2-4.9h0.1L100.7,50.1z"/>
	<path class="st2" d="M100.7,50l6.3-4.9v0.1L100.7,50L100.7,50z"/>
	<path class="st7" d="M100.2,37.2l0.3,12.6l-12.4-2.2L87.8,35L100.2,37.2z"/>
	<path class="st3" d="M100.2,37.2L87.8,35l6.3-4.9l12.4,2.2L100.2,37.2z"/>
	<path class="st2" d="M100.5,49.8l-0.3-12.6l6.3-4.9l0.3,12.6L100.5,49.8z"/>
	<path class="st9" d="M87.8,35l6.3-4.9l12.4,2.2l-6.3,4.9L87.8,35z"/>
	<path class="st8" d="M100.2,37.2l6.3-4.9l0.3,12.6l-6.3,4.9L100.2,37.2z"/>
	<path class="st3" d="M87.7,34.8l6.3-4.9l12.7,2.2l-6.3,4.9L87.7,34.8z"/>
	<path class="st2" d="M100.5,37.1l6.3-4.9l0.3,12.8l-6.3,4.9L100.5,37.1z"/>
	<path class="st3" d="M100.3,37l6.3-4.9h0.1L100.3,37L100.3,37z"/>
	<path class="st2" d="M100.5,37l6.3-4.9v0.1L100.5,37L100.5,37z"/>
	<path class="st4" d="M100.3,37L100.3,37L100.3,37l0.4,13v0.1h-0.1l-12.7-2.3h-0.1v-0.1l-0.3-12.9v-0.1h0.1L100.3,37z M100.5,49.8
		l-0.3-12.6L87.8,35l0.3,12.6L100.5,49.8"/>
</g>
<g class="st0">
	<path class="st1" d="M92.3,29.8l0.3,12.6l-12.4-2.2l-0.3-12.6L92.3,29.8z"/>
	<path class="st2" d="M73.6,45.3L73.6,45.3l6.3-5v0.1L73.6,45.3z"/>
	<path class="st3" d="M73.7,45.3L73.7,45.3l6.2-4.9H80L73.7,45.3z"/>
	<path class="st4" d="M92.4,29.6L92.4,29.6l0.1,0.1l0.3,12.9v0.1h-0.1L80,40.5h-0.1v-0.1l-0.3-12.9v-0.1h0.1L92.4,29.6L92.4,29.6z
		 M92.5,42.4l-0.3-12.6l-12.4-2.2l0.3,12.6L92.5,42.4"/>
	<path class="st2" d="M73.6,45.2l-0.3-12.8l6.3-4.9l0.3,12.9L73.6,45.2z"/>
	<path class="st2" d="M73.3,32.3L73.3,32.3l6.3-5v0.1L73.3,32.3z M73.6,32.5l6.3-4.9l0.3,12.6l-6.3,4.9L73.6,32.5z"/>
	<path class="st5" d="M73.8,45.1l-0.3-12.6l6.3-4.9l0.3,12.6L73.8,45.1z"/>
	<path class="st3" d="M73.3,32.2l6.3-4.9h0.1L73.3,32.2L73.3,32.2z M86.4,47.6l-12.7-2.2l6.3-4.9l12.7,2.2L86.4,47.6z"/>
	<path class="st3" d="M73.8,45.1l6.3-4.9l12.4,2.2l-6.3,4.9L73.8,45.1z"/>
	<path class="st6" d="M86.2,47.3l-12.4-2.2l6.3-4.9l12.4,2.2L86.2,47.3z"/>
	<path class="st3" d="M86.5,47.6L86.5,47.6l6.2-4.9h0.1L86.5,47.6z"/>
	<path class="st2" d="M86.5,47.5l6.3-4.9v0.1L86.5,47.5L86.5,47.5z"/>
	<path class="st1" d="M86,34.7l0.3,12.6l-12.4-2.2l-0.3-12.6L86,34.7z"/>
	<path class="st3" d="M86,34.7l-12.4-2.2l6.3-4.9l12.4,2.2L86,34.7z"/>
	<path class="st2" d="M86.2,47.3L86,34.7l6.3-4.9l0.3,12.6L86.2,47.3z"/>
	<path class="st6" d="M73.6,32.5l6.3-4.9l12.4,2.2L86,34.7L73.6,32.5z"/>
	<path class="st5" d="M86,34.7l6.3-4.9l0.3,12.6l-6.3,4.9L86,34.7z"/>
	<path class="st3" d="M73.4,32.2l6.3-4.9l12.7,2.2l-6.3,4.9L73.4,32.2z"/>
	<path class="st2" d="M86.2,34.6l6.3-4.9l0.3,12.8l-6.3,4.9L86.2,34.6z"/>
	<path class="st3" d="M86.1,34.5l6.3-4.9h0.1L86.1,34.5L86.1,34.5z"/>
	<path class="st2" d="M86.2,34.5l6.3-4.9v0.1l-6.3,4.9V34.5z"/>
	<path class="st4" d="M86.1,34.5L86.1,34.5L86.1,34.5l0.4,12.9v0.1h-0.1l-12.7-2.2h-0.1v-0.1l-0.3-12.9v-0.2h0.1L86.1,34.5
		L86.1,34.5z M86.2,47.3L86,34.7l-12.4-2.2l0.3,12.6L86.2,47.3"/>
</g>
<g class="st0">
	<path class="st4" d="M78.1,27L78.1,27l0.1,0.1L78.5,40v0.1h-0.1l-12.7-2.3h-0.1v-0.1l-0.3-12.9v-0.1h0.1L78.1,27z M78.2,39.8
		L78,27.2L65.5,25l0.3,12.6L78.2,39.8"/>
	<path class="st1" d="M78,27.2l0.3,12.6l-12.5-2.2L65.5,25L78,27.2z"/>
	<path class="st2" d="M59.3,42.7L59.3,42.7l6.3-5v0.1L59.3,42.7z"/>
	<path class="st3" d="M59.4,42.7L59.4,42.7l6.2-4.9h0.1L59.4,42.7z"/>
	<path class="st2" d="M59.3,42.6L59,29.7l6.3-4.9l0.3,12.9L59.3,42.6z M59,29.7v-0.1l6.3-4.9v0.1L59,29.7z"/>
	<path class="st2" d="M59.3,29.9l6.3-4.9l0.3,12.6l-6.3,4.9L59.3,29.9z"/>
	<path class="st5" d="M59.5,42.5l-0.3-12.6l6.3-4.9l0.3,12.6L59.5,42.5z"/>
	<path class="st3" d="M59,29.6l6.3-4.9h0.1l-6.3,4.9H59z M72.1,45l-12.7-2.3l6.3-4.9L78.4,40L72.1,45z"/>
	<path class="st3" d="M59.5,42.5l6.3-4.9l12.4,2.2l-6.3,4.9L59.5,42.5z"/>
	<path class="st6" d="M71.9,44.7l-12.4-2.2l6.3-4.9l12.4,2.2L71.9,44.7z"/>
	<path class="st3" d="M72.2,45L72.2,45l6.2-4.9h0.1L72.2,45z"/>
	<path class="st2" d="M72.2,44.8l6.3-4.8v0.1L72.2,45V44.8z"/>
	<path class="st3" d="M71.7,32.1l-12.4-2.2l6.3-4.9L78,27.2L71.7,32.1z"/>
	<path class="st1" d="M71.7,32.1L72,44.7l-12.4-2.2l-0.3-12.6L71.7,32.1z"/>
	<path class="st6" d="M59.3,29.9l6.3-4.9L78,27.2l-6.3,4.9L59.3,29.9z"/>
	<path class="st2" d="M71.9,44.7l-0.3-12.6l6.3-4.9l0.3,12.6L71.9,44.7z"/>
	<path class="st5" d="M71.7,32.1l6.3-4.9l0.3,12.6L72,44.7L71.7,32.1z"/>
	<path class="st3" d="M59.1,29.6l6.3-4.9L78.1,27l-6.3,4.9L59.1,29.6z"/>
	<path class="st2" d="M71.9,32l6.3-4.9L78.5,40l-6.3,4.9L71.9,32z"/>
	<path class="st3" d="M71.8,31.9l6.3-4.9h0.1L71.8,31.9L71.8,31.9z"/>
	<path class="st2" d="M71.9,31.9l6.3-4.9v0.1L71.9,32V31.9z"/>
	<path class="st4" d="M71.8,31.9L71.8,31.9l0.1,0.1l0.3,12.8V45h-0.1l-12.6-2.3h-0.1v-0.1L59,29.7v-0.1h0.1L71.8,31.9z M71.9,44.7
		l-0.3-12.6l-12.4-2.2l0.3,12.6L71.9,44.7"/>
</g>
</svg>
