<svg id="Layer_1" data-name="Layer 1" xmlns="http://www.w3.org/2000/svg" xmlns:xlink="http://www.w3.org/1999/xlink" viewBox="0 0 170 100"><defs><style>.cls-1,.cls-10,.cls-5,.cls-7,.cls-8,.cls-9{fill:none;}.cls-2{fill:#fff;}.cls-3{clip-path:url(#clip-path);}.cls-4{fill:#2278b5;}.cls-5{stroke:#010101;stroke-width:0.36px;}.cls-10,.cls-5,.cls-7,.cls-8,.cls-9{stroke-linecap:square;}.cls-6{clip-path:url(#clip-path-9);}.cls-7{stroke:#2278b5;}.cls-10,.cls-7,.cls-8,.cls-9{stroke-linejoin:round;stroke-width:0.53px;}.cls-8{stroke:#f57f20;}.cls-9{stroke:#2fa148;}.cls-10{stroke:#d62a28;}.cls-11{clip-path:url(#clip-path-13);}.cls-12{fill:#f57f20;}.cls-13{fill:#2fa148;}.cls-14{fill:#010101;}.cls-15{fill:#5a89a4;}</style><clipPath id="clip-path"><rect class="cls-1" x="45" y="53.57" width="24.62" height="25.64"/></clipPath><clipPath id="clip-path-9"><rect class="cls-1" x="72.69" y="53.57" width="24.62" height="25.64"/></clipPath><clipPath id="clip-path-13"><rect class="cls-1" x="100.38" y="53.57" width="24.62" height="25.64"/></clipPath></defs><title>pandas-2</title><rect class="cls-1" width="170" height="100"/><g id="figure_1" data-name="figure 1"><g id="axes_1" data-name="axes 1"><g id="patch_2" data-name="patch 2"><path class="cls-2" d="M45,79.21H69.62V53.57H45Z"/></g><g id="patch_3" data-name="patch 3"><g class="cls-3"><path class="cls-4" d="M46.12,66.39h2.29v-9H46.12Z"/></g></g><g id="patch_4" data-name="patch 4"><g class="cls-3"><path class="cls-4" d="M49,69.81h2.29V66.39H49Z"/></g></g><g id="patch_5" data-name="patch 5"><g class="cls-3"><path class="cls-4" d="M51.86,66.39h2.29v-4.7H51.86Z"/></g></g><g id="patch_6" data-name="patch 6"><g class="cls-3"><path class="cls-4" d="M54.73,66.39H57V55.71H54.73Z"/></g></g><g id="patch_7" data-name="patch 7"><g class="cls-3"><path class="cls-4" d="M57.59,75.36h2.3v-9h-2.3Z"/></g></g><g id="patch_8" data-name="patch 8"><g class="cls-3"><path class="cls-4" d="M60.46,68.53h2.3V66.39h-2.3Z"/></g></g><g id="patch_9" data-name="patch 9"><g class="cls-3"><path class="cls-4" d="M63.33,74.94h2.3V66.39h-2.3Z"/></g></g><g id="patch_10" data-name="patch 10"><g class="cls-3"><path class="cls-4" d="M66.2,66.39h2.3V60H66.2Z"/></g></g><g id="patch_11" data-name="patch 11"><path class="cls-5" d="M45,79.21V53.57"/></g><g id="patch_12" data-name="patch 12"><path class="cls-5" d="M69.62,79.21V53.57"/></g><g id="patch_13" data-name="patch 13"><path class="cls-5" d="M45,79.21H69.62"/></g><g id="patch_14" data-name="patch 14"><path class="cls-5" d="M45,53.57H69.62"/></g></g><g id="axes_2" data-name="axes 2"><g id="patch_15" data-name="patch 15"><path class="cls-2" d="M72.69,79.21H97.31V53.57H72.69Z"/></g><g id="line2d_1" data-name="line2d 1"><g class="cls-6"><path class="cls-7" d="M73.81,60.43l3.2-5.7L80.2,78l3.2-1.32,3.2.52,3.2-19,3.19,12,3.2,1.9"/></g></g><g id="line2d_2" data-name="line2d 2"><g class="cls-6"><path class="cls-8" d="M73.81,72.3,77,73.47l3.19,2.82,3.2-9.87,3.2,2.66,3.2,5.8L93,57.74l3.2,4.51"/></g></g><g id="line2d_3" data-name="line2d 3"><g class="cls-6"><path class="cls-9" d="M73.81,72.1,77,69.36,80.2,75.5l3.2-16.12L86.6,71.6l3.2-15.71,3.19,1,3.2-.91"/></g></g><g id="line2d_4" data-name="line2d 4"><g class="cls-6"><path class="cls-10" d="M73.81,59.15l3.2,0L80.2,69.72l3.2-11.26,3.2,7.26,3.2,4.87L93,63.31l3.2-5"/></g></g><g id="patch_16" data-name="patch 16"><path class="cls-5" d="M72.69,79.21V53.57"/></g><g id="patch_17" data-name="patch 17"><path class="cls-5" d="M97.31,79.21V53.57"/></g><g id="patch_18" data-name="patch 18"><path class="cls-5" d="M72.69,79.21H97.31"/></g><g id="patch_19" data-name="patch 19"><path class="cls-5" d="M72.69,53.57H97.31"/></g></g><g id="axes_3" data-name="axes 3"><g id="patch_20" data-name="patch 20"><path class="cls-2" d="M100.38,79.21H125V53.57H100.38Z"/></g><g id="PolyCollection_1" data-name="PolyCollection 1"><g class="cls-11"><path id="m81de97919c" class="cls-4" d="M101.5,71.2v8h22.38V74.52h0L121.39,72l-2.48,5.08-2.49-3.71-2.48,2.15L111.45,72,109,73.54l-2.48-3.9L104,76.08Z"/></g></g><g id="PolyCollection_2" data-name="PolyCollection 2"><g class="cls-11"><path id="maaf380e772" class="cls-12" d="M101.5,62.21v9L104,76.08l2.49-6.44,2.48,3.9L111.45,72l2.49,3.52,2.48-2.15,2.49,3.71L121.39,72l2.49,2.54V67.68h0l-2.49-1.17-2.48,2.74L116.42,71l-2.48-.2-2.49-5.28L109,69.05l-2.48-1.37L104,70Z"/></g></g><g id="PolyCollection_3" data-name="PolyCollection 3"><g class="cls-11"><path id="m31c02dcfcb" class="cls-13" d="M101.5,54.79v7.42L104,70l2.49-2.35L109,69.05l2.49-3.52,2.49,5.28,2.48.2,2.49-1.76,2.48-2.74,2.49,1.17V61.43h0l-2.49-2-2.48,5.27-2.49,3.13-2.48.59-2.49-4.11-2.49.39-2.48-2.93-2.49.59Z"/></g></g><g id="patch_21" data-name="patch 21"><path class="cls-5" d="M100.38,79.21V53.57"/></g><g id="patch_22" data-name="patch 22"><path class="cls-5" d="M125,79.21V53.57"/></g><g id="patch_23" data-name="patch 23"><path class="cls-5" d="M100.38,79.21H125"/></g><g id="patch_24" data-name="patch 24"><path class="cls-5" d="M100.38,53.57H125"/></g></g><g id="text_1" data-name="text 1"><path id="DejaVuSans-70" class="cls-14" d="M53.61,33.89v5.6H51.86V24.9h1.75v1.61A3.57,3.57,0,0,1,55,25.11a4,4,0,0,1,2-.46,3.78,3.78,0,0,1,3.12,1.53,6.27,6.27,0,0,1,1.21,4,6.27,6.27,0,0,1-1.21,4A3.77,3.77,0,0,1,57,35.74a4.16,4.16,0,0,1-2-.45,3.71,3.71,0,0,1-1.38-1.4m5.91-3.69a5.1,5.1,0,0,0-.79-3,2.56,2.56,0,0,0-2.17-1.09,2.52,2.52,0,0,0-2.16,1.09,5,5,0,0,0-.79,3,5,5,0,0,0,.79,3,2.5,2.5,0,0,0,2.16,1.09,2.53,2.53,0,0,0,2.17-1.09,5.09,5.09,0,0,0,.79-3"/><path id="DejaVuSans-61" class="cls-14" d="M69,30.16a6.21,6.21,0,0,0-2.92.48,1.75,1.75,0,0,0-.81,1.64,1.85,1.85,0,0,0,.61,1.47,2.39,2.39,0,0,0,1.65.54,2.89,2.89,0,0,0,2.32-1,4.07,4.07,0,0,0,.87-2.72v-.39Zm3.46-.72v6H70.72v-1.6a3.79,3.79,0,0,1-1.48,1.42,4.74,4.74,0,0,1-2.17.45,3.58,3.58,0,0,1-2.58-.91,3.19,3.19,0,0,1-1-2.44,3.17,3.17,0,0,1,1.19-2.68,5.84,5.84,0,0,1,3.57-.91h2.43v-.17a2.27,2.27,0,0,0-.78-1.85,3.38,3.38,0,0,0-2.22-.66,6.9,6.9,0,0,0-1.76.22,6.67,6.67,0,0,0-1.65.65V25.38a12.83,12.83,0,0,1,1.85-.55,8.72,8.72,0,0,1,1.74-.18,4.55,4.55,0,0,1,3.43,1.19,5.06,5.06,0,0,1,1.13,3.6"/><path id="DejaVuSans-6e" class="cls-14" d="M84.82,29.09v6.38H83.08V29.15a3.57,3.57,0,0,0-.58-2.24,2.1,2.1,0,0,0-1.76-.75,2.84,2.84,0,0,0-2.22.9,3.49,3.49,0,0,0-.81,2.44v6H76V24.9h1.74v1.65a4.34,4.34,0,0,1,1.47-1.43,4,4,0,0,1,1.95-.47,3.37,3.37,0,0,1,2.75,1.13,5,5,0,0,1,.94,3.31"/><path id="DejaVuSans-64" class="cls-14" d="M95.23,26.51V20.79H97V35.47H95.23V33.89a3.71,3.71,0,0,1-1.38,1.4,4.2,4.2,0,0,1-2,.45,3.8,3.8,0,0,1-3.12-1.52,6.33,6.33,0,0,1-1.2-4,6.33,6.33,0,0,1,1.2-4,3.81,3.81,0,0,1,3.12-1.53,4.09,4.09,0,0,1,2,.46,3.57,3.57,0,0,1,1.38,1.4M89.32,30.2a5.09,5.09,0,0,0,.78,3,2.71,2.71,0,0,0,4.34,0,5,5,0,0,0,.79-3,5,5,0,0,0-.79-3,2.71,2.71,0,0,0-4.34,0,5.1,5.1,0,0,0-.78,3"/><path class="cls-14" d="M105.34,30.16a6.19,6.19,0,0,0-2.91.48,1.75,1.75,0,0,0-.81,1.64,1.85,1.85,0,0,0,.61,1.47,2.38,2.38,0,0,0,1.65.54,2.91,2.91,0,0,0,2.32-1,4.07,4.07,0,0,0,.87-2.72v-.39Zm3.47-.72v6h-1.74v-1.6a3.86,3.86,0,0,1-1.48,1.42,4.77,4.77,0,0,1-2.17.45,3.58,3.58,0,0,1-2.58-.91,3.19,3.19,0,0,1-1-2.44,3.17,3.17,0,0,1,1.19-2.68,5.82,5.82,0,0,1,3.56-.91h2.44v-.17a2.25,2.25,0,0,0-.79-1.85,3.33,3.33,0,0,0-2.21-.66,7,7,0,0,0-1.77.22,6.6,6.6,0,0,0-1.64.65V25.38a13.1,13.1,0,0,1,1.84-.55,8.89,8.89,0,0,1,1.75-.18,4.51,4.51,0,0,1,3.42,1.19,5,5,0,0,1,1.14,3.6"/><path id="DejaVuSans-73" class="cls-14" d="M119.12,25.22v1.64a7.05,7.05,0,0,0-1.53-.57A7.43,7.43,0,0,0,116,26.1a3.7,3.7,0,0,0-1.94.4,1.3,1.3,0,0,0-.65,1.19,1.14,1.14,0,0,0,.46.95,5.56,5.56,0,0,0,1.86.65l.6.13a5.69,5.69,0,0,1,2.62,1.12,2.6,2.6,0,0,1,.78,2,2.77,2.77,0,0,1-1.16,2.34,5.34,5.34,0,0,1-3.21.85,9.93,9.93,0,0,1-1.76-.16,14.62,14.62,0,0,1-1.94-.5V33.29a9.17,9.17,0,0,0,1.89.75,7,7,0,0,0,1.85.25,3.53,3.53,0,0,0,1.89-.42,1.43,1.43,0,0,0,.18-2.27,5.73,5.73,0,0,0-2.09-.72l-.6-.15a4.6,4.6,0,0,1-2.33-1,2.57,2.57,0,0,1-.72-1.93,2.75,2.75,0,0,1,1.06-2.3,4.83,4.83,0,0,1,3-.81,11.56,11.56,0,0,1,1.81.14,8,8,0,0,1,1.57.43"/></g><g id="text_2" data-name="text 2"><path id="Cmmi10-79" class="cls-15" d="M50.76,49.57a.59.59,0,0,0,.56.28.9.9,0,0,0,.64-.26,1.86,1.86,0,0,0,.43-.62,5,5,0,0,0,.26-.74,1.1,1.1,0,0,1-.75.32,1.18,1.18,0,0,1-.52-.1.78.78,0,0,1-.33-.32,1,1,0,0,1-.12-.51,1.79,1.79,0,0,1,.07-.51,5.05,5.05,0,0,1,.19-.6l.21-.57a1.32,1.32,0,0,0,.1-.46c0-.15,0-.23-.17-.23a.57.57,0,0,0-.5.31,2.36,2.36,0,0,0-.29.71.08.08,0,0,1-.07,0h-.09s-.06,0-.06-.07v0a2.42,2.42,0,0,1,.38-.81.77.77,0,0,1,.65-.36.63.63,0,0,1,.46.18.6.6,0,0,1,.19.46.8.8,0,0,1-.06.3c0,.07-.07.2-.15.41a5.19,5.19,0,0,0-.19.53c0,.14-.08.27-.11.41a2.58,2.58,0,0,0,0,.4.83.83,0,0,0,.11.43.39.39,0,0,0,.35.18,1.06,1.06,0,0,0,.86-.59l.59-2.38a.27.27,0,0,1,.11-.17.37.37,0,0,1,.21-.08.23.23,0,0,1,.16.06.2.2,0,0,1,.07.16v.06l-.77,3.08a2.32,2.32,0,0,1-.37.76,2.28,2.28,0,0,1-.66.58,1.53,1.53,0,0,1-.8.22,1.09,1.09,0,0,1-.39-.08.75.75,0,0,1-.32-.23.56.56,0,0,1-.12-.36A.59.59,0,0,1,50.6,49a.43.43,0,0,1,.34-.15.31.31,0,0,1,.21.07.3.3,0,0,1,.08.21.43.43,0,0,1-.13.31.46.46,0,0,1-.31.13h0"/><path id="Cmmi10-69" class="cls-15" d="M54.32,49.39a.52.52,0,0,1,0-.21L54.8,48a.93.93,0,0,0,.07-.32c0-.11,0-.16-.12-.16a.4.4,0,0,0-.35.22,1.63,1.63,0,0,0-.2.49.07.07,0,0,1-.05,0h-.06a0,0,0,0,1-.05-.05v0a1.67,1.67,0,0,1,.27-.57.53.53,0,0,1,.45-.25.44.44,0,0,1,.33.13.41.41,0,0,1,.13.32.59.59,0,0,1,0,.21l-.44,1.16a.85.85,0,0,0-.07.33c0,.1,0,.16.12.16a.41.41,0,0,0,.35-.23,1.41,1.41,0,0,0,.2-.49s0,0,0,0h.07l0,0V49a1.66,1.66,0,0,1-.25.56.57.57,0,0,1-.46.26.44.44,0,0,1-.33-.13.46.46,0,0,1-.13-.32m.61-2.89a.29.29,0,0,1,.1-.21.28.28,0,0,1,.2-.09.21.21,0,0,1,.16.06.2.2,0,0,1,.06.14.33.33,0,0,1-.31.31.21.21,0,0,1-.21-.21"/><path id="Cmmi10-74" class="cls-15" d="M56.1,49.34a.76.76,0,0,1,0-.15l.39-1.55h-.57s0,0,0-.07,0-.12.07-.12h.6l.22-.89a.28.28,0,0,1,.08-.12.24.24,0,0,1,.14,0,.21.21,0,0,1,.12,0,.15.15,0,0,1,0,.11v.05l-.22.86h.56s.06,0,.06.07v0l0,.06a.05.05,0,0,1,0,0h-.58L56.5,49.2a.92.92,0,0,0,0,.26c0,.16,0,.24.16.24a.56.56,0,0,0,.42-.23,1.69,1.69,0,0,0,.28-.49.05.05,0,0,1,0,0h.07l0,0a0,0,0,0,1,0,0v0a1.75,1.75,0,0,1-.35.57.67.67,0,0,1-.52.25.52.52,0,0,1-.36-.14.45.45,0,0,1-.14-.36"/><path id="Cmr10-3d" class="cls-15" d="M60.14,47.44a.12.12,0,0,1-.1,0,.15.15,0,0,1,0-.11.12.12,0,0,1,0-.1.1.1,0,0,1,.1,0H65a.1.1,0,0,1,.09,0,.12.12,0,0,1,0,.1.16.16,0,0,1,0,.11.12.12,0,0,1-.09,0Zm0-1.5a.12.12,0,0,1-.1,0,.15.15,0,0,1,0-.11.13.13,0,0,1,0-.1.1.1,0,0,1,.1,0H65a.1.1,0,0,1,.09,0,.14.14,0,0,1,0,.1.16.16,0,0,1,0,.11.12.12,0,0,1-.09,0Z"/><path id="Cmmi10-af" class="cls-15" d="M67.13,50l0,0,0,0,1.19-4.78a3.46,3.46,0,0,1,.3-.75,3.11,3.11,0,0,1,.49-.67,2.32,2.32,0,0,1,.65-.49,1.66,1.66,0,0,1,.75-.18,1.08,1.08,0,0,1,.52.12.92.92,0,0,1,.37.36,1,1,0,0,1,.13.51,1.35,1.35,0,0,1-.1.53,1.7,1.7,0,0,1-.3.47,1.86,1.86,0,0,1-.4.35.83.83,0,0,1,.22.2,1,1,0,0,1,.16.26,2.11,2.11,0,0,1,.1.3,1.69,1.69,0,0,1,0,.3,1.92,1.92,0,0,1-.17.78,2.5,2.5,0,0,1-.46.7,2.3,2.3,0,0,1-.67.5,1.81,1.81,0,0,1-.78.18,1.33,1.33,0,0,1-.78-.24,1.19,1.19,0,0,1-.48-.64l-.56,2.22s0,0-.06,0Zm2-1.59a1,1,0,0,0,.63-.23,1.86,1.86,0,0,0,.46-.57,3.32,3.32,0,0,0,.38-1.44.85.85,0,0,0-.23-.62,1.41,1.41,0,0,1-.52.1c-.4,0-.61-.07-.61-.21s.23-.27.7-.27a1.34,1.34,0,0,1,.46.08,1.1,1.1,0,0,0,.3-.38,1.93,1.93,0,0,0,.2-.52A1.89,1.89,0,0,0,71,43.8a.68.68,0,0,0-.13-.42.47.47,0,0,0-.39-.16,1.45,1.45,0,0,0-.88.29,2.38,2.38,0,0,0-.68.73,3.16,3.16,0,0,0-.4.91l-.43,1.71a2.43,2.43,0,0,0,0,.4,1.09,1.09,0,0,0,.31.8,1.11,1.11,0,0,0,.81.31m.35-3a1.62,1.62,0,0,0,.38,0,.84.84,0,0,0,.27,0h0a.47.47,0,0,0-.17,0,1.29,1.29,0,0,0-.44,0"/><path id="Cmsy10-30" class="cls-15" d="M72.39,45.21s0,0,0-.05L73,42.7a.36.36,0,0,1,.11-.16.27.27,0,0,1,.17-.06.29.29,0,0,1,.22.09.24.24,0,0,1,.1.21.35.35,0,0,1,0,.12l-1,2.34s0,0-.06,0l-.09,0-.08,0"/><path id="Cmmi10-78" class="cls-15" d="M74.79,48.24a.61.61,0,0,0,.38.11.57.57,0,0,0,.43-.23,1.35,1.35,0,0,0,.25-.51l.35-1.37a2.43,2.43,0,0,0,.08-.51.57.57,0,0,0-.1-.34.36.36,0,0,0-.3-.14.77.77,0,0,0-.46.15,1.26,1.26,0,0,0-.37.39,2,2,0,0,0-.2.48.06.06,0,0,1-.06,0h-.1s-.06,0-.06-.07v0a2,2,0,0,1,.26-.56,1.54,1.54,0,0,1,.44-.44,1,1,0,0,1,.56-.17.9.9,0,0,1,.51.15.83.83,0,0,1,.33.41,1.29,1.29,0,0,1,.33-.4.71.71,0,0,1,.45-.16,1,1,0,0,1,.34.06.71.71,0,0,1,.29.18.44.44,0,0,1,.11.3.53.53,0,0,1-.13.34.42.42,0,0,1-.32.14.32.32,0,0,1-.21-.08.24.24,0,0,1-.08-.2.45.45,0,0,1,.37-.43.61.61,0,0,0-.38-.11.54.54,0,0,0-.43.23,1.37,1.37,0,0,0-.26.51l-.34,1.37a1.87,1.87,0,0,0-.08.51.51.51,0,0,0,.11.34.36.36,0,0,0,.29.14.85.85,0,0,0,.65-.32,1.61,1.61,0,0,0,.38-.7.06.06,0,0,1,.06,0H78l0,0s0,0,0,.05v0a1.65,1.65,0,0,1-.46.82,1.08,1.08,0,0,1-.79.36.9.9,0,0,1-.51-.15.89.89,0,0,1-.33-.41,1.23,1.23,0,0,1-.33.39.67.67,0,0,1-.45.17,1.12,1.12,0,0,1-.35-.06.68.68,0,0,1-.28-.18.44.44,0,0,1-.11-.3.48.48,0,0,1,.13-.33.39.39,0,0,1,.31-.15.29.29,0,0,1,.22.08.23.23,0,0,1,.08.2.4.4,0,0,1-.1.28.52.52,0,0,1-.27.15"/><path class="cls-15" d="M79,49.39a.52.52,0,0,1,0-.21L79.5,48a1.24,1.24,0,0,0,.07-.32c0-.11,0-.16-.12-.16a.4.4,0,0,0-.35.22,1.65,1.65,0,0,0-.21.49,0,0,0,0,1,0,0h-.07s0,0,0-.05v0a1.67,1.67,0,0,1,.27-.57.53.53,0,0,1,.45-.25.44.44,0,0,1,.33.13.41.41,0,0,1,.13.32.59.59,0,0,1,0,.21l-.44,1.16a.88.88,0,0,0-.08.33c0,.1,0,.16.13.16a.42.42,0,0,0,.35-.23A1.63,1.63,0,0,0,80,49s0,0,0,0h.07l0,0a0,0,0,0,1,0,0v0a1.68,1.68,0,0,1-.26.56.54.54,0,0,1-.45.26.44.44,0,0,1-.33-.13.42.42,0,0,1-.13-.32m.61-2.89a.32.32,0,0,1,.09-.21.3.3,0,0,1,.21-.09.2.2,0,0,1,.15.06.2.2,0,0,1,.06.14.31.31,0,0,1-.09.22.33.33,0,0,1-.22.09.18.18,0,0,1-.14-.06.2.2,0,0,1-.06-.15"/><path class="cls-15" d="M80.79,49.34a.77.77,0,0,1,0-.15l.39-1.55h-.57s0,0,0-.07,0-.12.07-.12h.6l.21-.89a.47.47,0,0,1,.09-.12.24.24,0,0,1,.14,0,.18.18,0,0,1,.11,0,.13.13,0,0,1,0,.11v.05l-.22.86h.56s0,0,0,.07v0a.14.14,0,0,1,0,.06.05.05,0,0,1,0,0h-.59l-.39,1.56a1.51,1.51,0,0,0,0,.26c0,.16.06.24.16.24a.53.53,0,0,0,.42-.23A1.33,1.33,0,0,0,82,49s0,0,0,0h.06l0,0a0,0,0,0,1,0,0v0a1.75,1.75,0,0,1-.35.57.68.68,0,0,1-.52.25.52.52,0,0,1-.36-.14.46.46,0,0,1-.15-.36"/><path id="Cmr10-2b" class="cls-15" d="M84.84,46.69a.16.16,0,0,1-.11,0,.21.21,0,0,1,0-.11.18.18,0,0,1,0-.1.13.13,0,0,1,.11,0h2.27V44.1a.14.14,0,0,1,0-.1.14.14,0,0,1,.11,0,.14.14,0,0,1,.1,0,.14.14,0,0,1,0,.1v2.28h2.27a.11.11,0,0,1,.1,0,.13.13,0,0,1,0,.1.15.15,0,0,1,0,.11.14.14,0,0,1-.1,0H87.42V49a.14.14,0,0,1,0,.1.21.21,0,0,1-.1,0,.18.18,0,0,1-.11,0,.14.14,0,0,1,0-.1V46.69Z"/><path id="Cmmi10-b9" class="cls-15" d="M91.83,49.92a.35.35,0,0,1,0-.06L93,45.3a.29.29,0,0,1,.12-.18.31.31,0,0,1,.2-.07.25.25,0,0,1,.17.06.21.21,0,0,1,.07.15s0,0,0,0v0l-.46,1.81a2.43,2.43,0,0,0-.07.55.77.77,0,0,0,.13.47.47.47,0,0,0,.41.19,1.2,1.2,0,0,0,1-.7h0v0l.56-2.24a.28.28,0,0,1,.12-.17.32.32,0,0,1,.2-.08.23.23,0,0,1,.16.06.2.2,0,0,1,.07.16s0,0,0,.06l-.55,2.23A1.42,1.42,0,0,0,95,48c0,.22.08.33.23.33s.28-.1.36-.3a3.62,3.62,0,0,0,.22-.72.06.06,0,0,1,.06,0H96a.05.05,0,0,1,.05,0s0,0,0,0a5.17,5.17,0,0,1-.29.87.55.55,0,0,1-.53.32.72.72,0,0,1-.45-.15.67.67,0,0,1-.26-.39,1.67,1.67,0,0,1-.45.39,1,1,0,0,1-.54.15,1.1,1.1,0,0,1-.76-.23l-.4,1.57a.25.25,0,0,1-.11.17.31.31,0,0,1-.2.07.25.25,0,0,1-.17-.06.21.21,0,0,1-.07-.15"/><path class="cls-15" d="M96.69,49.39a.54.54,0,0,1,0-.21L97.17,48a1,1,0,0,0,.08-.32c0-.11,0-.16-.12-.16a.41.41,0,0,0-.36.22,1.63,1.63,0,0,0-.2.49s0,0,0,0h-.06s0,0,0-.05v0a1.49,1.49,0,0,1,.26-.57.53.53,0,0,1,.46-.25.42.42,0,0,1,.32.13.42.42,0,0,1,.14.32.63.63,0,0,1,0,.21l-.44,1.16a.85.85,0,0,0-.07.33c0,.1,0,.16.12.16a.44.44,0,0,0,.36-.23,1.63,1.63,0,0,0,.2-.49s0,0,0,0h.06a.05.05,0,0,1,0,0,0,0,0,0,1,0,0v0a1.68,1.68,0,0,1-.26.56.56.56,0,0,1-.46.26.44.44,0,0,1-.32-.13.43.43,0,0,1-.14-.32m.61-2.89a.34.34,0,0,1,.1-.21.29.29,0,0,1,.21-.09.2.2,0,0,1,.15.06.2.2,0,0,1,.06.14.28.28,0,0,1-.1.22.29.29,0,0,1-.21.09.21.21,0,0,1-.21-.21"/><path class="cls-15" d="M100.56,46.69a.14.14,0,0,1-.1,0,.15.15,0,0,1,0-.11.13.13,0,0,1,0-.1.11.11,0,0,1,.1,0h2.28V44.1a.13.13,0,0,1,0-.1.15.15,0,0,1,.11,0,.17.17,0,0,1,.11,0,.14.14,0,0,1,.05.1v2.28h2.27a.1.1,0,0,1,.09,0,.14.14,0,0,1,0,.1.16.16,0,0,1,0,.11.12.12,0,0,1-.09,0h-2.27V49a.14.14,0,0,1-.05.1.25.25,0,0,1-.11,0,.21.21,0,0,1-.11,0,.13.13,0,0,1,0-.1V46.69Z"/><path id="Cmmi10-b2" class="cls-15" d="M108.3,47.37a1.3,1.3,0,0,0,.09.49.81.81,0,0,0,.28.35.77.77,0,0,0,.45.14,1,1,0,0,0,.37-.08l.37-.16L110,48a.06.06,0,0,1,.06,0,.19.19,0,0,1,0,.1.05.05,0,0,1,0,.05,1.64,1.64,0,0,1-1,.34,1.4,1.4,0,0,1-.73-.19,1.3,1.3,0,0,1-.51-.53,1.56,1.56,0,0,1-.18-.74,2,2,0,0,1,.16-.76,2,2,0,0,1,.45-.63,2.13,2.13,0,0,1,.65-.42,2,2,0,0,1,.76-.15h.44c.08,0,.11,0,.11.12a.15.15,0,0,1,0,.11.13.13,0,0,1-.1,0h-.43a1.19,1.19,0,0,0-.56.14,1.37,1.37,0,0,0-.42.38,1.86,1.86,0,0,0-.26.55h1.37a.1.1,0,0,1,.11.11.15.15,0,0,1,0,.11.13.13,0,0,1-.1,0h-1.41a3,3,0,0,0-.08.64"/><path class="cls-15" d="M110.89,49.39a.54.54,0,0,1,0-.21l.44-1.17a1.24,1.24,0,0,0,.07-.32c0-.11,0-.16-.12-.16a.41.41,0,0,0-.36.22,1.63,1.63,0,0,0-.2.49s0,0,0,0h-.07s0,0,0-.05v0a1.66,1.66,0,0,1,.26-.57.55.55,0,0,1,.46-.25.41.41,0,0,1,.32.13.42.42,0,0,1,.14.32.63.63,0,0,1,0,.21l-.44,1.16a.85.85,0,0,0-.07.33c0,.1,0,.16.12.16a.42.42,0,0,0,.36-.23,1.63,1.63,0,0,0,.2-.49s0,0,0,0H112l0,0a0,0,0,0,1,0,0v0a1.68,1.68,0,0,1-.26.56.54.54,0,0,1-.46.26.44.44,0,0,1-.32-.13.43.43,0,0,1-.14-.32m.61-2.89a.34.34,0,0,1,.1-.21.29.29,0,0,1,.21-.09.2.2,0,0,1,.15.06.2.2,0,0,1,.06.14.28.28,0,0,1-.1.22.29.29,0,0,1-.21.09.21.21,0,0,1-.21-.21"/><path class="cls-15" d="M112.67,49.34a.39.39,0,0,1,0-.15l.39-1.55h-.57s-.06,0-.06-.07,0-.12.07-.12h.6l.22-.89a.24.24,0,0,1,.09-.12.22.22,0,0,1,.14,0,.21.21,0,0,1,.11,0,.16.16,0,0,1,0,.11v.05l-.21.86h.55s.06,0,.06.07v0s0,0,0,.06l0,0h-.59l-.39,1.56a.92.92,0,0,0,0,.26c0,.16,0,.24.16.24a.53.53,0,0,0,.42-.23,1.49,1.49,0,0,0,.28-.49l0,0H114l0,0,0,0v0a1.73,1.73,0,0,1-.34.57.68.68,0,0,1-.52.25.49.49,0,0,1-.36-.14.46.46,0,0,1-.15-.36"/></g></g></svg>