<?xml version="1.0" encoding="utf-8"?>
<!-- Generator: Adobe Illustrator 23.0.1, SVG Export Plug-In . SVG Version: 6.00 Build 0)  -->
<svg version="1.1" id="Layer_1" xmlns="http://www.w3.org/2000/svg" xmlns:xlink="http://www.w3.org/1999/xlink" x="0px" y="0px"
	 viewBox="0 0 170 100" style="enable-background:new 0 0 170 100;" xml:space="preserve">
<style type="text/css">
	.st0{fill:#336791;}
	.st1{fill:#FFFFFF;}
</style>
<path d="M124.7,58.2c-0.5-1.5-1.7-2.5-3.4-2.7c-0.8-0.1-1.6-0.1-2.7,0.1c-1.8,0.4-3.2,0.5-4.1,0.5c3.7-6.3,6.7-13.4,8.5-20.1
	c2.8-10.9,1.3-15.8-0.4-18.1c-4.6-5.9-11.4-9.1-19.6-9.2c-4.4-0.1-8.2,0.8-10.2,1.4c-1.9-0.3-3.9-0.5-5.9-0.5
	c-3.9-0.1-7.4,0.8-10.4,2.6c-1.6-0.6-4.3-1.3-7.3-1.8C62,9.2,56.2,10.1,52,13.1c-5.1,3.6-7.5,9.9-7,18.6c0.1,2.8,1.7,11.2,4.1,19.3
	c1.4,4.6,2.9,8.4,4.5,11.4c2.2,4.2,4.6,6.6,7.2,7.5c1.5,0.5,4.2,0.8,7-1.5c0.4,0.4,0.8,0.9,1.5,1.3c0.8,0.5,1.8,0.9,2.8,1.2
	c3.6,0.9,6.9,0.7,9.7-0.6c0,0.5,0,1,0,1.4c0,0.7,0,1.3,0.1,2c0.2,4.2,0.5,7.4,1.3,9.7c0,0.1,0.1,0.3,0.2,0.5
	c0.4,1.3,1.1,3.4,2.9,5.1c1.9,1.8,4.1,2.3,6.2,2.3c1,0,2-0.1,2.9-0.3c3.1-0.7,6.6-1.7,9.1-5.3c2.4-3.4,3.6-8.5,3.8-16.6
	c0-0.2,0.1-0.4,0.1-0.7l0.1-0.4l0.6,0l0.1,0c3.1,0.1,7-0.5,9.3-1.6C120.1,65.6,126.1,62.4,124.7,58.2"/>
<path class="st0" d="M119.3,59c-9.3,1.9-10-1.2-10-1.2c9.8-14.6,13.9-33.1,10.4-37.7c-9.7-12.4-26.4-6.5-26.7-6.4l-0.1,0
	c-1.8-0.4-3.9-0.6-6.2-0.6c-4.2-0.1-7.4,1.1-9.8,2.9c0,0-29.9-12.3-28.5,15.5c0.3,5.9,8.5,44.8,18.2,33c3.6-4.3,7-7.9,7-7.9
	c1.7,1.1,3.8,1.7,5.9,1.5l0.2-0.1c-0.1,0.5,0,1.1,0.1,1.7C77.3,62.5,78,63,73,64c-5.1,1-2.1,2.9-0.1,3.4c2.4,0.6,7.8,1.4,11.5-3.7
	l-0.1,0.6c1,0.8,1.7,5.1,1.6,9.1c-0.1,3.9-0.2,6.6,0.6,8.8c0.8,2.1,1.5,6.9,8.2,5.4c5.5-1.2,8.4-4.2,8.8-9.4c0.3-3.6,0.9-3.1,1-6.3
	l0.5-1.5c0.6-4.9,0.1-6.5,3.5-5.8l0.8,0.1c2.5,0.1,5.8-0.4,7.7-1.3C121,61.4,123.4,58.2,119.3,59L119.3,59"/>
<path class="st1" d="M78.7,34.2c-0.8-0.1-1.6,0-2,0.3c-0.2,0.2-0.3,0.4-0.3,0.5c0,0.3,0.2,0.7,0.3,0.9c0.4,0.6,1,0.9,1.6,1
	c0.1,0,0.2,0,0.3,0c1,0,1.9-0.8,2-1.4C80.8,34.8,79.7,34.3,78.7,34.2 M106.5,34.2c-0.1-0.6-1.1-0.7-2.1-0.6c-1,0.1-1.9,0.6-1.8,1.1
	c0.1,0.4,0.9,1.2,1.8,1.2c0.1,0,0.2,0,0.2,0c0.6-0.1,1.1-0.5,1.3-0.7C106.3,34.9,106.5,34.5,106.5,34.2"/>
<path class="st1" d="M122.4,58.8c-0.4-1.1-1.5-1.4-3.4-1c-5.6,1.2-7.7,0.4-8.3-0.1c4.4-6.7,8-14.8,9.9-22.3c0.9-3.6,1.4-6.9,1.5-9.6
	c0-3-0.5-5.1-1.5-6.5c-4.2-5.4-10.4-8.2-17.8-8.3c-5.1-0.1-9.5,1.3-10.3,1.6c-1.8-0.4-3.7-0.7-5.8-0.7c-3.8-0.1-7.2,0.9-9.9,2.7
	c-1.2-0.4-4.3-1.5-8.1-2.1c-6.5-1.1-11.7-0.3-15.4,2.4c-4.4,3.1-6.5,8.7-6.1,16.7c0.1,2.7,1.7,10.9,4,18.7
	c3.2,10.3,6.6,16.2,10.2,17.4c0.4,0.1,0.9,0.2,1.4,0.2c1.3,0,2.9-0.6,4.6-2.6c2-2.5,4.2-4.8,6.3-7.2c1.4,0.8,3,1.2,4.6,1.2
	c0,0,0,0.1,0,0.1c-0.3,0.3-0.5,0.7-0.8,1c-1.1,1.4-1.3,1.7-4.9,2.4c-1,0.2-3.7,0.8-3.7,2.6c0,2.1,3.2,2.9,3.5,3
	c1.3,0.3,2.5,0.5,3.7,0.5c2.9,0,5.4-0.9,7.4-2.8c-0.1,7.3,0.2,14.5,1.1,16.7c0.7,1.8,2.5,6.2,8,6.2c0.8,0,1.7-0.1,2.7-0.3
	c5.8-1.2,8.3-3.8,9.3-9.5c0.5-3,1.4-10.2,1.8-14.1c0.9,0.3,2,0.4,3.3,0.4c2.6,0,5.6-0.5,7.4-1.4C119.3,63.2,123.1,60.9,122.4,58.8
	L122.4,58.8z M108.6,32.6c0,1.1-0.2,2.2-0.3,3.3c-0.2,1.2-0.4,2.4-0.4,3.8c0,1.4,0.1,2.9,0.3,4.3c0.3,2.9,0.7,5.9-0.7,8.8
	c-0.2-0.4-0.4-0.8-0.6-1.3c-0.2-0.4-0.5-1.1-1.1-2c-2-3.6-6.7-12-4.3-15.4C102.2,33.1,104.1,32.1,108.6,32.6L108.6,32.6z
	 M103.1,13.3c6.7,0.1,12,2.6,15.7,7.4c2.9,3.7-0.3,20.4-9.4,34.8c-0.1-0.1-0.2-0.2-0.3-0.3L109,55c2.4-3.9,1.9-7.8,1.5-11.2
	c-0.2-1.4-0.3-2.7-0.3-4c0-1.3,0.2-2.5,0.4-3.6c0.2-1.4,0.4-2.7,0.4-4.4c0-0.2,0.1-0.4,0-0.6c-0.1-1.6-2-6.3-5.6-10.6
	c-2-2.3-4.9-5-9-6.7C98.1,13.5,100.5,13.2,103.1,13.3L103.1,13.3z M65.7,63.7c-1.8,2.2-3.1,1.8-3.5,1.7c-2.7-0.9-5.9-6.7-8.7-15.9
	c-2.4-7.9-3.8-15.9-3.9-18.1c-0.4-7.1,1.4-12,5.1-14.7c6.1-4.3,16.1-1.7,20.1-0.4c-0.1,0.1-0.1,0.1-0.2,0.2
	c-6.6,6.7-6.4,18-6.4,18.7c0,0.3,0,0.6,0.1,1.2c0.1,1.9,0.3,5.5-0.2,9.5c-0.5,3.7,0.6,7.4,3.2,10.1c0.3,0.3,0.5,0.5,0.8,0.8
	C70.8,57.9,68.3,60.6,65.7,63.7L65.7,63.7z M72.7,54.3c-2-2.1-3-5.1-2.5-8.1c0.6-4.3,0.4-8,0.3-10c0-0.3,0-0.5,0-0.7
	c1-0.9,5.4-3.2,8.6-2.5c1.5,0.3,2.3,1.3,2.7,3c1.9,8.8,0.3,12.5-1.1,15.4c-0.3,0.6-0.5,1.2-0.8,1.8l-0.2,0.5
	c-0.4,1.2-0.8,2.2-1.1,3.3C76.5,56.9,74.4,56,72.7,54.3L72.7,54.3z M73.1,66.2c-0.6-0.2-1.2-0.4-1.5-0.7c0.3-0.1,0.8-0.3,1.6-0.5
	c4.2-0.9,4.8-1.5,6.2-3.3c0.3-0.4,0.7-0.9,1.2-1.4l0,0c0.8-0.8,1.1-0.7,1.7-0.4c0.5,0.2,1,0.8,1.2,1.5c0.1,0.3,0.2,1-0.1,1.4
	C80.4,67,76.2,67,73.1,66.2z M94.9,86.5C89.8,87.6,88,85,86.8,82c-0.8-1.9-1.1-10.6-0.9-20.2c0-0.1,0-0.3,0-0.4
	c0-0.2-0.1-0.5-0.1-0.7c-0.4-1.4-1.4-2.6-2.5-3c-0.5-0.2-1.3-0.5-2.3-0.3c0.2-0.9,0.6-1.9,1-3l0.2-0.5c0.2-0.5,0.4-1.1,0.7-1.6
	c1.4-3.1,3.3-7.3,1.2-16.9c-0.8-3.6-3.4-5.3-7.3-4.9c-2.3,0.2-4.5,1.2-5.6,1.7c-0.2,0.1-0.4,0.2-0.6,0.3c0.3-3.6,1.4-10.3,5.7-14.6
	c2.7-2.7,6.2-4,10.5-3.9c8.5,0.1,14,4.5,17,8.1c2.7,3.1,4.1,6.3,4.7,8c-4.3-0.4-7.2,0.4-8.7,2.5c-3.2,4.6,1.8,13.6,4.2,17.9
	c0.4,0.8,0.8,1.5,0.9,1.8c0.8,1.9,1.8,3.2,2.5,4.1c0.2,0.3,0.4,0.6,0.6,0.8c-1.3,0.4-3.6,1.2-3.4,5.6c-0.2,2.2-1.4,12.4-2,16
	C101.6,83.7,99.9,85.5,94.9,86.5L94.9,86.5z M116.3,62.1c-1.3,0.6-3.6,1.1-5.7,1.2c-2.3,0.1-3.5-0.3-3.8-0.5c-0.1-2.7,0.9-3,1.9-3.3
	c0.2,0,0.3-0.1,0.5-0.1c0.1,0.1,0.2,0.2,0.3,0.2c1.9,1.2,5.2,1.4,10,0.4l0.1,0C118.9,60.6,117.8,61.4,116.3,62.1L116.3,62.1z"/>
</svg>
