<?xml version="1.0" encoding="utf-8"?>
<!-- Generator: Adobe Illustrator 23.0.1, SVG Export Plug-In . SVG Version: 6.00 Build 0)  -->
<svg version="1.1" id="Layer_1" xmlns="http://www.w3.org/2000/svg" xmlns:xlink="http://www.w3.org/1999/xlink" x="0px" y="0px"
	 viewBox="0 0 170 100" style="enable-background:new 0 0 170 100;" xml:space="preserve">
<style type="text/css">
	.st0{fill:url(#SVGID_1_);}
	.st1{fill:url(#SVGID_2_);}
</style>
<title>python-2</title>
<linearGradient id="SVGID_1_" gradientUnits="userSpaceOnUse" x1="0.1964" y1="9.363322e-02" x2="0.2164" y2="0.1136" gradientTransform="matrix(1849.27 0 0 1853.39 -309.58 -155.1265)">
	<stop  offset="0" style="stop-color:#3A7FB9"/>
	<stop  offset="1" style="stop-color:#376A95"/>
</linearGradient>
<path class="st0" d="M84.7,10.2c-20.3,0-19,8.8-19,8.8v9.1h19.4v2.7H58c0,0-13-1.5-13,19s11.3,19.8,11.3,19.8h6.8v-9.5
	c0,0-0.4-11.3,11.2-11.3h19.2c0,0,10.8,0.2,10.8-10.4V20.8C104.3,20.8,105.9,10.2,84.7,10.2z M74,16.3c1.9,0,3.5,1.6,3.5,3.5v0l0,0
	c0,1.9-1.5,3.5-3.5,3.5c0,0,0,0,0,0l0,0c-1.9,0-3.5-1.5-3.5-3.5c0,0,0,0,0,0l0,0C70.5,17.9,72.1,16.3,74,16.3z"/>
<linearGradient id="SVGID_2_" gradientUnits="userSpaceOnUse" x1="-0.1387" y1="-0.2313" x2="-0.1187" y2="-0.2113" gradientTransform="matrix(1849.27 0 0 1853.39 334.88 472.2642)">
	<stop  offset="0" style="stop-color:#FEE053"/>
	<stop  offset="1" style="stop-color:#FFC433"/>
</linearGradient>
<path class="st1" d="M85.3,89.8c20.3,0,19-8.8,19-8.8v-9.1H84.9v-2.7H112c0,0,13,1.5,13-19s-11.3-19.8-11.3-19.8h-6.8v9.5
	c0,0,0.4,11.3-11.2,11.3H76.5c0,0-10.8-0.2-10.8,10.4v17.5C65.7,79.2,64.1,89.8,85.3,89.8z M96,83.7c-1.9,0-3.5-1.6-3.5-3.5v0l0,0
	c0-1.9,1.6-3.5,3.5-3.5c0,0,0,0,0,0l0,0c1.9,0,3.5,1.5,3.5,3.5c0,0,0,0,0,0l0,0C99.5,82.1,97.9,83.7,96,83.7
	C96,83.7,96,83.7,96,83.7z"/>
</svg>
