<?xml version="1.0" encoding="utf-8"?>
<!-- Generator: Adobe Illustrator 23.0.1, SVG Export Plug-In . SVG Version: 6.00 Build 0)  -->
<svg version="1.1"
	 id="Layer_1" inkscape:version="0.92.4 (5da689c313, 2019-01-14)" sodipodi:docname="pytorch-2.svg" xmlns:cc="http://creativecommons.org/ns#" xmlns:dc="http://purl.org/dc/elements/1.1/" xmlns:inkscape="http://www.inkscape.org/namespaces/inkscape" xmlns:rdf="http://www.w3.org/1999/02/22-rdf-syntax-ns#" xmlns:sodipodi="http://sodipodi.sourceforge.net/DTD/sodipodi-0.dtd" xmlns:svg="http://www.w3.org/2000/svg"
	 xmlns="http://www.w3.org/2000/svg" xmlns:xlink="http://www.w3.org/1999/xlink" x="0px" y="0px" viewBox="0 0 170 100"
	 style="enable-background:new 0 0 170 100;" xml:space="preserve">
<style type="text/css">
	.st0{fill:#F05732;}
	.st1{fill:#9E529F;}
</style>
<sodipodi:namedview  bordercolor="#666666" borderopacity="1" gridtolerance="10" guidetolerance="10" id="namedview3778" inkscape:current-layer="Layer_1" inkscape:cx="-0.93686442" inkscape:cy="47.354238" inkscape:pageopacity="0" inkscape:pageshadow="2" inkscape:window-height="706" inkscape:window-maximized="1" inkscape:window-width="1366" inkscape:window-x="-8" inkscape:window-y="-8" inkscape:zoom="5.8706467" objecttolerance="10" pagecolor="#ffffff" showgrid="false">
	</sodipodi:namedview>
<g id="g3782" transform="matrix(2.1779661,0,0,2.1779661,-13.777096,1.2228833)">
	<path id="path4696" inkscape:connector-curvature="0" class="st0" d="M52,14.7c-1.3-1-1.7,3.8-4.3,3.8c-2.9,0-3.9-12.6-6.1-12.6
		c-0.7,0-0.8-0.4-7.7,20.7c-2.8,8.7,4.3,15.3,11.5,15.3c4.5,0,11.9-2.9,11.9-12.2C57.4,22.8,54,16.2,52,14.7z M45.3,37.2
		c-3.6,0-6.5-3-6.5-6.8c0-3.8,2.9-6.8,6.5-6.8s6.5,3,6.5,6.8C51.8,34,48.9,37.2,45.3,37.2z"/>
	<path id="path4698" inkscape:connector-curvature="0" class="st1" d="M49.2,2.9c-0.5,0-1.7,2.4-1.7,3.5c0,1.5,1,1.9,1.7,1.9
		S51,7.8,51,6.4C50.9,5.3,49.6,2.9,49.2,2.9z"/>
</g>
</svg>
