<?xml version="1.0" encoding="utf-8"?>
<!-- Generator: Adobe Illustrator 23.0.1, SVG Export Plug-In . SVG Version: 6.00 Build 0)  -->
<svg version="1.1" id="Layer_1" xmlns="http://www.w3.org/2000/svg" xmlns:xlink="http://www.w3.org/1999/xlink" x="0px" y="0px"
	 viewBox="0 0 170 100" style="enable-background:new 0 0 170 100;" xml:space="preserve">
<style type="text/css">
	.st0{fill:url(#SVGID_1_);}
	.st1{fill:#2165B6;}
</style>
<g>
	
		<linearGradient id="SVGID_1_" gradientUnits="userSpaceOnUse" x1="2.700816e-02" y1="-0.48" x2="4.401552e-02" y2="-0.4611" gradientTransform="matrix(2500 0 0 1643.5742 0 822.4063)">
		<stop  offset="0" style="stop-color:#C9CBCE"/>
		<stop  offset="1" style="stop-color:#7B7A81"/>
	</linearGradient>
	<path class="st0" d="M91.7,66.5c-16.7,0-30.8-8.3-30.8-18.3S73.3,29.9,90,29.9c21,0,30.8,8.1,30.8,18.1S110.1,66.5,91.7,66.5
		 M85,19.9c-21.7,0-40,11.7-40,26.7c0,14.2,18.2,25.9,39.9,25.9S125,61.6,125,46.6S106.7,19.9,85,19.9"/>
	<path class="st1" d="M78.1,36.1v44.1h13.3V63c3.3,0,5.3-0.7,7.5,3.3c3.3,5.7,7.5,13.9,7.5,13.9h15.8c0,0-10-16.3-10.8-17.1
		c-1.5-1.6-3.3-1.6-5.8-2.4c5-0.8,9.7-2.9,11.3-7.3c1.4-4.1,1.2-9.3-1.8-12.8c-2.6-2.8-5.3-4.4-12-4.4L78.1,36.1L78.1,36.1z
		 M91.4,45.2h8.7c2.1,0,3.7,2,3.7,4.1c0,2-1.7,4.1-3.7,4.1h-8.7V45.2L91.4,45.2z"/>
</g>
</svg>
