<?xml version="1.0" encoding="UTF-8" standalone="no"?>
<svg
   xmlns:dc="http://purl.org/dc/elements/1.1/"
   xmlns:cc="http://creativecommons.org/ns#"
   xmlns:rdf="http://www.w3.org/1999/02/22-rdf-syntax-ns#"
   xmlns:svg="http://www.w3.org/2000/svg"
   xmlns="http://www.w3.org/2000/svg"
   xmlns:sodipodi="http://sodipodi.sourceforge.net/DTD/sodipodi-0.dtd"
   xmlns:inkscape="http://www.inkscape.org/namespaces/inkscape"
   viewBox="0 0 559.99994 310.00066"
   height="310"
   width="560"
   version="1.1"
   id="svg3749"
   sodipodi:docname="scikit-learn-2.svg"
   inkscape:version="0.92.4 (5da689c313, 2019-01-14)">
  <metadata
     id="metadata3755">
    <rdf:RDF>
      <cc:Work
         rdf:about="">
        <dc:format>image/svg+xml</dc:format>
        <dc:type
           rdf:resource="http://purl.org/dc/dcmitype/StillImage" />
        <dc:title></dc:title>
      </cc:Work>
    </rdf:RDF>
  </metadata>
  <defs
     id="defs3753" />
  <sodipodi:namedview
     pagecolor="#ffffff"
     bordercolor="#666666"
     borderopacity="1"
     objecttolerance="10"
     gridtolerance="10"
     guidetolerance="10"
     inkscape:pageopacity="0"
     inkscape:pageshadow="2"
     inkscape:window-width="1366"
     inkscape:window-height="706"
     id="namedview3751"
     showgrid="false"
     fit-margin-top="0"
     fit-margin-left="0"
     fit-margin-right="0"
     fit-margin-bottom="0"
     inkscape:zoom="1.7322581"
     inkscape:cx="218.80819"
     inkscape:cy="155"
     inkscape:window-x="-8"
     inkscape:window-y="-8"
     inkscape:window-maximized="1"
     inkscape:current-layer="svg3749" />
  <g
     id="g3762"
     transform="matrix(2.0059044,0,0,2.0059044,1.862235,4.9996649)">
    <path
       style="fill:#f89939"
       inkscape:connector-curvature="0"
       id="path3735"
       d="M 212.711,127.088 C 246.581,93.221 252.209,43.942 225.283,17.018 198.361,-9.903 149.084,-4.275 115.217,29.59 c -33.867,33.866 -24.07,98.568 -12.57,110.07 9.293,9.293 76.2,21.293 110.064,-12.572 z" />
    <path
       style="fill:#3499cd"
       inkscape:connector-curvature="0"
       id="path3737"
       d="M 73.741,78.15 C 54.093,58.504 25.5,55.233 9.874,70.857 c -15.62,15.622 -12.355,44.22 7.297,63.865 19.652,19.654 57.195,13.969 63.863,7.295 5.396,-5.387 12.361,-44.215 -7.293,-63.865 z" />
    <path
       style="fill:#010101"
       inkscape:connector-curvature="0"
       id="path3739"
       d="m 138.167,72.595 c -0.154,0 -0.385,0.053 -0.69,0.155 l -9.73,3.601 c -3.318,6.331 -6.143,13.25 -8.463,20.76 -2.324,7.504 -3.486,13.942 -3.486,19.303 0,3.578 0.833,6.422 2.507,8.543 1.671,2.119 3.876,3.177 6.608,3.177 2.375,0 4.871,-0.759 7.488,-2.279 2.617,-1.515 5.662,-3.873 9.133,-7.068 v -0.045 c 0.412,2.4 1.398,4.422 2.969,6.062 2.135,2.22 4.937,3.33 8.41,3.33 3.117,0 5.96,-0.759 8.54,-2.279 2.487,-1.46 5.289,-3.722 8.39,-6.742 0.262,2.25 1,4.206 2.238,5.863 1.573,2.107 3.48,3.158 5.724,3.158 2.301,0 4.53,-0.865 6.686,-2.601 2.158,-1.74 4.515,-4.434 7.068,-8.084 -0.229,7.125 1.67,10.685 5.705,10.685 1.61,0 3.297,-0.585 5.059,-1.76 1.76,-1.175 4.682,-3.707 8.768,-7.587 h 0.002 c 3.548,-3.52 6.154,-6.815 7.814,-9.88 2.248,-0.383 4.314,-1.057 6.205,-2.028 -3.855,6.053 -5.785,10.876 -5.785,14.476 0,1.942 0.54,3.57 1.61,4.887 1.07,1.31 2.386,1.969 3.945,1.969 3.408,0 8.24,-3.048 14.48,-9.1 -0.013,0.468 -0.04,0.93 -0.04,1.404 0,1.683 0.142,4.25 0.421,7.698 l 8.465,-1.989 c 0,-2.303 0.037,-4.126 0.115,-5.476 0.13,-1.815 0.383,-3.81 0.768,-5.98 0.229,-1.279 0.816,-2.49 1.76,-3.638 l 2.148,-2.492 a 61.058,61.058 0 0 1 2.219,-2.453 42.914,42.914 0 0 1 2.144,-2.14 c 0.715,-0.637 1.34,-1.14 1.88,-1.497 0.585,-0.355 1.06,-0.535 1.417,-0.535 0.635,0 0.957,0.41 0.957,1.229 0,0.814 -0.602,2.73 -1.8,5.744 -2.249,5.615 -3.374,9.791 -3.374,12.523 0,2.017 0.524,3.626 1.573,4.825 1.047,1.2 2.425,1.8 4.136,1.8 4.211,0 9.27,-3.113 15.168,-9.347 v -4.4 c -4.173,4.927 -7.197,7.392 -9.064,7.392 -1.254,0 -1.881,-0.768 -1.881,-2.305 0,-1.155 0.754,-3.656 2.262,-7.51 2.193,-5.62 3.29,-9.656 3.29,-12.105 0,-1.474 -0.431,-2.706 -1.3,-3.688 -0.865,-0.98 -1.951,-1.47 -3.25,-1.47 -1.912,0 -4.1,0.894 -6.557,2.695 -2.46,1.803 -5.78,5.037 -9.969,9.71 0.613,-3.038 1.903,-7.196 3.868,-12.483 l -9.344,1.798 c -2.121,4.599 -3.658,8.733 -4.615,12.413 a 43.503,43.503 0 0 0 -1.059,5.554 c -2.934,2.83 -4.823,4.557 -5.664,5.188 -0.842,0.622 -1.725,0.935 -2.643,0.935 -0.842,0 -1.513,-0.316 -2.011,-0.959 -0.496,-0.634 -0.746,-1.492 -0.746,-2.566 0,-1.147 0.219,-2.47 0.652,-3.963 0.433,-1.492 1.391,-4.308 2.871,-8.445 l 3.56,-9.807 -3.482,0.154 c -3.168,6.028 -6.871,9.268 -11.11,9.729 1.152,-2.99 1.725,-5.286 1.725,-6.895 0,-2.044 -0.994,-3.062 -2.986,-3.062 -2.35,0 -4.195,1.117 -5.535,3.35 -1.344,2.237 -2.012,4.335 -2.012,6.304 0,1.912 1.096,3.355 3.295,4.326 a 50.206,50.206 0 0 1 -4.523,5.715 v -0.008 c -2.17,2.17 -3.852,3.785 -5.053,4.846 -1.201,1.06 -2.3,1.59 -3.291,1.59 -1.56,0 -2.336,-1.098 -2.336,-3.293 0,-2.093 0.871,-5.963 2.607,-11.608 L 206.4,94.7 h -2.148 l -7.828,4.326 c -1.277,-2.935 -3.512,-4.404 -6.705,-4.404 -2.525,0 -5.44,1.073 -8.733,3.218 -3.293,2.145 -5.992,4.951 -8.101,8.424 -1.634,2.697 -2.625,5.501 -2.99,8.41 -2.934,2.935 -5.158,4.87 -6.641,5.746 -1.531,0.904 -3.138,1.358 -4.824,1.358 -4.316,0 -6.984,-2.492 -8.004,-7.469 11.235,-3.295 16.853,-7.582 16.853,-12.87 0,-1.991 -0.716,-3.598 -2.146,-4.825 -1.432,-1.225 -3.332,-1.84 -5.707,-1.84 -4.57,0 -8.733,2.19 -12.483,6.57 -3.408,3.971 -5.25,8.372 -5.566,13.194 -3.106,3.05 -5.436,5.074 -6.963,6.054 -1.558,0.996 -3.025,1.49 -4.406,1.49 -1.354,0 -2.438,-0.648 -3.256,-1.953 -0.817,-1.303 -1.225,-3.062 -1.225,-5.285 0,-0.997 0.102,-2.82 0.307,-5.476 5.106,-5.541 8.858,-10.75 11.26,-15.63 2.403,-4.876 3.601,-9.92 3.601,-15.128 0,-1.838 -0.238,-3.299 -0.71,-4.387 -0.469,-1.083 -1.08,-1.627 -1.817,-1.627 z m -1.88,4.407 c 0.434,0 0.794,0.29 1.075,0.865 0.28,0.574 0.418,1.337 0.418,2.277 0,3.225 -1.007,7.074 -3.023,11.549 a 46.734,46.734 0 0 1 -7.891,12.121 c 1.736,-8.465 3.504,-15.052 5.305,-19.756 1.8,-4.705 3.176,-7.056 4.117,-7.056 z m 53.858,20.76 c 1.07,0 1.924,0.4 2.565,1.206 0.635,0.803 0.957,1.922 0.957,3.35 0,3.676 -1.129,7.694 -3.389,12.049 -2.264,4.353 -4.67,6.53 -7.223,6.53 -1.049,0 -1.908,-0.428 -2.584,-1.284 -0.676,-0.856 -1.015,-1.973 -1.015,-3.354 0,-3.648 1.145,-7.644 3.43,-11.986 2.28,-4.342 4.704,-6.512 7.26,-6.512 z m -32.904,0.077 c 1.785,0 2.68,1.225 2.68,3.676 0,4.954 -3.27,8.348 -9.805,10.188 0,-4.113 0.765,-7.449 2.3,-10.014 1.532,-2.569 3.139,-3.85 4.825,-3.85 z" />
    <g
       style="font-size:23.07999992px;font-family:Helvetica;fill:#ffffff"
       id="g3743"
       font-size="23.08">
      <path
         inkscape:connector-curvature="0"
         id="path3741"
         d="m 156.026,78.16 q 0.09,1.014 0.507,1.555 0.767,0.98 2.66,0.98 1.127,0 1.983,-0.485 0.857,-0.495 0.857,-1.52 0,-0.778 -0.688,-1.184 -0.44,-0.248 -1.735,-0.575 l -1.612,-0.406 q -1.544,-0.383 -2.276,-0.856 -1.307,-0.823 -1.307,-2.276 0,-1.713 1.228,-2.773 1.24,-1.059 3.324,-1.059 2.728,0 3.933,1.6 0.755,1.014 0.733,2.186 h -1.916 q -0.056,-0.687 -0.484,-1.25 -0.7,-0.8 -2.423,-0.8 -1.15,0 -1.747,0.439 -0.586,0.44 -0.586,1.16 0,0.79 0.778,1.263 0.45,0.282 1.33,0.496 l 1.34,0.327 q 2.187,0.53 2.93,1.025 1.184,0.778 1.184,2.445 0,1.612 -1.229,2.784 -1.217,1.172 -3.719,1.172 -2.693,0 -3.82,-1.217 -1.116,-1.228 -1.194,-3.032 h 1.95 z m 2.998,-8.576 z m 12.036,-0.057 q 2.04,0 3.313,0.992 1.284,0.992 1.543,3.414 h -1.972 q -0.18,-1.115 -0.822,-1.848 -0.643,-0.743 -2.063,-0.743 -1.938,0 -2.772,1.893 -0.54,1.228 -0.54,3.031 0,1.815 0.766,3.054 0.766,1.24 2.411,1.24 1.262,0 1.995,-0.767 0.744,-0.777 1.025,-2.118 h 1.972 q -0.338,2.4 -1.69,3.516 -1.352,1.104 -3.46,1.104 -2.366,0 -3.775,-1.724 -1.408,-1.735 -1.408,-4.327 0,-3.178 1.543,-4.948 1.544,-1.769 3.933,-1.769 z m -0.316,0.057 z m 7.201,0.349 h 2.062 v 12.013 h -2.062 z m 0,-4.542 h 2.062 v 2.3 h -2.062 z m 5.094,0 h 1.95 v 9.613 l 5.206,-5.127 h 2.592 l -4.62,4.519 4.879,7.55 h -2.592 l -3.764,-6.085 -1.702,1.555 v 4.53 h -1.95 V 65.39 Z m 11.584,4.542 h 2.063 v 12.013 h -2.063 z m 0,-4.542 h 2.063 v 2.3 h -2.063 z m 5.545,1.116 h 2.051 v 3.37 h 1.927 v 1.656 h -1.927 v 7.877 q 0,0.631 0.428,0.846 0.237,0.123 0.789,0.123 h 0.316 q 0.169,-0.01 0.394,-0.033 v 1.6 q -0.35,0.101 -0.732,0.146 -0.372,0.046 -0.812,0.046 -1.42,0 -1.927,-0.722 -0.507,-0.732 -0.507,-1.893 v -7.99 h -1.634 v -1.656 h 1.634 z" />
    </g>
  </g>
</svg>
