<svg id="Layer_1" data-name="Layer 1" xmlns="http://www.w3.org/2000/svg" viewBox="0 0 170 100"><defs><style>.cls-1{fill:none;}.cls-2{fill:#f8993a;}.cls-3{fill:#3699cd;}.cls-4{fill:#020202;}.cls-5{fill:#fff;}</style></defs><title>scikit-learn-2</title><rect class="cls-1" width="170" height="100"/><g id="g3762"><path id="path3735" class="cls-2" d="M106.36,65.09c9.77-9.77,11.4-24,3.63-31.75S88,27.19,78.24,37,71.29,65.4,74.61,68.72c2.68,2.68,22,6.14,31.75-3.63Z"/><path id="path3737" class="cls-3" d="M66.27,51c-5.67-5.67-13.91-6.61-18.42-2.1S44.28,61.62,50,67.29s16.5,4,18.43,2.11c1.55-1.56,3.56-12.76-2.11-18.43Z"/><path id="path3739" class="cls-4" d="M84.86,49.37l-.2,0-2.81,1a35.53,35.53,0,0,0-2.44,6,19.39,19.39,0,0,0-1,5.57,3.92,3.92,0,0,0,.73,2.47,2.3,2.3,0,0,0,1.9.91,4.28,4.28,0,0,0,2.16-.66,15.13,15.13,0,0,0,2.64-2v0a3.23,3.23,0,0,0,.86,1.75,3.19,3.19,0,0,0,2.42,1,4.78,4.78,0,0,0,2.47-.66A13.7,13.7,0,0,0,94,62.79a3.35,3.35,0,0,0,.64,1.69,2,2,0,0,0,1.65.91,3,3,0,0,0,1.93-.75,11.64,11.64,0,0,0,2-2.33c-.07,2,.48,3.08,1.65,3.08a2.66,2.66,0,0,0,1.46-.51,24.4,24.4,0,0,0,2.52-2.18h0a12.79,12.79,0,0,0,2.25-2.86,6.16,6.16,0,0,0,1.79-.58,8.67,8.67,0,0,0-1.67,4.18,2.16,2.16,0,0,0,.47,1.41,1.41,1.41,0,0,0,1.13.56c1,0,2.38-.88,4.18-2.62,0,.13,0,.27,0,.4q0,.73.12,2.22l2.44-.57c0-.66,0-1.19,0-1.58a15,15,0,0,1,.22-1.72,2.22,2.22,0,0,1,.5-1l.62-.72c.21-.24.42-.48.64-.71s.41-.42.62-.62a5,5,0,0,1,.55-.43.83.83,0,0,1,.4-.15c.19,0,.28.11.28.35a6.32,6.32,0,0,1-.52,1.66,11,11,0,0,0-1,3.61,2,2,0,0,0,.45,1.39,1.49,1.49,0,0,0,1.19.52q1.83,0,4.38-2.69V61.43c-1.2,1.42-2.08,2.13-2.61,2.13-.37,0-.55-.22-.55-.67a8.12,8.12,0,0,1,.66-2.16,11.29,11.29,0,0,0,.94-3.5,1.54,1.54,0,0,0-.37-1.06,1.2,1.2,0,0,0-.94-.42,3.32,3.32,0,0,0-1.89.77,21.41,21.41,0,0,0-2.88,2.81,25.94,25.94,0,0,1,1.12-3.61l-2.7.52a22.5,22.5,0,0,0-1.33,3.58,12.67,12.67,0,0,0-.3,1.61c-.85.81-1.39,1.31-1.64,1.49a1.24,1.24,0,0,1-.76.27.7.7,0,0,1-.58-.27,1.2,1.2,0,0,1-.21-.74,4.32,4.32,0,0,1,.18-1.15c.13-.43.41-1.24.83-2.43l1-2.83-1,0c-.91,1.74-2,2.68-3.2,2.81a6.16,6.16,0,0,0,.5-2,.77.77,0,0,0-.86-.88,1.79,1.79,0,0,0-1.6,1,3.55,3.55,0,0,0-.58,1.82,1.35,1.35,0,0,0,1,1.25,13.75,13.75,0,0,1-1.31,1.65h0c-.62.63-1.11,1.1-1.45,1.4a1.51,1.51,0,0,1-1,.46c-.45,0-.68-.32-.68-1a14.3,14.3,0,0,1,.76-3.35l1-3.23h-.62L101.66,57a2,2,0,0,0-1.93-1.27,4.79,4.79,0,0,0-2.52.93,7.56,7.56,0,0,0-2.34,2.43A6.23,6.23,0,0,0,94,61.51a12,12,0,0,1-1.92,1.66,2.68,2.68,0,0,1-1.39.39q-1.86,0-2.31-2.16c3.25-.95,4.87-2.18,4.87-3.71a1.75,1.75,0,0,0-.62-1.39A2.48,2.48,0,0,0,91,55.77a4.7,4.7,0,0,0-3.6,1.89,6.47,6.47,0,0,0-1.61,3.81,15.3,15.3,0,0,1-2,1.75,2.47,2.47,0,0,1-1.28.43,1.07,1.07,0,0,1-.94-.57,2.87,2.87,0,0,1-.35-1.52c0-.29,0-.82.09-1.58a19.71,19.71,0,0,0,3.25-4.51,9.82,9.82,0,0,0,1-4.37,3.11,3.11,0,0,0-.21-1.26c-.13-.31-.31-.47-.52-.47Zm-.54,1.27c.12,0,.22.08.31.25a1.56,1.56,0,0,1,.12.66,8.26,8.26,0,0,1-.88,3.33,13.49,13.49,0,0,1-2.27,3.5,37.5,37.5,0,0,1,1.53-5.7c.52-1.36.91-2,1.19-2Zm15.53,6a.9.9,0,0,1,.74.35,1.46,1.46,0,0,1,.28,1,7.69,7.69,0,0,1-1,3.48c-.65,1.26-1.35,1.88-2.08,1.88a.91.91,0,0,1-.75-.37,1.52,1.52,0,0,1-.29-1,7.48,7.48,0,0,1,1-3.46c.66-1.25,1.36-1.88,2.09-1.88Zm-9.49,0c.52,0,.77.36.77,1.06,0,1.43-.94,2.41-2.83,2.94A5.62,5.62,0,0,1,89,57.76C89.41,57,89.87,56.65,90.36,56.65Z"/><g id="g3743"><path id="path3741" class="cls-5" d="M90,51a.85.85,0,0,0,.15.44.9.9,0,0,0,.76.29,1.21,1.21,0,0,0,.58-.14.48.48,0,0,0,.24-.44.35.35,0,0,0-.2-.34,2,2,0,0,0-.5-.17l-.46-.12a2.2,2.2,0,0,1-.66-.24.74.74,0,0,1-.37-.66,1,1,0,0,1,.35-.8,1.46,1.46,0,0,1,1-.31A1.32,1.32,0,0,1,92,49a.92.92,0,0,1,.21.63h-.55a.64.64,0,0,0-.14-.36.87.87,0,0,0-.7-.23.86.86,0,0,0-.5.12.42.42,0,0,0-.17.34.4.4,0,0,0,.22.36,1.24,1.24,0,0,0,.39.14l.38.1a3,3,0,0,1,.85.29.79.79,0,0,1,.34.71,1.08,1.08,0,0,1-.35.8,1.89,1.89,0,0,1-2.18,0,1.35,1.35,0,0,1-.34-.88H90Zm4.34-2.5a1.49,1.49,0,0,1,1,.29,1.36,1.36,0,0,1,.45,1h-.57a1,1,0,0,0-.24-.54.74.74,0,0,0-.59-.21.82.82,0,0,0-.8.54,2.1,2.1,0,0,0-.16.88,1.62,1.62,0,0,0,.22.88.76.76,0,0,0,.7.36.78.78,0,0,0,.57-.22,1.25,1.25,0,0,0,.3-.61h.57a1.56,1.56,0,0,1-.49,1,1.54,1.54,0,0,1-1,.32,1.35,1.35,0,0,1-1.09-.5,1.91,1.91,0,0,1-.4-1.25A2.12,2.12,0,0,1,93.21,49a1.43,1.43,0,0,1,1.14-.52Zm2,.12h.6v3.47h-.6Zm0-1.31h.6V48h-.6Zm1.47,0h.56v2.77l1.51-1.47h.74l-1.33,1.3,1.41,2.18h-.75l-1.08-1.76-.5.45v1.31H97.8V47.29Zm3.34,1.31h.6v3.47h-.6Zm0-1.31h.6V48h-.6Zm1.6.32h.6v1h.55v.47h-.55v2.28a.24.24,0,0,0,.12.24.55.55,0,0,0,.23,0h.2v.46l-.21,0h-.23a.64.64,0,0,1-.56-.21.91.91,0,0,1-.15-.54V49.06h-.47v-.47h.47Z"/></g></g></svg>