<?xml version="1.0" encoding="utf-8"?>
<!-- Generator: Adobe Illustrator 23.0.1, SVG Export Plug-In . SVG Version: 6.00 Build 0)  -->
<svg version="1.1" id="Layer_1" xmlns="http://www.w3.org/2000/svg" xmlns:xlink="http://www.w3.org/1999/xlink" x="0px" y="0px"
	 viewBox="0 0 170 100" style="enable-background:new 0 0 170 100;" xml:space="preserve">
<style type="text/css">
	.st0{fill:#F6BD3A;}
	.st1{fill:#EB8C23;}
	.st2{fill:#E35A2B;}
</style>
<g>
	<path class="st0" d="M79.3,53.3l11.4-6.6l11.3,6.6l-11.3,6.5l-11.4-6.4V53.3z"/>
	<path class="st0" d="M45,33.6l45.8-26L124.9,27l-11.3,19.6l-22.8-13L56.4,53.1L45,33.6z"/>
	<path class="st1" d="M79.3,79.3v-13l11.3-6.5l11.4-6.5v13l-11.3,6.5v13l-11.4,6.6V79.3z M79.3,53.3l-11.4-6.5l-11.4,6.4v-13
		l34.3-19.5v26L79.3,53.3z M113.4,40.1v-6.5l11.4-6.6l0.1,13l-11.4,6.6L113.4,40.1z"/>
	<path class="st2" d="M67.9,85.5V46.7l11.3-6.4l0.1,12.9l11.4,6.4v13.1l-11.4-6.1v25.7L67.9,85.5z M50.7,49.7L45,46.3V33.6l11.4,6.5
		v13L50.7,49.7z M90.8,33.6v-13l22.6,13l0.1,13L90.8,33.6z"/>
</g>
</svg>
